<svg width="24" height="24" viewBox="0 0 24 24" fill="none" xmlns="http://www.w3.org/2000/svg">
<path fill-rule="evenodd" clip-rule="evenodd" d="M8.45536 1.49916C8.45536 0.907429 7.97566 0.427734 7.38393 0.427734C6.79219 0.427734 6.3125 0.907429 6.3125 1.49916V3.01559C3.40144 3.25811 1.05898 5.50987 0.727298 8.35848C0.330483 11.7665 0.330485 14.6817 0.727298 18.0897C1.06767 21.0129 3.52552 23.3076 6.54237 23.4475C8.28741 23.5284 10.0691 23.5704 12.0009 23.5704C13.9326 23.5704 15.7143 23.5284 17.4594 23.4475C20.4762 23.3076 22.934 21.0129 23.2744 18.0897C23.6713 14.6817 23.6713 11.7665 23.2744 8.35848C22.9427 5.51004 20.6005 3.25838 17.6898 3.01564V1.49916C17.6898 0.907429 17.21 0.427734 16.6183 0.427734C16.0266 0.427734 15.5469 0.907429 15.5469 1.49916V2.92835C14.4064 2.8949 13.2342 2.87779 12.0009 2.87779C10.7677 2.87779 9.59572 2.8949 8.45536 2.92833V1.49916ZM15.5469 6.11911V5.07215C14.408 5.0381 13.2364 5.02065 12.0009 5.02065C10.7655 5.02065 9.59405 5.0381 8.45536 5.07213V6.11911C8.45536 6.71085 7.97566 7.19054 7.38393 7.19054C6.79219 7.19054 6.3125 6.71085 6.3125 6.11911V5.16981C4.48531 5.40309 3.06084 6.84516 2.85578 8.60632C2.47814 11.8496 2.47814 14.5986 2.85578 17.8418C3.073 19.7074 4.65852 21.215 6.64161 21.3069C8.35246 21.3862 10.1011 21.4276 12.0009 21.4276C13.9006 21.4276 15.6492 21.3862 17.3601 21.3069C19.3432 21.215 20.9288 19.7074 21.146 17.8418C21.5236 14.5986 21.5236 11.8496 21.146 8.60632C20.9409 6.84533 19.5167 5.40336 17.6898 5.16988V6.11911C17.6898 6.71085 17.21 7.19054 16.6183 7.19054C16.0266 7.19054 15.5469 6.71085 15.5469 6.11911ZM9.00614 11.6288C9.00614 12.7259 8.389 13.3431 7.29185 13.3431C6.19471 13.3431 5.57757 12.7259 5.57757 11.6288C5.57757 10.5316 6.19471 9.91449 7.29185 9.91449C8.389 9.91449 9.00614 10.5316 9.00614 11.6288ZM12.0011 13.3431C13.0983 13.3431 13.7154 12.7259 13.7154 11.6288C13.7154 10.5316 13.0983 9.91449 12.0011 9.91449C10.904 9.91449 10.2868 10.5316 10.2868 11.6288C10.2868 12.7259 10.904 13.3431 12.0011 13.3431ZM18.4247 11.6288C18.4247 12.7259 17.8076 13.3431 16.7104 13.3431C15.6132 13.3431 14.9961 12.7259 14.9961 11.6288C14.9961 10.5316 15.6132 9.91449 16.7104 9.91449C17.8076 9.91449 18.4247 10.5316 18.4247 11.6288ZM7.29185 18.4858C8.389 18.4858 9.00614 17.8687 9.00614 16.7716C9.00614 15.6745 8.389 15.0573 7.29185 15.0573C6.19471 15.0573 5.57757 15.6745 5.57757 16.7716C5.57757 17.8687 6.19471 18.4858 7.29185 18.4858ZM13.7154 16.7716C13.7154 17.8687 13.0983 18.4858 12.0011 18.4858C10.904 18.4858 10.2868 17.8687 10.2868 16.7716C10.2868 15.6745 10.904 15.0573 12.0011 15.0573C13.0983 15.0573 13.7154 15.6745 13.7154 16.7716Z" fill="#5D5E5F"/>
</svg>
