<svg width="17" height="18" viewBox="0 0 17 18" fill="none" xmlns="http://www.w3.org/2000/svg">
<path d="M1.3916 6.17285C0.944824 6.17285 0.681152 5.85059 0.681152 5.51367C0.681152 5.27197 0.812988 5.05225 1.11328 4.87646L7.4707 1.20703C7.76367 1.03857 8.10059 0.943359 8.41553 0.943359C8.73047 0.943359 9.06006 1.03857 9.36035 1.20703L15.7178 4.87646C16.0107 5.05225 16.1499 5.27197 16.1499 5.51367C16.1499 5.85059 15.8862 6.17285 15.4395 6.17285H1.3916ZM8.15918 2.44482L3.72803 4.92773H13.103L8.67188 2.44482C8.59131 2.40088 8.50342 2.37158 8.41553 2.37158C8.33496 2.37158 8.23975 2.40088 8.15918 2.44482ZM1.78711 15.167C1.48682 15.167 1.31104 14.9912 1.31104 14.6836V14.5811C1.31104 14.2808 1.48682 14.105 1.78711 14.105H2.17529V7.79883H1.78711C1.48682 7.79883 1.31104 7.63037 1.31104 7.32275V7.22021C1.31104 6.9126 1.48682 6.73682 1.78711 6.73682H3.7793C4.08691 6.73682 4.2627 6.9126 4.2627 7.22021V7.32275C4.2627 7.63037 4.07959 7.79883 3.7793 7.79883H3.39111V14.105H3.7793C4.07959 14.105 4.2627 14.2808 4.2627 14.5811V14.6836C4.2627 14.9912 4.08691 15.167 3.7793 15.167H1.78711ZM5.54443 15.167C5.23682 15.167 5.06104 14.9912 5.06104 14.6836V14.5811C5.06104 14.2808 5.24414 14.105 5.54443 14.105H5.92529V7.79883H5.54443C5.24414 7.79883 5.06104 7.63037 5.06104 7.32275V7.22021C5.06104 6.9126 5.23682 6.73682 5.54443 6.73682H7.53662C7.83691 6.73682 8.02002 6.9126 8.02002 7.22021V7.32275C8.02002 7.63037 7.83691 7.79883 7.53662 7.79883H7.14844V14.105H7.53662C7.83691 14.105 8.02002 14.2808 8.02002 14.5811V14.6836C8.02002 14.9912 7.83691 15.167 7.53662 15.167H5.54443ZM9.30176 15.167C8.99414 15.167 8.81836 14.9912 8.81836 14.6836V14.5811C8.81836 14.2808 8.99414 14.105 9.30176 14.105H9.68994V7.79883H9.30176C8.99414 7.79883 8.81836 7.63037 8.81836 7.32275V7.22021C8.81836 6.9126 8.99414 6.73682 9.30176 6.73682H11.2866C11.5942 6.73682 11.77 6.9126 11.77 7.22021V7.32275C11.77 7.63037 11.5942 7.79883 11.2866 7.79883H10.9058V14.105H11.2866C11.5942 14.105 11.77 14.2808 11.77 14.5811V14.6836C11.77 14.9912 11.5942 15.167 11.2866 15.167H9.30176ZM13.0518 15.167C12.7515 15.167 12.5684 14.9912 12.5684 14.6836V14.5811C12.5684 14.2808 12.7515 14.105 13.0518 14.105H13.4473V7.79883H13.0518C12.7515 7.79883 12.5684 7.63037 12.5684 7.32275V7.22021C12.5684 6.9126 12.7515 6.73682 13.0518 6.73682H15.0439C15.3442 6.73682 15.5273 6.9126 15.5273 7.22021V7.32275C15.5273 7.63037 15.3442 7.79883 15.0439 7.79883H14.6631V14.105H15.0439C15.3442 14.105 15.5273 14.2808 15.5273 14.5811V14.6836C15.5273 14.9912 15.3442 15.167 15.0439 15.167H13.0518ZM0.666504 17.0566C0.300293 17.0566 0 16.7563 0 16.3901C0 16.0312 0.300293 15.731 0.666504 15.731H16.1279C16.4868 15.731 16.7944 16.0312 16.7944 16.3901C16.7944 16.7563 16.4868 17.0566 16.1279 17.0566H0.666504Z" fill="white"/>
</svg>
