<svg width="19" height="15" viewBox="0 0 19 15" fill="none" xmlns="http://www.w3.org/2000/svg">
<path d="M3 13.0293V4.97266C3 3.71289 3.65039 3.05078 4.9043 3.05078H5.89453V1.97266C5.89453 0.707031 6.55078 0.0507812 7.79883 0.0507812H10.0078C10.6816 0.0507812 11.2031 0.220703 11.6426 0.671875L14.5664 3.64844C15.0293 4.12305 15.1875 4.61523 15.1875 5.38281V10.0234C15.1875 11.2891 14.5371 11.9453 13.2832 11.9453H12.2871V13.0293C12.2871 14.2891 11.6426 14.9512 10.3887 14.9512H4.9043C3.65039 14.9512 3 14.2949 3 13.0293ZM11.7012 6.87109C12.1934 7.36914 12.2871 7.73242 12.2871 8.52344V10.7969H13.1836C13.7578 10.7969 14.0391 10.498 14.0391 9.95312V5.10156H11.4551C10.7344 5.10156 10.3477 4.72656 10.3477 4V1.19922H7.89844C7.33008 1.19922 7.04297 1.49805 7.04297 2.03711V3.05664C7.69336 3.0625 8.07422 3.18555 8.52539 3.64258L11.7012 6.87109ZM11.3086 3.85352C11.3086 4.05859 11.3965 4.14062 11.5957 4.14062H13.7402L11.3086 1.67383V3.85352ZM4.14844 12.959C4.14844 13.5039 4.42969 13.8027 4.99805 13.8027H10.2891C10.8574 13.8027 11.1387 13.5039 11.1387 12.959V8.6582H8.04492C7.21289 8.6582 6.79688 8.24805 6.79688 7.41016V4.19922H4.99805C4.42969 4.19922 4.14844 4.50391 4.14844 5.04297V12.959ZM8.15625 7.64453H10.9805L7.81055 4.42188V7.29883C7.81055 7.53906 7.91602 7.64453 8.15625 7.64453Z" fill="#3DA8D5"/>
</svg>
