<svg width="12" height="12" viewBox="0 0 12 12" fill="none" xmlns="http://www.w3.org/2000/svg">
<path fill-rule="evenodd" clip-rule="evenodd" d="M11.138 1.83806C11.4075 1.5686 11.4075 1.13171 11.138 0.862251C10.8686 0.592791 10.4317 0.592791 10.1623 0.862251L6.00016 5.02436L1.83807 0.862251C1.5686 0.592791 1.13171 0.592791 0.862251 0.862251C0.592791 1.13171 0.592791 1.5686 0.862251 1.83806L5.02436 6.00016L0.862251 10.1623C0.592791 10.4318 0.592791 10.8686 0.862251 11.1381C1.13171 11.4075 1.5686 11.4075 1.83807 11.1381L6.00016 6.97596L10.1623 11.1381C10.4317 11.4075 10.8686 11.4075 11.138 11.1381C11.4075 10.8686 11.4075 10.4318 11.138 10.1623L6.97596 6.00016L11.138 1.83806Z" fill="#BABAC1"/>
</svg>
