<svg width="18" height="14" viewBox="0 0 18 14" fill="none" xmlns="http://www.w3.org/2000/svg">
<path d="M2.40234 13.833C0.820312 13.833 0 13.02 0 11.46V2.53906C0 0.97168 0.820312 0.166016 2.40234 0.166016H14.9487C16.5308 0.166016 17.3511 0.979004 17.3511 2.53906V11.46C17.3511 13.02 16.5308 13.833 14.9487 13.833H2.40234ZM2.49023 12.3975H14.8608C15.5347 12.3975 15.9155 12.0459 15.9155 11.3354V7.67334H14.4727L13.6304 10.3174C13.4912 10.7642 12.7881 10.7715 12.6562 10.332L11.0742 5.2417L10.21 7.25586C10.1001 7.52686 9.94629 7.67334 9.63867 7.67334H7.99805L7.15576 10.3174C7.00928 10.7642 6.31348 10.7715 6.18164 10.332L4.59229 5.24902L3.77197 7.25586C3.65479 7.52686 3.5083 7.67334 3.20068 7.67334H1.44287V6.64795H2.87109L4.11621 3.60107C4.30664 3.14697 4.94385 3.1543 5.08301 3.5791L6.66504 8.37646L7.13379 7.06543C7.22168 6.80176 7.39746 6.64795 7.70508 6.64795H9.3457L10.5908 3.60107C10.7812 3.14697 11.4185 3.1543 11.5576 3.5791L13.1396 8.37646L13.6084 7.06543C13.7036 6.79443 13.8721 6.64795 14.1797 6.64795H15.9155V2.66357C15.9155 1.95312 15.5347 1.59424 14.8608 1.59424H2.49023C1.80908 1.59424 1.43555 1.95312 1.43555 2.66357V11.3354C1.43555 12.0459 1.80908 12.3975 2.49023 12.3975Z" fill="#19223F"/>
</svg>
