<svg width="16" height="16" viewBox="0 0 16 16" fill="none" xmlns="http://www.w3.org/2000/svg">
<path d="M7.56592 8.24219C7.11914 8.24219 6.81885 7.91992 6.81885 7.45117V1.00586C6.81885 0.529785 7.11914 0.214844 7.56592 0.214844C8.0127 0.214844 8.31299 0.529785 8.31299 1.00586V7.45117C8.31299 7.91992 8.0127 8.24219 7.56592 8.24219ZM7.56592 15.7861C3.39111 15.7861 0 12.395 0 8.22021C0 6.0083 0.966797 4.03076 2.3584 2.771C3.12012 2.05322 4.16016 3.02734 3.39111 3.80371C2.21924 4.90967 1.48682 6.46973 1.48682 8.22021C1.48682 11.582 4.2041 14.2993 7.56592 14.2993C10.9277 14.2993 13.645 11.582 13.645 8.22021C13.645 6.47705 12.9199 4.91699 11.7407 3.81104C10.979 3.04199 12.0264 2.03125 12.7808 2.76367C14.1577 4.05273 15.1318 5.94971 15.1318 8.22021C15.1318 12.395 11.7407 15.7861 7.56592 15.7861Z" fill="white"/>
</svg>
