<svg width="48" height="32" viewBox="0 0 48 32" fill="none" xmlns="http://www.w3.org/2000/svg">
<path d="M34.6972 14.8281V25.4535L31.3973 27.3994L23.5901 31.9997L15.7804 27.3994L12.4805 25.4535V14.8281L20.2902 19.431L23.5901 21.3744L26.89 19.431L34.6972 14.8281Z" fill="#6683AE"/>
<path d="M22.2168 6.54626V17.1716L14.4095 12.5712L11.1096 10.6253L7.80971 12.5712L0 17.1716V6.54626L3.29991 4.60288L11.1096 0L18.9169 4.60288L22.2168 6.54626Z" fill="#0B0B0B"/>
<path d="M47.1777 6.54626V17.1716L39.3705 12.5712L36.0706 10.6253L32.7682 12.5712L24.9609 17.1716V6.54626L28.2609 4.60288L36.0706 0L43.8778 4.60288L47.1777 6.54626Z" fill="#0B0B0B"/>
</svg>
