<svg width="17" height="14" viewBox="0 0 17 14" fill="none" xmlns="http://www.w3.org/2000/svg">
<path d="M2.40234 13.8228C0.820312 13.8228 0 13.0098 0 11.4424V2.51416C0 0.976074 0.805664 0.177734 2.17529 0.177734H4.24805C5.00977 0.177734 5.39062 0.316895 5.90332 0.741699L6.32812 1.07861C6.73096 1.4082 7.03857 1.53271 7.56592 1.53271H14.3774C15.9595 1.53271 16.7798 2.3457 16.7798 3.91309V11.4424C16.7798 13.0098 15.9668 13.8228 14.5679 13.8228H2.40234ZM1.43555 2.63867V4.4624H15.3442V4.0376C15.3442 3.31982 14.9707 2.96826 14.2969 2.96826H7.18506C6.42334 2.96826 6.02783 2.8291 5.52246 2.41162L5.09766 2.06738C4.6875 1.73047 4.38721 1.61328 3.86719 1.61328H2.46094C1.80176 1.61328 1.43555 1.96484 1.43555 2.63867ZM2.49023 12.3872H14.2969C14.9707 12.3872 15.3442 12.0356 15.3442 11.3252V5.72949H1.43555V11.3252C1.43555 12.0356 1.80908 12.3872 2.49023 12.3872Z" fill="white"/>
</svg>
