<svg width="246" height="32" viewBox="0 0 246 32" fill="none" xmlns="http://www.w3.org/2000/svg">
<path d="M34.6972 14.8281V25.4535L31.3973 27.3994L23.5901 31.9997L15.7804 27.3994L12.4805 25.4535V14.8281L20.2902 19.431L23.5901 21.3744L26.89 19.431L34.6972 14.8281Z" fill="#FFBB00"/>
<path d="M22.2168 6.54626V17.1716L14.4095 12.5712L11.1096 10.6253L7.80971 12.5712L0 17.1716V6.54626L3.29991 4.60288L11.1096 0L18.9169 4.60288L22.2168 6.54626Z" fill="#0B0B0B"/>
<path d="M47.1777 6.54626V17.1716L39.3705 12.5712L36.0706 10.6253L32.7682 12.5712L24.9609 17.1716V6.54626L28.2609 4.60288L36.0706 0L43.8778 4.60288L47.1777 6.54626Z" fill="#0B0B0B"/>
<path d="M60.6572 7.98709H68.7794V30.1036H76.2979V7.98709H84.4277V1.89648H60.6572V7.98709Z" fill="#0B0B0B"/>
<path d="M104.271 16.1989L96.6912 1.89648H88.9053V30.1036H96.4162V15.5048L101.398 24.5745H107.136L112.118 15.5048V30.1036H119.637V1.89648H111.843L104.271 16.1989Z" fill="#0B0B0B"/>
<path d="M142.643 1.89648L136.606 12.752H133.565V1.89648H126.047V30.1036H133.565V18.8504H136.606L142.604 30.1036H150.581L142.887 15.8012L150.627 1.89648H142.643Z" fill="#0B0B0B"/>
<path d="M168.445 30.1036H190.474V24.013H175.964V18.8504H187.379V12.752H175.964V7.98709H190.474V1.89648H168.445V30.1036Z" fill="#0B0B0B"/>
<path d="M202.859 1.89648H195.341V30.1036H216.98V24.013H202.859V1.89648Z" fill="#0B0B0B"/>
<path d="M243.655 4.29061C242.126 2.73092 239.796 1.89648 236.824 1.89648H221.458V30.1036H236.824C239.796 30.1036 242.096 29.3237 243.655 27.7095C245.213 26.0952 246 23.8102 246 20.7376V11.2625C246 8.22105 245.206 5.8737 243.655 4.29061ZM238.482 20.7376C238.482 22.9368 237.435 24.013 235.273 24.013H228.977V7.98709H235.273C237.435 7.98709 238.482 9.05548 238.482 11.2625V20.7376Z" fill="#0B0B0B"/>
</svg>
