<svg width="17" height="17" viewBox="0 0 17 17" fill="none" xmlns="http://www.w3.org/2000/svg">
<g clip-path="url(#clip0_2662_149)">
<path d="M15.6137 3.74346L14.3309 2.46067L13.1564 1.28611C13.0787 1.20848 12.9865 1.14686 12.885 1.10485C12.7836 1.06278 12.6748 1.04117 12.565 1.04117C12.4551 1.04117 12.3464 1.06278 12.245 1.10485C12.1434 1.14686 12.0512 1.20848 11.9735 1.28611C11.8959 1.36382 11.8343 1.45604 11.7922 1.55748C11.7502 1.65898 11.7285 1.76771 11.7285 1.87757C11.7285 1.98743 11.7502 2.09616 11.7922 2.19767C11.8343 2.2991 11.8959 2.39133 11.9735 2.46903L12.8065 3.30203L12.1151 5.37617C11.9689 5.81683 11.9484 6.28957 12.0558 6.74127C12.1632 7.19298 12.3943 7.60579 12.7232 7.93347L15.1806 10.4325V14.3309C15.1806 14.5519 15.0928 14.7637 14.9366 14.9199C14.7804 15.0761 14.5685 15.1639 14.3476 15.1639C14.1266 15.1639 13.9148 15.0761 13.7586 14.9199C13.6024 14.7637 13.5146 14.5519 13.5146 14.3309V12.6649C13.5146 12.0022 13.2513 11.3665 12.7826 10.8978C12.3139 10.4292 11.6783 10.1659 11.0156 10.1659H10.1659V2.66892C10.1659 2.00613 9.90263 1.37055 9.43393 0.901843C8.9653 0.433209 8.32964 0.169922 7.66692 0.169922H2.66892C2.00613 0.169922 1.37055 0.433209 0.901843 0.901843C0.433209 1.37055 0.169922 2.00613 0.169922 2.66892V14.3309C0.169922 14.9936 0.433209 15.6293 0.901843 16.0979C1.37055 16.5666 2.00613 16.8299 2.66892 16.8299H7.66692C8.32964 16.8299 8.9653 16.5666 9.434 16.0979C9.90263 15.6293 10.1659 14.9936 10.1659 14.3309V11.8319H10.9989C11.2199 11.8319 11.4317 11.9197 11.5879 12.0759C11.7441 12.2321 11.8319 12.444 11.8319 12.6649V14.3309C11.8319 14.9936 12.0952 15.6293 12.5638 16.0979C13.0325 16.5666 13.6682 16.8299 14.3309 16.8299C14.9936 16.8299 15.6293 16.5666 16.0979 16.0979C16.5666 15.6293 16.8299 14.9936 16.8299 14.3309V6.69233C16.8309 6.145 16.724 5.60284 16.5153 5.09688C16.3066 4.59091 16.0003 4.13092 15.6137 3.74346ZM8.49992 14.3309C8.49992 14.5519 8.41209 14.7637 8.2559 14.9199C8.09971 15.0761 7.88785 15.1639 7.66692 15.1639H2.66892C2.44799 15.1639 2.23613 15.0761 2.07987 14.9199C1.92368 14.7637 1.83592 14.5519 1.83592 14.3309V8.49992H8.49992V14.3309ZM8.49992 6.83392H1.83592V2.66892C1.83592 2.44799 1.92368 2.23613 2.07987 2.07987C2.23613 1.92368 2.44799 1.83592 2.66892 1.83592H7.66692C7.88785 1.83592 8.09978 1.92368 8.25597 2.07987C8.41209 2.23613 8.49992 2.44799 8.49992 2.66892V6.83392ZM15.1639 8.01677L13.8811 6.73398C13.7754 6.62624 13.7011 6.49187 13.6659 6.3451C13.6306 6.19841 13.636 6.04491 13.6812 5.90098L14.106 4.61811L14.4309 4.95131C14.8936 5.41343 15.1568 6.03839 15.1639 6.69233V8.01677Z" fill="#8C8C9B" stroke="white" stroke-width="0.4"/>
</g>
<defs>
<clipPath id="clip0_2662_149">
<rect width="17" height="17" fill="white"/>
</clipPath>
</defs>
</svg>
