<svg width="422" height="92" viewBox="0 0 422 92" fill="none" xmlns="http://www.w3.org/2000/svg">
<path d="M331.999 53.8036C331.999 57.2237 331.465 59.7888 330.396 61.4988C329.327 63.2089 327.176 64.0639 323.943 64.0639H302.26C300.069 64.0639 298.346 63.4227 297.09 62.1401C295.861 60.8576 295.246 59.1074 295.246 56.8897V9.6759L295.807 9.11479H330.035C330.222 10.0233 330.342 10.8783 330.396 11.6799C330.449 12.4815 330.476 13.2296 330.476 13.9243C330.476 14.6191 330.383 15.4741 330.196 16.4894C330.035 17.4781 329.795 18.44 329.474 19.3752H312.721C311.438 19.3752 309.621 19.3484 307.27 19.295C307.27 20.3905 307.283 21.3658 307.31 22.2208C307.337 23.0491 307.35 23.9977 307.35 25.0665V31.399C308.392 31.399 309.408 31.399 310.396 31.399C311.385 31.3723 312.16 31.359 312.721 31.359H325.346C325.586 32.1071 325.76 32.9622 325.867 33.9241C326.001 34.8593 326.067 35.6608 326.067 36.3288C326.067 37.0236 326.001 37.8385 325.867 38.7737C325.76 39.6822 325.586 40.5238 325.346 41.2987H312.721C312.16 41.2987 311.385 41.2987 310.396 41.2987C309.408 41.2987 308.392 41.2854 307.35 41.2586V48.3928C307.35 49.3814 307.337 50.2899 307.31 51.1182C307.283 51.9465 307.27 52.8817 307.27 53.9238V53.9639C308.178 53.9372 309.1 53.9104 310.035 53.8837C310.997 53.8303 312.026 53.8036 313.122 53.8036H331.999Z" fill="white"/>
<path d="M372.621 53.523C372.621 57.4241 371.993 60.1628 370.737 61.7393C369.481 63.2891 367.344 64.0639 364.325 64.0639H345.808C343.643 64.0639 341.92 63.436 340.638 62.1802C339.355 60.8976 338.714 59.1341 338.714 56.8897V9.15487L339.275 8.59375H343.764C346.142 8.59375 347.932 9.2083 349.134 10.4374C350.363 11.6665 350.978 13.6438 350.978 16.3692V53.8036C353.57 53.6165 356.055 53.523 358.433 53.523H372.621Z" fill="white"/>
<path d="M422 36.4491C422 39.5753 421.786 42.5946 421.358 45.5071C420.931 48.3928 420.076 51.0915 418.793 53.6032C417.538 56.0881 415.64 58.3192 413.102 60.2964C411.873 61.2584 410.39 62.0332 408.653 62.6211C406.943 63.2089 405.18 63.6364 403.363 63.9036C401.573 64.1708 399.943 64.3044 398.473 64.3044C395.053 64.3044 391.766 64.2643 388.613 64.1842C385.461 64.1307 382.147 64.0639 378.674 63.9838L378.113 63.4627V9.51558L378.674 8.99455C382.121 8.86095 385.42 8.78079 388.573 8.75407C391.753 8.70063 395.053 8.67391 398.473 8.67391C399.943 8.67391 401.586 8.80751 403.403 9.0747C405.22 9.3419 406.983 9.76942 408.693 10.3573C410.43 10.9451 411.9 11.72 413.102 12.6819C415.614 14.6591 417.497 16.9036 418.753 19.4152C420.036 21.9269 420.891 24.6256 421.318 27.5113C421.773 30.3703 422 33.3496 422 36.4491ZM409.455 36.4491C409.455 34.3649 409.321 32.2541 409.054 30.1165C408.787 27.9789 408.279 26.015 407.531 24.2248C406.783 22.4079 405.687 20.9516 404.244 19.8561C402.802 18.7606 400.878 18.2129 398.473 18.2129C397.057 18.2129 395.708 18.2129 394.425 18.2129C393.169 18.2129 391.793 18.1861 390.297 18.1327V54.8055C391.793 54.7788 393.169 54.7655 394.425 54.7655C395.708 54.7655 397.057 54.7655 398.473 54.7655C400.878 54.7655 402.802 54.2177 404.244 53.1222C405.687 52 406.783 50.5437 407.531 48.7535C408.279 46.9366 408.787 44.9593 409.054 42.8217C409.321 40.6574 409.455 38.5332 409.455 36.4491Z" fill="white"/>
<path d="M296.593 81.441C296.414 81.4768 296.226 81.4977 296.029 81.5037C295.833 81.5156 295.657 81.5216 295.501 81.5216C295.345 81.5216 295.169 81.5156 294.972 81.5037C294.776 81.4977 294.591 81.4768 294.418 81.441V71.7183L294.513 71.6288H300.881C300.916 71.7601 300.942 71.9063 300.959 72.0675C300.976 72.2286 300.985 72.3659 300.985 72.4793C300.985 72.8016 300.901 73.0523 300.734 73.2313C300.572 73.4104 300.286 73.4999 299.876 73.4999H297.84C297.615 73.4999 297.398 73.4999 297.19 73.4999C296.982 73.4939 296.78 73.4909 296.584 73.4909C296.59 73.6879 296.593 73.8849 296.593 74.0818C296.593 74.2728 296.593 74.4638 296.593 74.6548V75.756C296.76 75.75 296.907 75.747 297.034 75.747H299.98C300.015 75.8783 300.038 76.0276 300.049 76.1947C300.067 76.3558 300.075 76.4961 300.075 76.6155C300.075 76.7408 300.067 76.89 300.049 77.0631C300.038 77.2362 300.015 77.3914 299.98 77.5286H297.034C296.907 77.5286 296.76 77.5257 296.593 77.5197V81.441Z" fill="white"/>
<path d="M303.765 79.4445C303.684 79.4445 303.566 79.4415 303.41 79.4356C303.254 79.4296 303.115 79.4266 302.994 79.4266L302.327 81.4499C302.194 81.4798 302.047 81.5007 301.885 81.5126C301.729 81.5305 301.567 81.5395 301.4 81.5395C301.209 81.5395 301.021 81.5246 300.837 81.4947C300.657 81.4708 300.507 81.432 300.386 81.3783L300.317 81.2619L303.73 71.6288C303.944 71.5989 304.166 71.578 304.397 71.5661C304.634 71.5482 304.845 71.5392 305.03 71.5392C305.203 71.5392 305.394 71.5482 305.602 71.5661C305.815 71.578 306.029 71.5989 306.243 71.6288L309.613 81.3336C309.445 81.4171 309.24 81.4768 308.998 81.5126C308.761 81.5544 308.556 81.5753 308.383 81.5753C308.111 81.5753 307.866 81.5216 307.646 81.4141C307.427 81.3007 307.251 81.0292 307.118 80.5994L306.737 79.4266C306.621 79.4266 306.488 79.4296 306.338 79.4356C306.188 79.4415 306.072 79.4445 305.991 79.4445H303.765ZM304.077 76.1589L303.583 77.654C303.693 77.654 303.811 77.651 303.938 77.645C304.071 77.6391 304.175 77.6361 304.25 77.6361H305.558C305.633 77.6361 305.726 77.6391 305.836 77.645C305.951 77.645 306.058 77.648 306.156 77.654L305.732 76.3737C305.604 75.95 305.466 75.4635 305.316 74.9144C305.171 74.3594 305.041 73.864 304.926 73.4283H304.839C304.729 73.8461 304.605 74.3116 304.467 74.8249C304.328 75.3382 304.198 75.7829 304.077 76.1589Z" fill="white"/>
<path d="M310.04 80.6621C310.046 80.3756 310.127 80.0653 310.282 79.731C310.444 79.3908 310.638 79.1461 310.863 78.9969C311.267 79.2356 311.726 79.4475 312.241 79.6325C312.76 79.8176 313.297 79.9101 313.852 79.9101C314.268 79.9041 314.623 79.8056 314.918 79.6146C315.212 79.4177 315.359 79.1491 315.359 78.8089C315.359 78.3075 314.99 77.9285 314.251 77.6719L312.7 77.0541C312.018 76.8094 311.449 76.4782 310.993 76.0604C310.537 75.6366 310.308 75.0756 310.308 74.3773C310.308 73.5238 310.629 72.8135 311.27 72.2465C311.911 71.6795 312.795 71.393 313.921 71.3871C314.551 71.3811 315.172 71.4557 315.784 71.6109C316.402 71.7661 316.925 71.9451 317.352 72.148C317.352 72.4703 317.286 72.7896 317.153 73.106C317.02 73.4163 316.838 73.664 316.607 73.8491C316.185 73.6521 315.726 73.4909 315.23 73.3656C314.739 73.2403 314.291 73.1776 313.887 73.1776C313.482 73.1836 313.165 73.2791 312.934 73.4641C312.708 73.6491 312.596 73.8819 312.596 74.1624C312.596 74.4071 312.688 74.5951 312.873 74.7264C313.064 74.8518 313.323 74.9741 313.653 75.0935L315.178 75.6933C315.917 75.9619 316.52 76.3409 316.988 76.8303C317.456 77.3197 317.69 77.9255 317.69 78.6477C317.69 79.2744 317.528 79.8146 317.205 80.2682C316.881 80.7218 316.434 81.0709 315.862 81.3157C315.29 81.5604 314.629 81.6827 313.878 81.6827C313.012 81.6887 312.249 81.5813 311.591 81.3604C310.932 81.1396 310.415 80.9068 310.04 80.6621Z" fill="white"/>
<path d="M320.592 74.5295C320.592 74.3385 320.595 74.1624 320.601 74.0013C320.607 73.8401 320.61 73.6581 320.61 73.4551C320.5 73.4551 320.344 73.4581 320.142 73.4641C319.94 73.4701 319.781 73.473 319.665 73.473H317.924C317.895 73.3059 317.875 73.1478 317.863 72.9985C317.852 72.8434 317.846 72.7001 317.846 72.5688C317.846 72.4435 317.852 72.2972 317.863 72.1301C317.875 71.963 317.895 71.7959 317.924 71.6288H325.383C325.418 71.7601 325.444 71.9063 325.461 72.0675C325.479 72.2286 325.487 72.3659 325.487 72.4793C325.487 72.8016 325.404 73.0493 325.236 73.2224C325.074 73.3895 324.788 73.473 324.378 73.473H323.677C323.567 73.473 323.411 73.4701 323.209 73.4641C323.012 73.4581 322.862 73.4551 322.758 73.4551C322.758 73.6581 322.761 73.8401 322.767 74.0013C322.773 74.1624 322.776 74.3385 322.776 74.5295V81.441C322.643 81.4708 322.467 81.4917 322.247 81.5037C322.033 81.5156 321.849 81.5216 321.693 81.5216C321.537 81.5216 321.352 81.5156 321.138 81.5037C320.93 81.4917 320.748 81.4708 320.592 81.441V74.5295Z" fill="white"/>
<path d="M332.583 79.4445C332.502 79.4445 332.384 79.4415 332.228 79.4356C332.072 79.4296 331.933 79.4266 331.812 79.4266L331.145 81.4499C331.012 81.4798 330.865 81.5007 330.703 81.5126C330.547 81.5305 330.385 81.5395 330.218 81.5395C330.027 81.5395 329.839 81.5246 329.655 81.4947C329.475 81.4708 329.325 81.432 329.204 81.3783L329.135 81.2619L332.548 71.6288C332.762 71.5989 332.984 71.578 333.215 71.5661C333.452 71.5482 333.663 71.5392 333.848 71.5392C334.021 71.5392 334.212 71.5482 334.42 71.5661C334.633 71.578 334.847 71.5989 335.061 71.6288L338.431 81.3336C338.263 81.4171 338.058 81.4768 337.816 81.5126C337.579 81.5544 337.374 81.5753 337.201 81.5753C336.929 81.5753 336.684 81.5216 336.464 81.4141C336.245 81.3007 336.069 81.0292 335.936 80.5994L335.555 79.4266C335.439 79.4266 335.306 79.4296 335.156 79.4356C335.006 79.4415 334.89 79.4445 334.809 79.4445H332.583ZM332.895 76.1589L332.401 77.654C332.511 77.654 332.629 77.651 332.756 77.645C332.889 77.6391 332.993 77.6361 333.068 77.6361H334.376C334.451 77.6361 334.544 77.6391 334.654 77.645C334.769 77.645 334.876 77.648 334.974 77.654L334.55 76.3737C334.422 75.95 334.284 75.4635 334.134 74.9144C333.989 74.3594 333.859 73.864 333.744 73.4283H333.657C333.547 73.8461 333.423 74.3116 333.285 74.8249C333.146 75.3382 333.016 75.7829 332.895 76.1589Z" fill="white"/>
<path d="M342.757 76.3021C342.67 76.141 342.563 75.9261 342.436 75.6575C342.315 75.383 342.193 75.1114 342.072 74.8428C341.951 74.5683 341.853 74.3504 341.778 74.1893L341.708 74.2161C341.726 74.622 341.743 75.0696 341.76 75.559C341.783 76.0425 341.801 76.4961 341.812 76.9199C341.824 77.3376 341.83 77.651 341.83 77.8599V81.441C341.651 81.4768 341.474 81.4977 341.301 81.5037C341.134 81.5156 340.978 81.5216 340.833 81.5216C340.695 81.5216 340.533 81.5156 340.348 81.5037C340.163 81.4977 339.984 81.4768 339.811 81.441V71.6735C339.984 71.6377 340.195 71.6079 340.443 71.584C340.692 71.5601 340.891 71.5482 341.041 71.5482C341.203 71.5482 341.408 71.5542 341.656 71.5661C341.91 71.5721 342.124 71.593 342.297 71.6288L344.957 76.7766C345.044 76.9318 345.154 77.1556 345.286 77.4481C345.419 77.7346 345.552 78.027 345.685 78.3254C345.818 78.6179 345.925 78.8477 346.006 79.0148L346.084 78.9969C346.06 78.6448 346.032 78.2329 345.997 77.7614C345.968 77.2839 345.942 76.8214 345.919 76.3737C345.896 75.9201 345.884 75.5561 345.884 75.2815V72.8105C345.884 72.3092 345.982 71.972 346.179 71.7989C346.375 71.6258 346.687 71.5392 347.115 71.5392H347.851L347.955 71.6467V81.4141C347.776 81.4499 347.562 81.4768 347.314 81.4947C347.065 81.5126 346.866 81.5216 346.716 81.5216C346.56 81.5216 346.349 81.5156 346.084 81.5037C345.818 81.4977 345.601 81.4768 345.434 81.441L342.757 76.3021Z" fill="white"/>
<path d="M358.757 76.5528C358.757 78.1882 358.396 79.4236 357.674 80.2592C356.952 81.0889 355.794 81.5037 354.2 81.5037C353.541 81.5037 352.949 81.4977 352.424 81.4858C351.898 81.4798 351.3 81.4679 350.63 81.4499L350.535 81.3515V71.7183L350.63 71.6198C351.3 71.6019 351.898 71.587 352.424 71.5751C352.949 71.5631 353.541 71.5572 354.2 71.5572C355.782 71.5572 356.938 71.9899 357.665 72.8553C358.393 73.7148 358.757 74.9473 358.757 76.5528ZM356.53 76.5528C356.53 76.1827 356.502 75.8067 356.444 75.4247C356.386 75.0428 356.276 74.6936 356.115 74.3773C355.959 74.0609 355.725 73.8073 355.413 73.6163C355.107 73.4193 354.7 73.3208 354.191 73.3208C353.902 73.3208 353.645 73.3179 353.42 73.3119C353.201 73.3059 352.958 73.3029 352.692 73.3029V79.7847C352.964 79.7847 353.209 79.7818 353.429 79.7758C353.648 79.7698 353.902 79.7668 354.191 79.7668C354.7 79.7668 355.107 79.6713 355.413 79.4803C355.725 79.2834 355.959 79.0267 356.115 78.7104C356.276 78.3941 356.386 78.0479 356.444 77.6719C356.502 77.2959 356.53 76.9228 356.53 76.5528Z" fill="white"/>
<path d="M363.531 76.5438C363.531 75.5173 363.701 74.619 364.042 73.8491C364.389 73.0732 364.897 72.4703 365.567 72.0406C366.237 71.6049 367.063 71.3871 368.045 71.3871C369.044 71.3871 369.879 71.6019 370.549 72.0316C371.224 72.4614 371.733 73.0642 372.073 73.8401C372.414 74.61 372.585 75.5113 372.585 76.5438C372.585 77.5107 372.408 78.3881 372.056 79.1759C371.709 79.9638 371.198 80.5457 370.523 80.9217L370.566 80.9575C371.057 81.3574 371.481 81.5962 371.839 81.6738C372.198 81.7514 372.504 81.7991 372.758 81.817C372.735 82.3482 372.573 82.7451 372.273 83.0077C371.978 83.2763 371.634 83.4106 371.242 83.4106C371.039 83.4106 370.811 83.3718 370.557 83.2942C370.309 83.2226 370.043 83.0525 369.76 82.7839L368.443 81.6559C368.339 81.6738 368.238 81.6827 368.14 81.6827C366.615 81.6827 365.466 81.2172 364.692 80.2861C363.918 79.355 363.531 78.1076 363.531 76.5438ZM365.766 76.5438C365.766 76.9258 365.795 77.3197 365.853 77.7256C365.916 78.1255 366.029 78.4985 366.191 78.8447C366.352 79.1909 366.583 79.4714 366.884 79.6863C367.184 79.8952 367.574 79.9996 368.053 79.9996C368.539 79.9996 368.931 79.8952 369.232 79.6863C369.532 79.4714 369.763 79.1909 369.925 78.8447C370.086 78.4985 370.196 78.1255 370.254 77.7256C370.312 77.3197 370.341 76.9258 370.341 76.5438C370.341 76.1619 370.312 75.7679 370.254 75.3621C370.196 74.9562 370.086 74.5802 369.925 74.234C369.763 73.8879 369.532 73.6103 369.232 73.4014C368.931 73.1866 368.539 73.0791 368.053 73.0791C367.574 73.0791 367.184 73.1866 366.884 73.4014C366.583 73.6103 366.352 73.8879 366.191 74.234C366.029 74.5802 365.916 74.9562 365.853 75.3621C365.795 75.7679 365.766 76.1619 365.766 76.5438Z" fill="white"/>
<path d="M382.42 77.8778C382.42 79.0894 382.065 80.0265 381.355 80.689C380.65 81.3515 379.651 81.6827 378.357 81.6827C377.069 81.6827 376.07 81.3515 375.359 80.689C374.649 80.0265 374.294 79.0894 374.294 77.8778V71.6467L374.398 71.5482H375.203C375.631 71.5482 375.948 71.6616 376.156 71.8884C376.37 72.1092 376.477 72.4733 376.477 72.9806V77.8688C376.477 78.5134 376.627 79.0148 376.927 79.3729C377.228 79.7251 377.704 79.9011 378.357 79.9011C379.015 79.9011 379.492 79.7251 379.786 79.3729C380.087 79.0148 380.237 78.5134 380.237 77.8688V71.6288C380.41 71.5989 380.592 71.578 380.783 71.5661C380.979 71.5542 381.15 71.5482 381.294 71.5482C381.438 71.5482 381.617 71.5542 381.831 71.5661C382.051 71.578 382.247 71.6049 382.42 71.6467V77.8778Z" fill="white"/>
<path d="M386.775 79.4445C386.694 79.4445 386.576 79.4415 386.42 79.4356C386.264 79.4296 386.125 79.4266 386.004 79.4266L385.337 81.4499C385.204 81.4798 385.057 81.5007 384.895 81.5126C384.739 81.5305 384.577 81.5395 384.41 81.5395C384.219 81.5395 384.031 81.5246 383.847 81.4947C383.668 81.4708 383.517 81.432 383.396 81.3783L383.327 81.2619L386.74 71.6288C386.954 71.5989 387.176 71.578 387.407 71.5661C387.644 71.5482 387.855 71.5392 388.04 71.5392C388.213 71.5392 388.404 71.5482 388.612 71.5661C388.825 71.578 389.039 71.5989 389.253 71.6288L392.623 81.3336C392.456 81.4171 392.251 81.4768 392.008 81.5126C391.771 81.5544 391.566 81.5753 391.393 81.5753C391.121 81.5753 390.876 81.5216 390.656 81.4141C390.437 81.3007 390.261 81.0292 390.128 80.5994L389.747 79.4266C389.631 79.4266 389.498 79.4296 389.348 79.4356C389.198 79.4415 389.082 79.4445 389.002 79.4445H386.775ZM387.087 76.1589L386.593 77.654C386.703 77.654 386.821 77.651 386.948 77.645C387.081 77.6391 387.185 77.6361 387.26 77.6361H388.568C388.644 77.6361 388.736 77.6391 388.846 77.645C388.961 77.645 389.068 77.648 389.166 77.654L388.742 76.3737C388.615 75.95 388.476 75.4635 388.326 74.9144C388.181 74.3594 388.051 73.864 387.936 73.4283H387.849C387.74 73.8461 387.615 74.3116 387.477 74.8249C387.338 75.3382 387.208 75.7829 387.087 76.1589Z" fill="white"/>
<path d="M400.406 79.5878C400.383 80.2921 400.267 80.7815 400.059 81.056C399.851 81.3306 399.484 81.4679 398.959 81.4679H395.242C394.855 81.4679 394.546 81.3545 394.315 81.1277C394.09 80.8949 393.977 80.5726 393.977 80.1608V71.6556L394.072 71.5572H394.921C395.349 71.5572 395.661 71.6676 395.857 71.8884C396.059 72.1033 396.16 72.4614 396.16 72.9627V79.6684C396.709 79.6146 397.212 79.5878 397.668 79.5878H400.406Z" fill="white"/>
<path d="M402.063 71.6288C402.231 71.5989 402.421 71.578 402.635 71.5661C402.854 71.5542 403.033 71.5482 403.172 71.5482C403.322 71.5482 403.493 71.5542 403.683 71.5661C403.88 71.578 404.067 71.5989 404.246 71.6288V81.441C404.067 81.4768 403.88 81.4977 403.683 81.5037C403.493 81.5156 403.322 81.5216 403.172 81.5216C403.033 81.5216 402.854 81.5156 402.635 81.5037C402.421 81.4977 402.231 81.4768 402.063 81.441V71.6288Z" fill="white"/>
<path d="M408.336 74.5295C408.336 74.3385 408.339 74.1624 408.345 74.0013C408.351 73.8401 408.354 73.6581 408.354 73.4551C408.244 73.4551 408.088 73.4581 407.886 73.4641C407.684 73.4701 407.525 73.473 407.409 73.473H405.668C405.639 73.3059 405.619 73.1478 405.607 72.9985C405.596 72.8434 405.59 72.7001 405.59 72.5688C405.59 72.4435 405.596 72.2972 405.607 72.1301C405.619 71.963 405.639 71.7959 405.668 71.6288H413.128C413.162 71.7601 413.188 71.9063 413.205 72.0675C413.223 72.2286 413.231 72.3659 413.231 72.4793C413.231 72.8016 413.148 73.0493 412.98 73.2224C412.818 73.3895 412.533 73.473 412.123 73.473H411.421C411.311 73.473 411.155 73.4701 410.953 73.4641C410.757 73.4581 410.606 73.4551 410.502 73.4551C410.502 73.6581 410.505 73.8401 410.511 74.0013C410.517 74.1624 410.52 74.3385 410.52 74.5295V81.441C410.387 81.4708 410.211 81.4917 409.991 81.5037C409.777 81.5156 409.593 81.5216 409.437 81.5216C409.281 81.5216 409.096 81.5156 408.882 81.5037C408.674 81.4917 408.492 81.4708 408.336 81.441V74.5295Z" fill="white"/>
<path d="M419.257 71.6467C419.425 71.6049 419.592 71.578 419.76 71.5661C419.933 71.5482 420.089 71.5392 420.228 71.5392C420.413 71.5392 420.595 71.5512 420.774 71.5751C420.953 71.5989 421.109 71.6347 421.241 71.6825L421.337 71.7989L418.374 78.5851V81.441C418.2 81.4768 418.021 81.4977 417.837 81.5037C417.652 81.5156 417.478 81.5216 417.317 81.5216C417.178 81.5216 417.005 81.5156 416.797 81.5037C416.589 81.4977 416.401 81.4768 416.234 81.441V78.5134L413.279 71.8257C413.493 71.7243 413.718 71.6437 413.955 71.584C414.192 71.5184 414.411 71.4855 414.614 71.4855C414.914 71.4855 415.157 71.5542 415.341 71.6914C415.526 71.8228 415.679 72.0466 415.801 72.3629L416.719 74.5921C416.863 74.9682 416.985 75.3084 417.083 75.6128C417.187 75.9112 417.273 76.2215 417.343 76.5438H417.438C417.542 76.1857 417.649 75.8306 417.759 75.4785C417.868 75.1263 417.995 74.7682 418.14 74.4041L419.257 71.6467Z" fill="white"/>
<path fill-rule="evenodd" clip-rule="evenodd" d="M1.22393 2.71786C0.499512 3.85527 0.499512 5.41859 0.499512 8.54522C0.499512 41.0622 0.499512 57.3206 8.03342 69.1498C11.8108 75.0808 16.842 80.112 22.773 83.8894C34.6022 91.4233 50.8606 91.4233 83.3776 91.4233H251.134C263.35 91.4233 269.459 91.4233 273.254 87.6282C277.049 83.8331 277.049 77.7249 277.049 65.5087V26.4908C277.049 14.2745 277.049 8.1664 273.254 4.37128C269.459 0.576172 263.35 0.576172 251.134 0.576172H8.46856C5.34193 0.576172 3.77861 0.576172 2.6412 1.30059C2.07091 1.6638 1.58714 2.14757 1.22393 2.71786ZM249.239 22.3371C248.27 22.3941 247.301 22.5366 246.332 22.7646L241.928 33.9227C240.646 37.2574 239.463 40.8912 238.38 44.8244H237.867C237.525 43.1143 237.126 41.5753 236.67 40.2072C236.214 38.8107 235.615 37.1149 234.874 35.1198L231.625 26.826C230.941 25.0304 230.043 23.7764 228.932 23.0638C227.82 22.3228 226.381 21.9523 224.614 21.9523C223.474 21.9523 222.206 22.1233 220.809 22.4653C219.413 22.8073 218.116 23.2633 216.919 23.8334L231.369 56.0253V69.7486C232.395 69.9481 233.535 70.0763 234.789 70.1333C236.043 70.1903 237.055 70.2188 237.824 70.2188C238.679 70.2188 239.663 70.1903 240.774 70.1333C241.886 70.0763 242.954 69.9481 243.98 69.7486V56.3673L258.516 23.6196L257.96 22.9783C257.162 22.7218 256.236 22.5366 255.181 22.4226C254.155 22.2801 253.087 22.2088 251.975 22.2088C251.148 22.2088 250.236 22.2515 249.239 22.3371ZM115.292 47.5605C114.979 46.9335 114.508 45.9074 113.881 44.4824L112 40.1217C111.373 38.6682 110.917 37.6136 110.632 36.9581L110.29 37.0863C110.404 39.2809 110.518 41.6465 110.632 44.1831C110.746 46.7197 110.832 49.0568 110.889 51.1944C110.974 53.3034 111.017 54.8425 111.017 55.8115V69.7486C109.962 69.9481 108.936 70.0763 107.939 70.1333C106.941 70.1903 106.029 70.2188 105.203 70.2188C104.405 70.2188 103.45 70.1903 102.338 70.1333C101.227 70.0763 100.158 69.9481 99.1321 69.7486V22.9783C100.158 22.7503 101.412 22.5651 102.894 22.4225C104.376 22.28 105.545 22.2088 106.4 22.2088C107.255 22.2088 108.438 22.2373 109.948 22.2943C111.487 22.3228 112.77 22.451 113.796 22.6791L124.527 44.8244C124.783 45.2519 125.139 45.9787 125.595 47.0047C126.051 48.0307 126.55 49.1565 127.092 50.3821C127.633 51.6076 128.132 52.7619 128.588 53.845C129.072 54.8995 129.429 55.6833 129.657 56.1963L130.041 56.1108C129.927 54.2582 129.771 52.1207 129.571 49.6981C129.4 47.247 129.243 44.8814 129.101 42.6013C128.987 40.2927 128.93 38.4401 128.93 37.0436V29.22C128.93 26.3414 129.543 24.4461 130.768 23.5341C131.994 22.5936 133.846 22.1233 136.326 22.1233H140.601L141.071 22.7218V69.5348C140.017 69.7628 138.749 69.9338 137.266 70.0478C135.784 70.1618 134.63 70.2188 133.804 70.2188C132.977 70.2188 131.752 70.1903 130.127 70.1333C128.502 70.1048 127.191 69.9766 126.194 69.7486L115.292 47.5605ZM87.3493 52.2632C87.3493 58.1059 85.5965 62.6945 82.0909 66.0292C78.5853 69.3353 73.4408 70.9883 66.6576 70.9883C59.8743 70.9883 54.7156 69.3353 51.1815 66.0292C47.6759 62.6945 45.9231 58.1059 45.9231 52.2632V22.7218L46.4361 22.2088H51.1388C53.6183 22.2088 55.5137 22.8358 56.8247 24.0899C58.1643 25.3439 58.834 27.453 58.834 30.4171V52.1777C58.834 54.8853 59.4183 57.0086 60.5869 58.5476C61.7839 60.0867 63.8075 60.8562 66.6576 60.8562C69.5647 60.8562 71.5883 60.0867 72.7283 58.5476C73.8683 57.0086 74.4384 54.8853 74.4384 52.1777V22.6791C75.5214 22.4795 76.6329 22.3513 77.773 22.2943C78.913 22.2373 79.8963 22.2088 80.7228 22.2088C81.5209 22.2088 82.5612 22.2515 83.8437 22.337C85.1548 22.394 86.3233 22.5366 87.3493 22.7646V52.2632ZM157.334 22.2943C156.051 22.3513 154.897 22.4795 153.871 22.6791V69.7486C154.897 69.9481 156.051 70.0763 157.334 70.1333C158.645 70.1903 159.685 70.2188 160.455 70.2188C161.281 70.2188 162.264 70.1903 163.404 70.1333C164.573 70.0763 165.699 69.9481 166.782 69.7486V22.6791C165.699 22.4795 164.573 22.3513 163.404 22.2943C162.264 22.2373 161.281 22.2088 160.455 22.2088C159.685 22.2088 158.645 22.2373 157.334 22.2943ZM186.767 38.2406C186.767 37.3286 186.781 36.4878 186.81 35.7183C186.838 34.9203 186.852 34.0367 186.852 33.0677C186.254 33.0677 185.442 33.0819 184.415 33.1104C183.389 33.1389 182.577 33.1532 181.979 33.1532H173.899C173.699 32.1842 173.571 31.2721 173.514 30.4171C173.457 29.5621 173.428 28.7783 173.428 28.0658C173.428 27.3532 173.457 26.5124 173.514 25.5434C173.571 24.5744 173.699 23.6196 173.899 22.6791H212.161C212.361 23.4201 212.503 24.2609 212.589 25.2014C212.703 26.1134 212.76 26.8687 212.76 27.4672C212.76 29.2913 212.261 30.7021 211.263 31.6996C210.294 32.6687 208.656 33.1532 206.347 33.1532H204.209C203.639 33.1532 202.856 33.1389 201.858 33.1104C200.889 33.0819 200.134 33.0677 199.592 33.0677C199.592 34.0367 199.607 34.9203 199.635 35.7183C199.664 36.4878 199.678 37.3286 199.678 38.2406V69.7486C198.908 69.9196 197.868 70.0336 196.557 70.0906C195.246 70.1761 194.134 70.2188 193.222 70.2188C192.339 70.2188 191.256 70.1761 189.973 70.0906C188.719 70.0336 187.65 69.9196 186.767 69.7486V38.2406Z" fill="white"/>
</svg>
