<!-- Created by Apktool M – https://maximoff.su/apktool -->
<svg
	xmlns="http://www.w3.org/2000/svg"
	xmlns:xlink="http://www.w3.org/1999/xlink"
	version="1.1"
	width="500"
	height="180"
	viewBox="0 0 500 180">
	<path
		d="M0,0H500ZM0,1H59ZM87,1H500ZM0,2H54ZM92,2H500ZM0,3H49ZM97,3H500ZM0,4H46ZM100,4H500ZM0,5H43ZM103,5H500ZM0,6H40ZM106,6H500ZM0,7H38ZM108,7H500ZM0,8H35ZM111,8H500ZM0,9H33ZM113,9H500ZM0,10H31ZM115,10H500ZM0,11H29ZM62,11H84ZM117,11H500ZM0,12H27ZM55,12H90ZM119,12H500ZM0,13H26ZM52,13H94ZM120,13H500ZM0,14H24ZM48,14H98ZM121,14H500ZM0,15H22ZM45,15H100ZM123,15H500ZM0,16H21ZM43,16H103ZM125,16H500ZM0,17H19ZM40,17H106ZM126,17H500ZM0,18H18ZM39,18H107ZM128,18H500ZM0,19H17ZM36,19H110ZM129,19H500ZM0,20H16ZM34,20H111ZM130,20H500ZM0,21H14ZM32,21H113ZM132,21H500ZM0,22H13ZM31,22H115ZM132,22H500ZM0,23H12ZM29,23H64ZM82,23H117ZM134,23H500ZM0,24H11ZM28,24H59ZM87,24H118ZM135,24H500ZM0,25H10ZM27,25H55ZM91,25H119ZM136,25H500ZM0,26H9ZM25,26H51ZM95,26H121ZM137,26H500ZM0,27H8ZM24,27H48ZM98,27H122ZM137,27H500ZM0,28H8ZM23,28H45ZM101,28H123ZM138,28H500ZM0,29H8ZM21,29H43ZM103,29H124ZM138,29H500ZM0,30H8ZM20,30H41ZM105,30H126ZM137,30H500ZM0,31H8ZM19,31H39ZM107,31H127ZM137,31H500ZM0,32H8ZM18,32H37ZM109,32H128ZM137,32H500ZM0,33H9ZM17,33H36ZM110,33H129ZM135,33H500ZM0,34H11ZM15,34H35ZM62,34H84ZM111,34H500ZM0,35H33ZM58,35H88ZM113,35H500ZM0,36H32ZM55,36H91ZM114,36H500ZM0,37H30ZM52,37H94ZM116,37H500ZM0,38H29ZM50,38H96ZM117,38H500ZM0,39H28ZM47,39H99ZM118,39H500ZM0,40H26ZM45,40H100ZM119,40H500ZM0,41H26ZM43,41H103ZM120,41H500ZM0,42H25ZM42,42H104ZM121,42H168ZM401,42H407ZM429,42H432ZM441,42H455ZM474,42H500ZM0,43H25ZM40,43H106ZM121,43H165ZM401,43H407ZM429,43H432ZM441,43H455ZM476,43H500ZM0,44H25ZM39,44H107ZM121,44H162ZM401,44H407ZM429,44H432ZM441,44H455ZM477,44H500ZM0,45H25ZM38,45H108ZM121,45H161ZM401,45H407ZM429,45H432ZM441,45H455ZM478,45H500ZM0,46H25ZM36,46H110ZM121,46H159ZM401,46H407ZM429,46H432ZM441,46H455ZM479,46H500ZM0,47H26ZM35,47H111ZM121,47H157ZM401,47H407ZM429,47H432ZM441,47H455ZM479,47H500ZM0,48H26ZM34,48H112ZM119,48H125ZM126,48H156ZM401,48H407ZM415,48H432ZM441,48H455ZM463,48H470ZM480,48H500ZM0,49H19ZM21,49H28ZM32,49H55ZM57,49H83ZM85,49H113ZM118,49H124ZM127,49H155ZM401,49H407ZM415,49H432ZM441,49H455ZM463,49H471ZM480,49H500ZM0,50H18ZM22,50H55ZM57,50H83ZM85,50H123ZM128,50H154ZM401,50H407ZM415,50H432ZM441,50H455ZM463,50H471ZM480,50H500ZM0,51H17ZM23,51H55ZM57,51H83ZM85,51H123ZM129,51H153ZM401,51H407ZM427,51H432ZM441,51H455ZM463,51H472ZM481,51H500ZM0,52H16ZM24,52H55ZM57,52H83ZM85,52H121ZM130,52H152ZM401,52H407ZM428,52H432ZM441,52H455ZM463,52H472ZM481,52H500ZM0,53H15ZM26,53H55ZM57,53H59ZM81,53H83ZM85,53H119ZM130,53H151ZM401,53H407ZM428,53H432ZM441,53H455ZM463,53H472ZM481,53H500ZM0,54H15ZM27,54H55ZM57,54H59ZM82,54H83ZM85,54H118ZM131,54H150ZM401,54H407ZM428,54H432ZM441,54H455ZM463,54H472ZM481,54H500ZM0,55H14ZM27,55H54ZM86,55H118ZM132,55H150ZM401,55H407ZM428,55H432ZM441,55H455ZM463,55H472ZM481,55H500ZM0,56H14ZM27,56H54ZM86,56H119ZM132,56H149ZM401,56H407ZM428,56H432ZM441,56H455ZM463,56H472ZM481,56H500ZM0,57H13ZM26,57H54ZM86,57H119ZM132,57H148ZM401,57H407ZM415,57H432ZM441,57H455ZM463,57H472ZM481,57H500ZM0,58H12ZM25,58H54ZM86,58H120ZM133,58H148ZM401,58H407ZM415,58H432ZM441,58H455ZM463,58H472ZM481,58H500ZM0,59H12ZM25,59H54ZM86,59H121ZM134,59H147ZM401,59H407ZM415,59H432ZM441,59H455ZM463,59H471ZM480,59H500ZM0,60H12ZM24,60H54ZM86,60H121ZM134,60H147ZM401,60H407ZM415,60H432ZM441,60H455ZM463,60H470ZM480,60H500ZM0,61H11ZM23,61H54ZM86,61H122ZM134,61H147ZM401,61H407ZM415,61H432ZM454,61H455ZM463,61H468ZM479,61H500ZM0,62H11ZM23,62H54ZM86,62H122ZM135,62H146ZM401,62H407ZM429,62H432ZM454,62H455ZM479,62H500ZM0,63H10ZM22,63H54ZM86,63H123ZM135,63H146ZM401,63H407ZM429,63H432ZM454,63H455ZM478,63H500ZM0,64H10ZM22,64H54ZM86,64H123ZM135,64H146ZM401,64H407ZM429,64H432ZM454,64H455ZM478,64H500ZM0,65H10ZM21,65H54ZM86,65H124ZM136,65H146ZM401,65H407ZM429,65H432ZM454,65H455ZM476,65H500ZM0,66H9ZM21,66H54ZM58,66H69ZM71,66H82ZM86,66H124ZM136,66H146ZM401,66H407ZM429,66H432ZM454,66H455ZM474,66H500ZM0,67H9ZM21,67H54ZM58,67H69ZM71,67H82ZM86,67H125ZM136,67H146ZM185,67H310ZM401,67H407ZM429,67H432ZM454,67H455ZM472,67H500ZM0,68H8ZM20,68H54ZM58,68H69ZM71,68H82ZM86,68H125ZM137,68H146ZM183,68H310ZM400,68H500ZM0,69H8ZM20,69H54ZM58,69H69ZM71,69H82ZM86,69H126ZM137,69H146ZM182,69H310ZM350,69H500ZM0,70H8ZM20,70H54ZM58,70H69ZM71,70H82ZM86,70H126ZM137,70H146ZM182,70H310ZM350,70H500ZM0,71H8ZM19,71H53ZM58,71H69ZM71,71H82ZM88,71H126ZM137,71H146ZM182,71H310ZM350,71H500ZM0,72H8ZM19,72H53ZM88,72H126ZM137,72H146ZM181,72H310ZM350,72H500ZM0,73H7ZM19,73H53ZM88,73H126ZM138,73H146ZM181,73H310ZM350,73H500ZM0,74H7ZM19,74H53ZM61,74H69ZM71,74H80ZM88,74H127ZM138,74H146ZM181,74H310ZM350,74H500ZM0,75H7ZM18,75H53ZM59,75H69ZM71,75H81ZM88,75H127ZM138,75H146ZM181,75H310ZM350,75H500ZM0,76H7ZM18,76H53ZM59,76H81ZM88,76H127ZM138,76H146ZM181,76H310ZM350,76H500ZM0,77H7ZM18,77H53ZM59,77H60ZM61,77H62ZM64,77H65ZM67,77H68ZM69,77H71ZM72,77H74ZM75,77H77ZM78,77H80ZM88,77H127ZM138,77H146ZM181,77H310ZM350,77H500ZM0,78H6ZM18,78H53ZM61,78H62ZM64,78H65ZM67,78H68ZM70,78H71ZM72,78H74ZM75,78H77ZM78,78H79ZM88,78H128ZM138,78H146ZM181,78H310ZM350,78H359ZM402,78H500ZM0,79H6ZM18,79H53ZM61,79H62ZM64,79H65ZM67,79H68ZM70,79H71ZM72,79H74ZM75,79H77ZM78,79H79ZM88,79H128ZM138,79H146ZM181,79H310ZM350,79H359ZM402,79H500ZM0,80H6ZM18,80H53ZM61,80H62ZM64,80H65ZM67,80H68ZM70,80H71ZM72,80H74ZM75,80H77ZM78,80H79ZM88,80H128ZM138,80H146ZM182,80H310ZM350,80H359ZM402,80H500ZM0,81H6ZM18,81H48ZM61,81H62ZM64,81H65ZM67,81H68ZM70,81H71ZM72,81H74ZM75,81H77ZM78,81H79ZM92,81H128ZM138,81H146ZM182,81H310ZM350,81H359ZM402,81H500ZM0,82H6ZM17,82H47ZM61,82H62ZM64,82H65ZM67,82H68ZM70,82H71ZM72,82H74ZM75,82H77ZM78,82H79ZM93,82H128ZM138,82H146ZM183,82H310ZM350,82H359ZM402,82H500ZM0,83H6ZM17,83H47ZM61,83H62ZM64,83H65ZM67,83H68ZM70,83H71ZM72,83H74ZM75,83H77ZM78,83H79ZM94,83H128ZM138,83H146ZM184,83H310ZM350,83H359ZM402,83H500ZM0,84H6ZM17,84H46ZM61,84H62ZM64,84H65ZM67,84H68ZM70,84H71ZM72,84H74ZM75,84H77ZM78,84H79ZM94,84H128ZM138,84H146ZM271,84H310ZM350,84H359ZM402,84H500ZM0,85H6ZM17,85H46ZM49,85H55ZM61,85H62ZM64,85H65ZM67,85H68ZM70,85H71ZM72,85H74ZM75,85H77ZM78,85H79ZM85,85H91ZM94,85H128ZM138,85H146ZM276,85H310ZM350,85H359ZM402,85H500ZM0,86H6ZM17,86H46ZM49,86H56ZM61,86H62ZM64,86H65ZM67,86H68ZM70,86H71ZM72,86H74ZM75,86H77ZM78,86H79ZM85,86H91ZM94,86H128ZM138,86H146ZM280,86H310ZM350,86H359ZM402,86H500ZM0,87H6ZM17,87H46ZM50,87H55ZM61,87H62ZM64,87H65ZM67,87H68ZM70,87H71ZM72,87H74ZM75,87H77ZM78,87H79ZM85,87H91ZM94,87H128ZM138,87H146ZM282,87H310ZM350,87H359ZM402,87H500ZM0,88H6ZM17,88H46ZM61,88H62ZM64,88H65ZM67,88H68ZM70,88H71ZM72,88H74ZM75,88H77ZM78,88H79ZM94,88H128ZM138,88H146ZM285,88H310ZM350,88H359ZM402,88H500ZM0,89H6ZM17,89H46ZM61,89H62ZM64,89H65ZM67,89H68ZM70,89H71ZM72,89H74ZM75,89H77ZM78,89H79ZM94,89H128ZM138,89H147ZM286,89H310ZM350,89H359ZM402,89H500ZM0,90H6ZM17,90H46ZM61,90H62ZM64,90H65ZM67,90H68ZM70,90H71ZM72,90H74ZM75,90H77ZM78,90H79ZM94,90H128ZM138,90H147ZM288,90H310ZM350,90H359ZM402,90H500ZM0,91H6ZM18,91H46ZM61,91H62ZM64,91H65ZM67,91H68ZM70,91H71ZM72,91H74ZM75,91H77ZM78,91H79ZM94,91H128ZM138,91H148ZM289,91H310ZM350,91H359ZM402,91H500ZM0,92H7ZM18,92H46ZM61,92H62ZM64,92H65ZM67,92H68ZM70,92H71ZM72,92H74ZM75,92H77ZM78,92H79ZM94,92H128ZM138,92H148ZM290,92H310ZM350,92H359ZM402,92H500ZM0,93H7ZM18,93H47ZM58,93H82ZM94,93H128ZM138,93H148ZM291,93H310ZM350,93H359ZM402,93H500ZM0,94H7ZM18,94H47ZM65,94H75ZM94,94H127ZM138,94H149ZM292,94H310ZM350,94H359ZM402,94H500ZM0,95H7ZM18,95H47ZM65,95H75ZM94,95H127ZM138,95H150ZM293,95H310ZM350,95H359ZM402,95H500ZM0,96H7ZM19,96H47ZM94,96H127ZM138,96H150ZM294,96H310ZM350,96H359ZM402,96H500ZM0,97H8ZM19,97H47ZM94,97H127ZM137,97H151ZM295,97H310ZM350,97H359ZM402,97H500ZM0,98H8ZM19,98H47ZM94,98H126ZM137,98H152ZM296,98H310ZM350,98H359ZM402,98H500ZM0,99H8ZM19,99H47ZM94,99H126ZM137,99H153ZM296,99H310ZM350,99H359ZM402,99H500ZM0,100H8ZM19,100H48ZM93,100H126ZM137,100H154ZM297,100H310ZM350,100H359ZM402,100H500ZM0,101H8ZM20,101H48ZM93,101H126ZM137,101H155ZM297,101H310ZM350,101H359ZM402,101H500ZM0,102H9ZM20,102H48ZM93,102H125ZM137,102H156ZM298,102H310ZM350,102H359ZM402,102H500ZM0,103H9ZM21,103H48ZM55,103H86ZM93,103H125ZM136,103H158ZM298,103H310ZM350,103H359ZM402,103H500ZM0,104H9ZM21,104H48ZM55,104H85ZM93,104H124ZM136,104H159ZM299,104H310ZM350,104H359ZM402,104H500ZM0,105H10ZM21,105H43ZM96,105H124ZM135,105H161ZM299,105H310ZM350,105H359ZM402,105H500ZM0,106H10ZM22,106H40ZM97,106H123ZM135,106H163ZM299,106H310ZM350,106H359ZM402,106H500ZM0,107H10ZM22,107H37ZM68,107H72ZM98,107H123ZM135,107H165ZM299,107H310ZM350,107H359ZM402,107H500ZM0,108H11ZM23,108H34ZM68,108H72ZM99,108H122ZM134,108H169ZM300,108H310ZM350,108H359ZM402,108H500ZM0,109H11ZM23,109H32ZM68,109H72ZM99,109H122ZM134,109H175ZM300,109H310ZM350,109H359ZM402,109H500ZM0,110H12ZM24,110H33ZM100,110H121ZM134,110H259ZM300,110H310ZM350,110H359ZM402,110H500ZM0,111H12ZM24,111H36ZM100,111H121ZM133,111H260ZM300,111H310ZM350,111H359ZM402,111H500ZM0,112H12ZM25,112H43ZM101,112H120ZM133,112H261ZM300,112H310ZM350,112H359ZM402,112H500ZM0,113H13ZM26,113H47ZM68,113H72ZM101,113H120ZM132,113H262ZM300,113H310ZM350,113H359ZM402,113H500ZM0,114H14ZM26,114H54ZM68,114H72ZM102,114H119ZM132,114H263ZM300,114H310ZM350,114H359ZM402,114H500ZM0,115H14ZM27,115H59ZM68,115H72ZM103,115H118ZM131,115H263ZM300,115H310ZM350,115H359ZM402,115H500ZM0,116H15ZM28,116H64ZM68,116H72ZM103,116H118ZM131,116H263ZM300,116H310ZM350,116H359ZM402,116H500ZM0,117H15ZM28,117H72ZM104,117H117ZM130,117H146ZM181,117H263ZM300,117H310ZM350,117H359ZM402,117H500ZM0,118H16ZM29,118H76ZM104,118H116ZM130,118H146ZM181,118H263ZM300,118H310ZM350,118H359ZM402,118H500ZM0,119H17ZM30,119H83ZM105,119H115ZM129,119H146ZM181,119H263ZM300,119H310ZM350,119H359ZM402,119H500ZM0,120H17ZM31,120H87ZM106,120H115ZM128,120H146ZM182,120H263ZM300,120H310ZM350,120H359ZM402,120H500ZM0,121H18ZM32,121H94ZM106,121H113ZM128,121H146ZM182,121H263ZM300,121H310ZM350,121H359ZM402,121H500ZM0,122H19ZM33,122H98ZM106,122H113ZM127,122H146ZM182,122H263ZM300,122H310ZM350,122H359ZM402,122H500ZM0,123H19ZM34,123H112ZM126,123H146ZM182,123H263ZM300,123H310ZM350,123H359ZM490,123H500ZM0,124H20ZM35,124H110ZM125,124H146ZM183,124H263ZM300,124H310ZM350,124H359ZM490,124H500ZM0,125H21ZM36,125H110ZM125,125H146ZM184,125H263ZM300,125H310ZM350,125H359ZM490,125H500ZM0,126H22ZM37,126H108ZM123,126H146ZM185,126H262ZM300,126H310ZM350,126H359ZM490,126H500ZM0,127H23ZM38,127H107ZM123,127H146ZM185,127H261ZM300,127H310ZM350,127H359ZM490,127H500ZM0,128H24ZM40,128H106ZM121,128H146ZM187,128H260ZM300,128H310ZM350,128H359ZM490,128H500ZM0,129H25ZM41,129H104ZM121,129H146ZM189,129H258ZM300,129H310ZM350,129H359ZM490,129H500ZM0,130H26ZM43,130H103ZM119,130H146ZM300,130H310ZM350,130H359ZM490,130H500ZM0,131H27ZM44,131H101ZM119,131H146ZM300,131H310ZM350,131H359ZM490,131H500ZM0,132H28ZM46,132H99ZM117,132H146ZM299,132H310ZM350,132H359ZM490,132H500ZM0,133H29ZM48,133H97ZM117,133H146ZM299,133H310ZM350,133H359ZM490,133H500ZM0,134H30ZM50,134H95ZM115,134H146ZM299,134H310ZM350,134H359ZM490,134H500ZM0,135H31ZM53,135H92ZM114,135H147ZM298,135H310ZM350,135H359ZM490,135H500ZM0,136H32ZM56,136H90ZM113,136H147ZM298,136H310ZM350,136H359ZM490,136H500ZM0,137H33ZM61,137H85ZM112,137H148ZM298,137H310ZM350,137H359ZM490,137H500ZM0,138H34ZM66,138H79ZM111,138H148ZM297,138H310ZM350,138H359ZM490,138H500ZM0,139H35ZM110,139H148ZM297,139H310ZM350,139H359ZM490,139H500ZM0,140H36ZM109,140H149ZM296,140H310ZM350,140H359ZM490,140H500ZM0,141H37ZM108,141H150ZM295,141H310ZM350,141H359ZM490,141H500ZM0,142H39ZM107,142H150ZM294,142H310ZM350,142H359ZM490,142H500ZM0,143H40ZM106,143H151ZM294,143H310ZM350,143H359ZM490,143H500ZM0,144H41ZM105,144H152ZM293,144H310ZM350,144H359ZM490,144H500ZM0,145H42ZM104,145H153ZM292,145H310ZM350,145H359ZM490,145H500ZM0,146H43ZM103,146H154ZM291,146H310ZM350,146H359ZM490,146H500ZM0,147H44ZM102,147H155ZM290,147H310ZM350,147H359ZM490,147H500ZM0,148H45ZM101,148H157ZM289,148H310ZM350,148H359ZM490,148H500ZM0,149H46ZM100,149H158ZM288,149H310ZM350,149H359ZM490,149H500ZM0,150H47ZM99,150H159ZM286,150H310ZM350,150H359ZM490,150H500ZM0,151H48ZM98,151H161ZM284,151H310ZM350,151H359ZM490,151H500ZM0,152H49ZM96,152H163ZM282,152H500ZM0,153H50ZM95,153H166ZM280,153H500ZM0,154H51ZM94,154H170ZM275,154H500ZM0,155H52ZM93,155H500ZM0,156H53ZM92,156H500ZM0,157H55ZM91,157H500ZM0,158H55ZM90,158H500ZM0,159H57ZM89,159H500ZM0,160H57ZM88,160H500ZM0,161H59ZM87,161H500ZM0,162H60ZM86,162H500ZM0,163H61ZM85,163H500ZM0,164H62ZM84,164H500ZM0,165H63ZM83,165H500ZM0,166H64ZM81,166H500ZM0,167H65ZM81,167H500ZM0,168H66ZM79,168H500ZM0,169H67ZM79,169H500ZM0,170H68ZM77,170H500ZM0,171H69ZM76,171H500ZM0,172H70ZM75,172H500ZM0,173H71ZM74,173H500ZM0,174H500ZM0,175H500ZM0,176H500ZM0,177H500ZM0,178H500ZM0,179H500Z"
		stroke="none"
		stroke-width="1" />
	<path
		d="M59,1H60ZM86,1H87ZM102,5H103ZM27,12H28ZM111,20H112ZM45,28H46ZM124,29H125ZM26,40H27ZM432,42H433ZM432,43H433ZM432,44H433ZM432,45H433ZM432,46H433ZM432,47H433ZM26,48H27ZM432,48H433ZM83,49H84ZM432,49H433ZM432,50H433ZM432,51H433ZM432,52H433ZM432,53H433ZM432,54H433ZM432,55H433ZM432,56H433ZM432,57H433ZM432,58H433ZM432,59H433ZM432,60H433ZM432,61H433ZM432,62H433ZM432,63H433ZM432,64H433ZM432,65H433ZM432,66H433ZM69,78H70ZM69,79H70ZM69,80H70ZM69,81H70ZM69,82H70ZM69,83H70ZM69,84H70ZM69,85H70ZM69,86H70ZM69,87H70ZM69,88H70ZM69,89H70ZM69,90H70ZM69,91H70ZM105,120H106Z"
		stroke="rgb(255,0,0)"
		stroke-opacity="0.011764706"
		stroke-width="1" />
	<path
		d="M60,1H61ZM95,3H96ZM99,4H100ZM12,23H13ZM104,30H105ZM51,37H52ZM480,55H481ZM471,67H472ZM79,79H80ZM79,80H80ZM49,81H53ZM79,81H80ZM88,81H91ZM79,82H80ZM79,83H80ZM79,84H80ZM79,85H80ZM79,86H80ZM79,87H80ZM79,88H80ZM79,89H80ZM79,90H80ZM79,91H80ZM54,114H55Z"
		stroke="rgb(255,0,0)"
		stroke-opacity="0.043137256"
		stroke-width="1" />
	<path
		d="M61,1H62ZM31,10H32ZM90,25H91ZM8,27H9ZM137,29H138ZM58,76H59ZM74,77H75ZM102,115H103Z"
		stroke="rgb(255,0,0)"
		stroke-opacity="0.078431375"
		stroke-width="1" />
	<path
		d="M62,1H63Z"
		stroke="rgb(255,0,0)"
		stroke-opacity="0.17254902"
		stroke-width="1" />
	<path
		d="M63,1H64ZM39,17H40ZM101,40H102ZM92,100H93ZM92,101H93ZM92,102H93ZM92,103H93Z"
		stroke="rgb(255,0,0)"
		stroke-opacity="0.32941177"
		stroke-width="1" />
	<path
		d="M64,1H65ZM479,59H480Z"
		stroke="rgb(255,0,0)"
		stroke-opacity="0.4862745"
		stroke-width="1" />
	<path
		d="M65,1H66ZM30,11H31ZM103,41H104ZM69,71H70Z"
		stroke="rgb(255,0,0)"
		stroke-opacity="0.654902"
		stroke-width="1" />
	<path
		d="M66,1H67ZM126,18H127Z"
		stroke="rgb(255,0,0)"
		stroke-opacity="0.76862746"
		stroke-width="1" />
	<path
		d="M67,1H68ZM109,45H110ZM32,48H33Z"
		stroke="rgb(255,0,0)"
		stroke-opacity="0.8509804"
		stroke-width="1" />
	<path
		d="M68,1H69ZM118,13H119ZM133,24H134ZM37,33H38ZM52,113H53Z"
		stroke="rgb(255,0,0)"
		stroke-opacity="0.9137255"
		stroke-width="1" />
	<path
		d="M69,1H70ZM59,2H60ZM81,24H82ZM111,35H112ZM96,37H97ZM43,40H44ZM55,55H56ZM87,119H88Z"
		stroke="rgb(255,0,0)"
		stroke-opacity="0.94509804"
		stroke-width="1" />
	<path
		d="M70,1H71ZM75,1H76ZM89,11H90ZM132,23H133ZM104,31H105ZM25,43H26ZM25,45H26ZM471,48H472ZM473,55H474ZM48,82H49ZM92,105H93Z"
		stroke="rgb(255,0,0)"
		stroke-opacity="0.9647059"
		stroke-width="1" />
	<path
		d="M71,1H75ZM40,7H41ZM128,20H129ZM25,44H26ZM462,62H463ZM91,84H92ZM47,112H48ZM68,112H73ZM101,115H102Z"
		stroke="rgb(255,0,0)"
		stroke-opacity="0.98039216"
		stroke-width="1" />
	<path
		d="M76,1H77ZM98,38H99ZM47,83H48ZM48,87H49ZM46,112H47ZM100,113H101ZM57,114H58ZM104,120H105Z"
		stroke="rgb(255,0,0)"
		stroke-opacity="0.9411765"
		stroke-width="1" />
	<path
		d="M77,1H78ZM100,29H101ZM114,37H115ZM478,48H479ZM56,51H57ZM56,52H57ZM56,53H57ZM56,54H57ZM103,118H104Z"
		stroke="rgb(255,0,0)"
		stroke-opacity="0.9098039"
		stroke-width="1" />
	<path
		d="M78,1H79ZM52,36H53ZM48,85H49ZM96,106H97ZM39,107H40Z"
		stroke="rgb(255,0,0)"
		stroke-opacity="0.84705883"
		stroke-width="1" />
	<path
		d="M79,1H80ZM92,26H93ZM98,28H99ZM36,45H37Z"
		stroke="rgb(255,0,0)"
		stroke-opacity="0.7529412"
		stroke-width="1" />
	<path
		d="M80,1H81ZM136,31H137Z"
		stroke="rgb(255,0,0)"
		stroke-opacity="0.627451"
		stroke-width="1" />
	<path
		d="M81,1H82ZM41,16H42ZM20,17H21ZM83,51H84ZM83,52H84ZM83,53H84ZM83,54H84ZM95,105H96Z"
		stroke="rgb(255,0,0)"
		stroke-opacity="0.46666667"
		stroke-width="1" />
	<path
		d="M82,1H83ZM98,4H99ZM95,13H96ZM33,20H34ZM18,31H19ZM120,42H121Z"
		stroke="rgb(255,0,0)"
		stroke-opacity="0.3137255"
		stroke-width="1" />
	<path
		d="M83,1H84ZM11,24H12ZM104,42H105ZM77,53H79ZM85,102H86Z"
		stroke="rgb(255,0,0)"
		stroke-opacity="0.15686275"
		stroke-width="1" />
	<path
		d="M84,1H85ZM9,33H10ZM440,61H441ZM455,67H456ZM65,116H66ZM99,122H100Z"
		stroke="rgb(255,0,0)"
		stroke-opacity="0.07450981"
		stroke-width="1" />
	<path
		d="M85,1H86ZM105,6H106ZM61,11H62ZM11,34H12ZM91,36H92ZM480,53H481ZM49,87H50ZM58,92H59Z"
		stroke="rgb(255,0,0)"
		stroke-opacity="0.039215688"
		stroke-width="1" />
	<path
		d="M54,2H55ZM39,31H40ZM480,56H481ZM441,61H452ZM58,77H59ZM58,78H59ZM58,79H59ZM58,80H59ZM58,81H59ZM91,81H92ZM58,82H59ZM58,83H59ZM58,84H59ZM58,85H59ZM58,86H59ZM58,87H59ZM58,88H59ZM58,89H59ZM58,90H59ZM58,91H59ZM79,92H80ZM36,111H37Z"
		stroke="rgb(255,0,0)"
		stroke-opacity="0.03529412"
		stroke-width="1" />
	<path
		d="M55,2H56ZM109,33H110ZM71,53H73ZM453,62H454Z"
		stroke="rgb(255,0,0)"
		stroke-opacity="0.21176471"
		stroke-width="1" />
	<path
		d="M56,2H57ZM122,15H123ZM66,33H67ZM70,65H71Z"
		stroke="rgb(255,0,0)"
		stroke-opacity="0.44705883"
		stroke-width="1" />
	<path
		d="M57,2H58ZM65,10H66Z"
		stroke="rgb(255,0,0)"
		stroke-opacity="0.6627451"
		stroke-width="1" />
	<path
		d="M58,2H59ZM55,51H56ZM55,52H56ZM55,53H56ZM55,54H56Z"
		stroke="rgb(255,0,0)"
		stroke-opacity="0.83137256"
		stroke-width="1" />
	<path
		d="M60,2H61ZM85,2H86ZM53,3H54ZM92,3H93ZM85,10H86ZM112,10H113ZM105,16H106ZM65,24H66ZM59,25H60ZM127,30H128ZM17,31H18ZM16,32H17ZM70,32H76ZM129,32H130ZM87,34H88ZM33,36H34ZM112,36H113ZM477,47H478ZM31,48H32ZM473,57H474ZM58,58H59ZM471,66H472ZM70,73H71ZM83,85H84ZM83,86H84ZM83,87H84ZM63,96H64ZM85,101H86ZM54,104H55ZM37,110H38ZM48,112H49ZM67,112H68ZM88,119H89Z"
		stroke="rgb(255,0,0)"
		stroke-opacity="0.99607843"
		stroke-width="1" />
	<path
		d="M61,2H85ZM54,3H92ZM50,4H96ZM47,5H99ZM43,6H103ZM41,7H105ZM38,8H108ZM36,9H110ZM33,10H61ZM86,10H112ZM32,11H56ZM90,11H114ZM29,12H51ZM95,12H117ZM28,13H48ZM98,13H118ZM26,14H46ZM100,14H120ZM24,15H42ZM103,15H121ZM23,16H40ZM106,16H123ZM21,17H38ZM108,17H124ZM20,18H36ZM110,18H126ZM19,19H34ZM112,19H127ZM17,20H32ZM114,20H128ZM16,21H30ZM116,21H130ZM15,22H29ZM117,22H131ZM14,23H27ZM119,23H132ZM13,24H26ZM66,24H81ZM120,24H133ZM12,25H25ZM60,25H86ZM121,25H134ZM10,26H23ZM54,26H91ZM123,26H135ZM10,27H22ZM52,27H94ZM124,27H136ZM9,28H21ZM48,28H98ZM125,28H137ZM9,29H20ZM46,29H100ZM126,29H137ZM9,30H19ZM43,30H103ZM128,30H137ZM9,31H17ZM42,31H104ZM128,31H136ZM10,32H16ZM39,32H70ZM76,32H106ZM130,32H135ZM11,33H15ZM38,33H63ZM83,33H108ZM36,34H59ZM88,34H110ZM34,35H54ZM92,35H111ZM34,36H52ZM94,36H112ZM32,37H49ZM97,37H114ZM31,38H47ZM99,38H115ZM29,39H45ZM101,39H117ZM28,40H43ZM103,40H118ZM27,41H41ZM105,41H119ZM26,42H40ZM106,42H120ZM408,42H428ZM434,42H439ZM457,42H468ZM26,43H38ZM108,43H120ZM408,43H428ZM434,43H439ZM457,43H473ZM26,44H37ZM109,44H120ZM408,44H428ZM434,44H439ZM457,44H475ZM26,45H36ZM110,45H120ZM408,45H428ZM434,45H439ZM457,45H476ZM26,46H35ZM111,46H120ZM408,46H428ZM434,46H439ZM457,46H477ZM27,47H34ZM112,47H119ZM408,47H414ZM434,47H439ZM457,47H462ZM470,47H477ZM29,48H31ZM114,48H117ZM408,48H414ZM434,48H439ZM457,48H462ZM472,48H478ZM408,49H414ZM434,49H439ZM457,49H462ZM472,49H479ZM408,50H414ZM434,50H439ZM457,50H462ZM473,50H479ZM408,51H414ZM434,51H439ZM457,51H462ZM473,51H479ZM408,52H426ZM434,52H439ZM457,52H462ZM474,52H479ZM408,53H426ZM434,53H439ZM457,53H462ZM474,53H479ZM59,54H81ZM408,54H426ZM434,54H439ZM457,54H462ZM474,54H479ZM59,55H81ZM408,55H426ZM434,55H439ZM457,55H462ZM474,55H479ZM55,56H57ZM59,56H81ZM83,56H85ZM408,56H426ZM434,56H439ZM457,56H462ZM474,56H479ZM55,57H57ZM59,57H81ZM83,57H85ZM408,57H414ZM434,57H439ZM457,57H462ZM474,57H479ZM55,58H57ZM59,58H85ZM408,58H414ZM434,58H439ZM457,58H462ZM473,58H479ZM55,59H85ZM408,59H414ZM434,59H439ZM457,59H462ZM473,59H479ZM55,60H85ZM408,60H414ZM434,60H439ZM457,60H462ZM472,60H478ZM55,61H85ZM408,61H414ZM434,61H439ZM457,61H462ZM471,61H478ZM55,62H85ZM408,62H414ZM434,62H452ZM457,62H462ZM469,62H477ZM55,63H85ZM408,63H428ZM434,63H452ZM457,63H477ZM55,64H58ZM69,64H71ZM82,64H85ZM408,64H428ZM434,64H452ZM457,64H476ZM55,65H57ZM83,65H85ZM408,65H428ZM434,65H452ZM457,65H475ZM55,66H57ZM83,66H85ZM408,66H428ZM434,66H452ZM457,66H471ZM55,67H57ZM83,67H85ZM55,68H57ZM83,68H85ZM55,69H57ZM83,69H85ZM55,70H57ZM83,70H85ZM55,71H57ZM83,71H85ZM54,72H58ZM69,72H71ZM82,72H86ZM54,73H61ZM80,73H86ZM54,74H59ZM81,74H86ZM54,75H58ZM82,75H86ZM54,76H58ZM83,76H86ZM54,77H57ZM83,77H86ZM54,78H57ZM83,78H86ZM54,79H57ZM83,79H86ZM54,80H57ZM83,80H86ZM54,81H57ZM83,81H86ZM49,82H57ZM83,82H91ZM48,83H57ZM83,83H93ZM48,84H49ZM56,84H57ZM83,84H84ZM92,84H93ZM92,85H93ZM92,86H93ZM92,87H93ZM48,88H50ZM55,88H57ZM83,88H85ZM90,88H93ZM48,89H57ZM83,89H93ZM48,90H57ZM83,90H93ZM48,91H57ZM83,91H93ZM48,92H57ZM83,92H93ZM48,94H63ZM76,94H92ZM48,95H63ZM76,95H92ZM48,96H63ZM76,96H92ZM48,97H92ZM48,98H92ZM48,99H92ZM48,100H92ZM48,101H55ZM86,101H92ZM48,102H55ZM86,102H92ZM48,103H54ZM86,103H92ZM48,104H54ZM86,104H92ZM48,105H55ZM86,105H92ZM43,106H67ZM73,106H96ZM41,107H67ZM73,107H97ZM37,108H67ZM73,108H97ZM35,109H67ZM73,109H98ZM38,110H67ZM73,110H99ZM42,111H99ZM49,112H67ZM73,112H100ZM53,113H67ZM73,113H100ZM58,114H67ZM73,114H101ZM65,115H67ZM73,115H101ZM73,116H102ZM77,117H103ZM82,118H103ZM89,119H104ZM93,120H104ZM100,121H105Z"
		stroke="rgb(255,0,0)"
		stroke-opacity="1.0"
		stroke-width="1" />
	<path
		d="M86,2H87ZM109,18H110ZM45,29H46ZM9,32H10Z"
		stroke="rgb(255,0,0)"
		stroke-opacity="0.93333334"
		stroke-width="1" />
	<path
		d="M87,2H88ZM470,42H471ZM83,55H84Z"
		stroke="rgb(255,0,0)"
		stroke-opacity="0.8117647"
		stroke-width="1" />
	<path
		d="M88,2H89ZM49,13H50ZM27,48H28Z"
		stroke="rgb(255,0,0)"
		stroke-opacity="0.6431373"
		stroke-width="1" />
	<path
		d="M89,2H90Z"
		stroke="rgb(255,0,0)"
		stroke-opacity="0.4117647"
		stroke-width="1" />
	<path
		d="M90,2H91ZM75,10H76ZM107,44H108ZM54,55H55ZM80,74H81Z"
		stroke="rgb(255,0,0)"
		stroke-opacity="0.18039216"
		stroke-width="1" />
	<path
		d="M91,2H92ZM116,11H117ZM18,18H19ZM127,18H128ZM65,23H66ZM80,23H81ZM137,28H138ZM108,45H109ZM480,52H481ZM468,61H469ZM62,77H63ZM81,77H82ZM81,78H82ZM81,79H82ZM81,80H82ZM81,81H82ZM81,82H82ZM81,83H82ZM81,84H82ZM81,85H82ZM81,86H82ZM81,87H82ZM81,88H82ZM81,89H82ZM81,90H82ZM81,91H82ZM81,92H82ZM43,105H44ZM72,107H73ZM34,108H35ZM72,108H73ZM72,109H73ZM72,114H73ZM72,115H73ZM72,116H73Z"
		stroke="rgb(255,0,0)"
		stroke-opacity="0.019607844"
		stroke-width="1" />
	<path
		d="M49,3H50ZM43,5H44ZM112,9H113ZM22,15H23ZM100,15H101ZM19,17H20ZM113,21H114ZM131,21H132ZM64,23H65ZM119,25H120ZM100,28H101ZM123,28H124ZM43,29H44ZM102,29H103ZM37,32H38ZM49,38H50ZM475,43H476ZM37,45H38ZM471,50H472ZM480,51H481ZM470,60H471ZM63,77H64ZM69,92H70Z"
		stroke="rgb(255,0,0)"
		stroke-opacity="0.007843138"
		stroke-width="1" />
	<path
		d="M50,3H51ZM33,9H34ZM29,11H30ZM51,13H52ZM78,23H79ZM84,34H85ZM440,42H441ZM440,43H441ZM440,44H441ZM440,45H441ZM440,46H441ZM440,47H441ZM440,48H441ZM440,49H441ZM440,50H441ZM415,51H426ZM440,51H441ZM440,52H441ZM440,53H441ZM440,54H441ZM440,55H441ZM440,56H441ZM472,56H473ZM440,57H441ZM440,58H441ZM440,59H441ZM440,60H441ZM80,77H81Z"
		stroke="rgb(255,0,0)"
		stroke-opacity="0.050980393"
		stroke-width="1" />
	<path
		d="M51,3H52ZM47,4H48ZM125,17H126ZM93,26H94ZM78,33H79ZM120,46H121Z"
		stroke="rgb(255,0,0)"
		stroke-opacity="0.34901962"
		stroke-width="1" />
	<path
		d="M52,3H53ZM58,57H59Z"
		stroke="rgb(255,0,0)"
		stroke-opacity="0.78431374"
		stroke-width="1" />
	<path
		d="M93,3H94ZM106,7H107ZM131,22H132Z"
		stroke="rgb(255,0,0)"
		stroke-opacity="0.7490196"
		stroke-width="1" />
	<path
		d="M94,3H95ZM68,10H69ZM60,24H61ZM55,114H56Z"
		stroke="rgb(255,0,0)"
		stroke-opacity="0.29411766"
		stroke-width="1" />
	<path
		d="M96,3H97ZM90,12H91ZM118,12H119ZM38,18H39ZM107,18H108ZM14,21H15ZM81,23H82ZM26,25H27ZM97,27H98ZM22,28H23ZM108,32H109ZM136,32H137ZM100,40H101ZM473,42H474ZM120,47H121ZM428,47H429ZM479,48H480ZM113,49H114ZM480,58H481ZM453,61H454ZM477,64H478ZM432,67H433ZM87,71H88ZM60,74H61ZM65,77H66ZM59,78H60ZM59,79H60ZM59,80H60ZM59,81H60ZM59,82H60ZM59,83H60ZM59,84H60ZM55,85H56ZM59,85H60ZM59,86H60ZM59,87H60ZM59,88H60ZM59,89H60ZM59,90H60ZM59,91H60ZM59,92H60ZM93,99H94ZM37,107H38ZM32,109H33ZM47,113H48ZM72,117H73ZM98,122H99Z"
		stroke="rgb(255,0,0)"
		stroke-opacity="0.003921569"
		stroke-width="1" />
	<path
		d="M46,4H47ZM40,6H41ZM136,26H137ZM60,77H61ZM87,81H88ZM64,95H65Z"
		stroke="rgb(255,0,0)"
		stroke-opacity="0.06666667"
		stroke-width="1" />
	<path
		d="M48,4H49ZM114,21H115ZM414,62H415Z"
		stroke="rgb(255,0,0)"
		stroke-opacity="0.70980394"
		stroke-width="1" />
	<path
		d="M49,4H50ZM45,5H46ZM37,8H38ZM27,13H28ZM48,13H49ZM25,14H26ZM135,26H136ZM479,55H480ZM81,56H82ZM46,105H47ZM56,105H85ZM93,105H94Z"
		stroke="rgb(255,0,0)"
		stroke-opacity="0.9490196"
		stroke-width="1" />
	<path
		d="M96,4H97ZM83,10H84ZM479,53H480ZM426,56H427Z"
		stroke="rgb(255,0,0)"
		stroke-opacity="0.9372549"
		stroke-width="1" />
	<path
		d="M97,4H98Z"
		stroke="rgb(255,0,0)"
		stroke-opacity="0.67058825"
		stroke-width="1" />
	<path
		d="M44,5H45ZM79,33H80ZM58,56H59Z"
		stroke="rgb(255,0,0)"
		stroke-opacity="0.4627451"
		stroke-width="1" />
	<path
		d="M46,5H47ZM94,12H95ZM40,16H41ZM124,17H125ZM115,21H116ZM118,23H119ZM86,25H87ZM106,32H107ZM30,38H31ZM38,43H39ZM107,43H108ZM452,62H453ZM452,63H453ZM68,64H69ZM452,64H453ZM452,65H453ZM452,66H453ZM68,72H69ZM69,73H70ZM91,82H92ZM85,88H86ZM63,94H64ZM63,95H64ZM54,103H55Z"
		stroke="rgb(255,0,0)"
		stroke-opacity="0.99215686"
		stroke-width="1" />
	<path
		d="M99,5H100ZM31,11H32ZM114,11H115ZM51,12H52ZM42,15H43ZM121,15H122ZM30,21H31ZM27,23H28ZM12,24H13ZM11,25H12ZM91,26H92ZM51,27H52ZM94,27H95ZM41,31H42ZM54,35H55ZM91,35H92ZM41,41H42ZM104,41H105ZM439,42H440ZM439,43H440ZM473,43H474ZM439,44H440ZM439,45H440ZM439,46H440ZM439,47H440ZM439,48H440ZM439,49H440ZM439,50H440ZM439,51H440ZM439,52H440ZM473,52H474ZM439,53H440ZM439,54H440ZM439,55H440ZM439,56H440ZM439,57H440ZM439,58H440ZM439,59H440ZM439,60H440ZM478,60H479ZM439,61H440ZM58,64H68ZM71,64H82ZM58,72H68ZM71,72H82ZM79,73H80ZM50,88H55ZM86,88H90ZM57,92H58ZM92,94H93ZM92,95H93ZM92,96H93ZM92,97H93ZM92,98H93ZM64,115H65ZM99,121H100Z"
		stroke="rgb(255,0,0)"
		stroke-opacity="0.9882353"
		stroke-width="1" />
	<path
		d="M100,5H101ZM22,16H23ZM111,19H112ZM8,29H9ZM35,110H36Z"
		stroke="rgb(255,0,0)"
		stroke-opacity="0.90588236"
		stroke-width="1" />
	<path
		d="M101,5H102ZM84,87H85Z"
		stroke="rgb(255,0,0)"
		stroke-opacity="0.3764706"
		stroke-width="1" />
	<path
		d="M41,6H42ZM112,20H113ZM128,32H129ZM70,71H71Z"
		stroke="rgb(255,0,0)"
		stroke-opacity="0.3882353"
		stroke-width="1" />
	<path
		d="M42,6H43ZM63,24H64ZM136,27H137ZM120,45H121ZM467,62H468ZM74,79H75ZM74,80H75ZM74,81H75ZM74,82H75ZM74,83H75ZM74,84H75ZM74,85H75ZM74,86H75ZM74,87H75ZM74,88H75ZM74,89H75ZM74,90H75ZM74,91H75ZM86,119H87Z"
		stroke="rgb(255,0,0)"
		stroke-opacity="0.85490197"
		stroke-width="1" />
	<path
		d="M103,6H104ZM47,28H48ZM133,33H134ZM86,34H87Z"
		stroke="rgb(255,0,0)"
		stroke-opacity="0.8156863"
		stroke-width="1" />
	<path
		d="M104,6H105ZM12,34H13ZM33,35H34ZM428,62H429Z"
		stroke="rgb(255,0,0)"
		stroke-opacity="0.34509805"
		stroke-width="1" />
	<path
		d="M38,7H39ZM69,23H70ZM9,26H10ZM81,75H82ZM63,79H64ZM63,80H64ZM63,81H64ZM63,82H64ZM63,83H64ZM63,84H64ZM63,85H64ZM63,86H64ZM63,87H64ZM63,88H64ZM63,89H64ZM63,90H64ZM63,91H64ZM57,93H58Z"
		stroke="rgb(255,0,0)"
		stroke-opacity="0.19607843"
		stroke-width="1" />
	<path
		d="M39,7H40ZM40,111H41Z"
		stroke="rgb(255,0,0)"
		stroke-opacity="0.79607844"
		stroke-width="1" />
	<path
		d="M105,7H106ZM84,10H85ZM18,19H19ZM127,19H128ZM113,20H114ZM58,25H59ZM28,48H29ZM56,55H57ZM473,56H474ZM477,62H478ZM61,73H69ZM72,73H79ZM82,92H83ZM56,101H85ZM85,105H86Z"
		stroke="rgb(255,0,0)"
		stroke-opacity="0.9764706"
		stroke-width="1" />
	<path
		d="M107,7H108ZM128,19H129Z"
		stroke="rgb(255,0,0)"
		stroke-opacity="0.14117648"
		stroke-width="1" />
	<path
		d="M35,8H36ZM114,10H115ZM134,24H135ZM23,27H24ZM427,52H428ZM427,53H428ZM427,54H428ZM427,55H428ZM94,121H95Z"
		stroke="rgb(255,0,0)"
		stroke-opacity="0.05490196"
		stroke-width="1" />
	<path
		d="M36,8H37ZM111,47H112ZM101,122H102Z"
		stroke="rgb(255,0,0)"
		stroke-opacity="0.42745098"
		stroke-width="1" />
	<path
		d="M108,8H109ZM63,33H64ZM49,37H50ZM462,47H463ZM56,50H57ZM81,55H82Z"
		stroke="rgb(255,0,0)"
		stroke-opacity="0.91764706"
		stroke-width="1" />
	<path
		d="M109,8H110ZM129,20H130Z"
		stroke="rgb(255,0,0)"
		stroke-opacity="0.36862746"
		stroke-width="1" />
	<path
		d="M110,8H111ZM66,23H67ZM79,23H80ZM54,36H55ZM117,49H118ZM472,53H473ZM82,55H83ZM452,61H453ZM93,95H94ZM93,96H94ZM93,97H94ZM93,98H94ZM64,116H65Z"
		stroke="rgb(255,0,0)"
		stroke-opacity="0.03137255"
		stroke-width="1" />
	<path
		d="M34,9H35ZM46,14H47ZM471,60H472ZM82,65H83Z"
		stroke="rgb(255,0,0)"
		stroke-opacity="0.6784314"
		stroke-width="1" />
	<path
		d="M35,9H36ZM473,53H474ZM86,72H87ZM86,73H87ZM86,74H87ZM86,75H87ZM86,76H87ZM86,77H87ZM86,78H87ZM86,79H87ZM86,80H87ZM86,81H87ZM36,110H37ZM41,111H42ZM76,117H77ZM81,118H82Z"
		stroke="rgb(255,0,0)"
		stroke-opacity="0.96862745"
		stroke-width="1" />
	<path
		d="M110,9H111ZM93,12H94ZM64,24H65ZM132,33H133ZM117,48H118ZM473,54H474ZM84,55H85ZM56,85H57ZM34,109H35Z"
		stroke="rgb(255,0,0)"
		stroke-opacity="0.95686275"
		stroke-width="1" />
	<path
		d="M111,9H112ZM95,37H96ZM67,113H68Z"
		stroke="rgb(255,0,0)"
		stroke-opacity="0.5921569"
		stroke-width="1" />
	<path
		d="M32,10H33ZM118,40H119ZM82,71H83ZM56,114H57Z"
		stroke="rgb(255,0,0)"
		stroke-opacity="0.6509804"
		stroke-width="1" />
	<path
		d="M61,10H62ZM97,13H98ZM87,25H88ZM23,26H24ZM122,26H123ZM9,27H10ZM115,38H116ZM456,42H457ZM456,43H457ZM456,44H457ZM456,45H457ZM476,45H477ZM456,46H457ZM456,47H457ZM456,48H457ZM456,49H457ZM456,50H457ZM456,51H457ZM456,52H457ZM456,53H457ZM456,54H457ZM456,55H457ZM456,56H457ZM456,57H457ZM456,58H457ZM456,59H457ZM456,60H457ZM456,61H457ZM456,62H457ZM456,63H457ZM456,64H457ZM456,65H457ZM456,66H457ZM71,73H72ZM82,77H83ZM82,78H83ZM82,79H83ZM82,80H83ZM82,81H83ZM82,82H83ZM82,83H83ZM82,84H83ZM82,85H83ZM82,86H83ZM82,87H83ZM82,88H83ZM82,89H83ZM82,90H83ZM82,91H83ZM97,108H98Z"
		stroke="rgb(255,0,0)"
		stroke-opacity="0.972549"
		stroke-width="1" />
	<path
		d="M62,10H63ZM15,33H16ZM82,33H83ZM108,44H109ZM45,105H46ZM94,105H95Z"
		stroke="rgb(255,0,0)"
		stroke-opacity="0.92941177"
		stroke-width="1" />
	<path
		d="M63,10H64ZM36,18H37ZM93,36H94ZM113,48H114Z"
		stroke="rgb(255,0,0)"
		stroke-opacity="0.88235295"
		stroke-width="1" />
	<path
		d="M64,10H65ZM53,26H54ZM90,35H91ZM40,42H41ZM53,81H54Z"
		stroke="rgb(255,0,0)"
		stroke-opacity="0.7921569"
		stroke-width="1" />
	<path
		d="M66,10H67ZM28,12H29ZM105,31H106ZM101,114H102Z"
		stroke="rgb(255,0,0)"
		stroke-opacity="0.53333336"
		stroke-width="1" />
	<path
		d="M67,10H68ZM29,38H30ZM57,56H58ZM57,66H58ZM57,67H58ZM57,68H58ZM57,69H58ZM57,70H58ZM41,106H42Z"
		stroke="rgb(255,0,0)"
		stroke-opacity="0.40784314"
		stroke-width="1" />
	<path
		d="M69,10H70ZM89,120H90Z"
		stroke="rgb(255,0,0)"
		stroke-opacity="0.22352941"
		stroke-width="1" />
	<path
		d="M70,10H71ZM69,75H70Z"
		stroke="rgb(255,0,0)"
		stroke-opacity="0.1764706"
		stroke-width="1" />
	<path
		d="M71,10H75ZM29,49H30ZM84,85H85Z"
		stroke="rgb(255,0,0)"
		stroke-opacity="0.15294118"
		stroke-width="1" />
	<path
		d="M76,10H77ZM24,26H25ZM68,33H69ZM59,53H60ZM85,55H86ZM67,107H68ZM67,108H68ZM67,109H68Z"
		stroke="rgb(255,0,0)"
		stroke-opacity="0.23921569"
		stroke-width="1" />
	<path
		d="M77,10H78ZM63,53H65Z"
		stroke="rgb(255,0,0)"
		stroke-opacity="0.3019608"
		stroke-width="1" />
	<path
		d="M78,10H79ZM474,43H475ZM57,57H58ZM86,71H87ZM92,99H93ZM44,112H45Z"
		stroke="rgb(255,0,0)"
		stroke-opacity="0.41960785"
		stroke-width="1" />
	<path
		d="M79,10H80ZM104,16H105ZM64,96H65Z"
		stroke="rgb(255,0,0)"
		stroke-opacity="0.54901963"
		stroke-width="1" />
	<path
		d="M80,10H81Z"
		stroke="rgb(255,0,0)"
		stroke-opacity="0.6745098"
		stroke-width="1" />
	<path
		d="M81,10H82ZM477,46H478ZM67,106H68Z"
		stroke="rgb(255,0,0)"
		stroke-opacity="0.8039216"
		stroke-width="1" />
	<path
		d="M82,10H83ZM116,22H117ZM22,27H23ZM50,27H51ZM70,74H71Z"
		stroke="rgb(255,0,0)"
		stroke-opacity="0.8901961"
		stroke-width="1" />
	<path
		d="M113,10H114ZM90,84H91Z"
		stroke="rgb(255,0,0)"
		stroke-opacity="0.5686275"
		stroke-width="1" />
	<path
		d="M56,11H57ZM52,12H53ZM102,40H103ZM120,44H121ZM479,54H480ZM468,62H469ZM56,86H57ZM98,121H99Z"
		stroke="rgb(255,0,0)"
		stroke-opacity="0.9529412"
		stroke-width="1" />
	<path
		d="M57,11H58ZM99,14H100ZM36,108H37Z"
		stroke="rgb(255,0,0)"
		stroke-opacity="0.74509805"
		stroke-width="1" />
	<path
		d="M58,11H59ZM89,25H90ZM468,67H469ZM57,71H58ZM97,107H98ZM79,118H80Z"
		stroke="rgb(255,0,0)"
		stroke-opacity="0.48235294"
		stroke-width="1" />
	<path
		d="M59,11H60ZM50,13H51ZM97,38H98ZM471,49H472Z"
		stroke="rgb(255,0,0)"
		stroke-opacity="0.27058825"
		stroke-width="1" />
	<path
		d="M60,11H61ZM79,53H80ZM470,67H471ZM83,119H84Z"
		stroke="rgb(255,0,0)"
		stroke-opacity="0.13333334"
		stroke-width="1" />
	<path
		d="M84,11H85ZM42,16H43ZM13,22H14ZM415,47H428ZM28,49H29ZM426,51H427ZM480,54H481ZM471,59H472ZM79,78H80ZM98,108H99Z"
		stroke="rgb(255,0,0)"
		stroke-opacity="0.047058824"
		stroke-width="1" />
	<path
		d="M85,11H86ZM118,24H119ZM33,48H34ZM116,49H117ZM58,55H59ZM93,83H94ZM37,111H38ZM67,116H68Z"
		stroke="rgb(255,0,0)"
		stroke-opacity="0.14901961"
		stroke-width="1" />
	<path
		d="M86,11H87Z"
		stroke="rgb(255,0,0)"
		stroke-opacity="0.28627452"
		stroke-width="1" />
	<path
		d="M87,11H88ZM20,29H21Z"
		stroke="rgb(255,0,0)"
		stroke-opacity="0.5137255"
		stroke-width="1" />
	<path
		d="M88,11H89ZM102,15H103ZM64,33H65ZM55,35H56ZM91,87H92Z"
		stroke="rgb(255,0,0)"
		stroke-opacity="0.7647059"
		stroke-width="1" />
	<path
		d="M115,11H116Z"
		stroke="rgb(255,0,0)"
		stroke-opacity="0.5764706"
		stroke-width="1" />
	<path
		d="M53,12H54ZM113,36H114ZM80,79H81ZM80,80H81ZM80,81H81ZM80,82H81ZM80,83H81ZM80,84H81ZM80,85H81ZM80,86H81ZM80,87H81ZM80,88H81ZM80,89H81ZM80,90H81ZM80,91H81ZM96,121H97Z"
		stroke="rgb(255,0,0)"
		stroke-opacity="0.63529414"
		stroke-width="1" />
	<path
		d="M54,12H55ZM76,33H77ZM479,49H480ZM63,78H64ZM93,84H94ZM93,85H94ZM93,86H94ZM93,87H94ZM93,88H94ZM93,89H94ZM93,90H94ZM93,91H94ZM93,92H94Z"
		stroke="rgb(255,0,0)"
		stroke-opacity="0.19215687"
		stroke-width="1" />
	<path
		d="M91,12H92ZM70,23H71ZM75,23H76ZM68,53H69Z"
		stroke="rgb(255,0,0)"
		stroke-opacity="0.23529412"
		stroke-width="1" />
	<path
		d="M92,12H93ZM15,21H16Z"
		stroke="rgb(255,0,0)"
		stroke-opacity="0.69803923"
		stroke-width="1" />
	<path
		d="M117,12H118ZM19,30H20Z"
		stroke="rgb(255,0,0)"
		stroke-opacity="0.42352942"
		stroke-width="1" />
	<path
		d="M26,13H27ZM52,26H53ZM478,47H479Z"
		stroke="rgb(255,0,0)"
		stroke-opacity="0.38039216"
		stroke-width="1" />
	<path
		d="M94,13H95ZM67,23H68ZM41,30H42ZM94,37H95ZM427,56H428Z"
		stroke="rgb(255,0,0)"
		stroke-opacity="0.05882353"
		stroke-width="1" />
	<path
		d="M96,13H97Z"
		stroke="rgb(255,0,0)"
		stroke-opacity="0.6862745"
		stroke-width="1" />
	<path
		d="M119,13H120ZM99,39H100ZM53,71H54Z"
		stroke="rgb(255,0,0)"
		stroke-opacity="0.29803923"
		stroke-width="1" />
	<path
		d="M24,14H25ZM94,26H95ZM476,44H477ZM477,45H478ZM82,56H83ZM479,60H480ZM71,77H72ZM59,115H60Z"
		stroke="rgb(255,0,0)"
		stroke-opacity="0.07058824"
		stroke-width="1" />
	<path
		d="M47,14H48ZM21,16H22ZM135,25H136ZM40,106H41Z"
		stroke="rgb(255,0,0)"
		stroke-opacity="0.08235294"
		stroke-width="1" />
	<path
		d="M98,14H99ZM455,42H456ZM455,43H456ZM455,44H456ZM455,45H456ZM455,46H456ZM455,47H456ZM455,48H456ZM455,49H456ZM455,50H456ZM455,51H456ZM455,52H456ZM455,53H456ZM455,54H456ZM455,55H456ZM455,56H456ZM455,57H456ZM455,58H456ZM455,59H456ZM455,60H456ZM455,61H456ZM455,62H456ZM455,63H456ZM455,64H456ZM455,65H456ZM455,66H456ZM84,86H85Z"
		stroke="rgb(255,0,0)"
		stroke-opacity="0.12941177"
		stroke-width="1" />
	<path
		d="M120,14H121ZM470,61H471Z"
		stroke="rgb(255,0,0)"
		stroke-opacity="0.84313726"
		stroke-width="1" />
	<path
		d="M23,15H24ZM476,64H477Z"
		stroke="rgb(255,0,0)"
		stroke-opacity="0.54509807"
		stroke-width="1" />
	<path
		d="M43,15H44ZM21,28H22Z"
		stroke="rgb(255,0,0)"
		stroke-opacity="0.7294118"
		stroke-width="1" />
	<path
		d="M44,15H45ZM467,47H468ZM475,65H476Z"
		stroke="rgb(255,0,0)"
		stroke-opacity="0.25490198"
		stroke-width="1" />
	<path
		d="M101,15H102ZM38,111H39Z"
		stroke="rgb(255,0,0)"
		stroke-opacity="0.30980393"
		stroke-width="1" />
	<path
		d="M103,16H104ZM124,16H125ZM68,77H69ZM77,77H78ZM64,94H65ZM55,102H56Z"
		stroke="rgb(255,0,0)"
		stroke-opacity="0.0627451"
		stroke-width="1" />
	<path
		d="M123,16H124ZM47,38H48ZM462,48H463ZM462,49H463ZM462,50H463ZM462,51H463ZM462,52H463ZM462,53H463ZM462,54H463ZM462,55H463ZM462,56H463ZM462,57H463ZM462,58H463ZM462,59H463ZM462,60H463Z"
		stroke="rgb(255,0,0)"
		stroke-opacity="0.8980392"
		stroke-width="1" />
	<path
		d="M38,17H39ZM19,18H20ZM14,22H15Z"
		stroke="rgb(255,0,0)"
		stroke-opacity="0.8627451"
		stroke-width="1" />
	<path
		d="M106,17H107ZM96,27H97ZM56,35H57ZM69,106H72ZM84,119H85Z"
		stroke="rgb(255,0,0)"
		stroke-opacity="0.40392157"
		stroke-width="1" />
	<path
		d="M107,17H108ZM57,25H58ZM100,39H101ZM479,52H480ZM462,61H463ZM84,84H85Z"
		stroke="rgb(255,0,0)"
		stroke-opacity="0.89411765"
		stroke-width="1" />
	<path
		d="M37,18H38ZM115,22H116ZM76,23H77ZM47,93H48Z"
		stroke="rgb(255,0,0)"
		stroke-opacity="0.1882353"
		stroke-width="1" />
	<path
		d="M108,18H109ZM77,33H78Z"
		stroke="rgb(255,0,0)"
		stroke-opacity="0.24705882"
		stroke-width="1" />
	<path
		d="M17,19H18ZM99,28H100ZM112,48H113ZM78,118H79Z"
		stroke="rgb(255,0,0)"
		stroke-opacity="0.21960784"
		stroke-width="1" />
	<path
		d="M34,19H35ZM8,30H9ZM26,47H27ZM84,51H85ZM84,52H85ZM84,53H85ZM84,54H85ZM479,57H480ZM63,115H64ZM105,122H106Z"
		stroke="rgb(255,0,0)"
		stroke-opacity="0.8784314"
		stroke-width="1" />
	<path
		d="M35,19H36ZM16,33H17ZM53,36H54ZM69,53H71ZM57,55H58ZM62,92H63Z"
		stroke="rgb(255,0,0)"
		stroke-opacity="0.23137255"
		stroke-width="1" />
	<path
		d="M110,19H111ZM66,92H67ZM95,121H96Z"
		stroke="rgb(255,0,0)"
		stroke-opacity="0.30588236"
		stroke-width="1" />
	<path
		d="M16,20H17ZM8,31H9Z"
		stroke="rgb(255,0,0)"
		stroke-opacity="0.49411765"
		stroke-width="1" />
	<path
		d="M32,20H33ZM134,25H135ZM123,27H124ZM468,42H469ZM81,57H82ZM57,58H58ZM472,59H473ZM82,76H83ZM57,77H58ZM57,78H58ZM57,79H58ZM57,80H58ZM57,81H58ZM57,82H58ZM57,83H58ZM57,84H58ZM57,85H58ZM57,86H58ZM56,87H58ZM57,88H58ZM57,89H58ZM57,90H58ZM57,91H58ZM55,101H56ZM40,107H41ZM104,122H105Z"
		stroke="rgb(255,0,0)"
		stroke-opacity="0.9843137"
		stroke-width="1" />
	<path
		d="M31,21H32Z"
		stroke="rgb(255,0,0)"
		stroke-opacity="0.5882353"
		stroke-width="1" />
	<path
		d="M130,21H131ZM471,42H472Z"
		stroke="rgb(255,0,0)"
		stroke-opacity="0.6117647"
		stroke-width="1" />
	<path
		d="M29,22H30ZM26,41H27ZM479,51H480ZM463,62H466ZM472,66H473ZM48,86H49Z"
		stroke="rgb(255,0,0)"
		stroke-opacity="0.8235294"
		stroke-width="1" />
	<path
		d="M30,22H31ZM68,23H69ZM69,110H72Z"
		stroke="rgb(255,0,0)"
		stroke-opacity="0.1254902"
		stroke-width="1" />
	<path
		d="M13,23H14ZM47,84H48ZM47,85H48ZM47,86H48ZM47,87H48ZM47,88H48ZM47,89H48ZM47,90H48ZM47,91H48ZM47,92H48ZM47,105H48ZM55,105H56Z"
		stroke="rgb(255,0,0)"
		stroke-opacity="0.9607843"
		stroke-width="1" />
	<path
		d="M28,23H29ZM85,34H86Z"
		stroke="rgb(255,0,0)"
		stroke-opacity="0.37254903"
		stroke-width="1" />
	<path
		d="M71,23H72ZM70,66H71ZM70,67H71ZM70,68H71ZM70,69H71ZM70,70H71ZM70,75H71Z"
		stroke="rgb(255,0,0)"
		stroke-opacity="0.2901961"
		stroke-width="1" />
	<path
		d="M72,23H74ZM54,56H55ZM54,57H55ZM54,58H55ZM54,59H55ZM54,60H55ZM54,61H55ZM54,62H55ZM54,63H55ZM54,64H55ZM54,65H55ZM54,66H55ZM54,67H55ZM54,68H55ZM54,69H55Z"
		stroke="rgb(255,0,0)"
		stroke-opacity="0.34117648"
		stroke-width="1" />
	<path
		d="M74,23H75ZM17,32H18ZM49,113H50Z"
		stroke="rgb(255,0,0)"
		stroke-opacity="0.2784314"
		stroke-width="1" />
	<path
		d="M77,23H78ZM71,33H72ZM88,35H89ZM469,61H470ZM47,99H48Z"
		stroke="rgb(255,0,0)"
		stroke-opacity="0.11764706"
		stroke-width="1" />
	<path
		d="M117,23H118Z"
		stroke="rgb(255,0,0)"
		stroke-opacity="0.49019608"
		stroke-width="1" />
	<path
		d="M133,23H134ZM61,34H62ZM472,54H473ZM472,55H473ZM87,72H88ZM87,73H88ZM87,74H88ZM87,75H88ZM87,76H88ZM66,77H67ZM87,77H88ZM87,78H88ZM87,79H88ZM87,80H88ZM93,94H94ZM74,96H75ZM56,102H85Z"
		stroke="rgb(255,0,0)"
		stroke-opacity="0.02745098"
		stroke-width="1" />
	<path
		d="M26,24H27ZM135,32H136ZM466,62H467Z"
		stroke="rgb(255,0,0)"
		stroke-opacity="0.827451"
		stroke-width="1" />
	<path
		d="M27,24H28ZM57,35H58Z"
		stroke="rgb(255,0,0)"
		stroke-opacity="0.09019608"
		stroke-width="1" />
	<path
		d="M59,24H60ZM122,27H123ZM74,33H75ZM55,49H56ZM114,49H115ZM43,112H44Z"
		stroke="rgb(255,0,0)"
		stroke-opacity="0.10980392"
		stroke-width="1" />
	<path
		d="M61,24H62ZM103,30H104ZM106,43H107ZM50,113H51Z"
		stroke="rgb(255,0,0)"
		stroke-opacity="0.5058824"
		stroke-width="1" />
	<path
		d="M62,24H63Z"
		stroke="rgb(255,0,0)"
		stroke-opacity="0.7019608"
		stroke-width="1" />
	<path
		d="M82,24H83ZM120,43H121Z"
		stroke="rgb(255,0,0)"
		stroke-opacity="0.8392157"
		stroke-width="1" />
	<path
		d="M83,24H84ZM130,33H131ZM428,63H429ZM428,64H429ZM428,65H429ZM428,66H429ZM49,84H50ZM60,92H61ZM33,109H34ZM85,119H86Z"
		stroke="rgb(255,0,0)"
		stroke-opacity="0.68235296"
		stroke-width="1" />
	<path
		d="M84,24H85ZM83,50H84ZM61,115H62Z"
		stroke="rgb(255,0,0)"
		stroke-opacity="0.47843137"
		stroke-width="1" />
	<path
		d="M85,24H86ZM470,48H471Z"
		stroke="rgb(255,0,0)"
		stroke-opacity="0.27450982"
		stroke-width="1" />
	<path
		d="M86,24H87ZM72,33H74ZM115,37H116Z"
		stroke="rgb(255,0,0)"
		stroke-opacity="0.09411765"
		stroke-width="1" />
	<path
		d="M119,24H120ZM37,44H38ZM84,50H85ZM472,50H473ZM97,121H98Z"
		stroke="rgb(255,0,0)"
		stroke-opacity="0.8862745"
		stroke-width="1" />
	<path
		d="M10,25H11ZM14,34H15ZM453,67H454ZM68,110H69Z"
		stroke="rgb(255,0,0)"
		stroke-opacity="0.12156863"
		stroke-width="1" />
	<path
		d="M25,25H26ZM42,41H43Z"
		stroke="rgb(255,0,0)"
		stroke-opacity="0.52156866"
		stroke-width="1" />
	<path
		d="M55,25H56ZM38,44H39ZM48,113H49Z"
		stroke="rgb(255,0,0)"
		stroke-opacity="0.11372549"
		stroke-width="1" />
	<path
		d="M56,25H57ZM44,29H45ZM126,30H127ZM433,67H434Z"
		stroke="rgb(255,0,0)"
		stroke-opacity="0.5372549"
		stroke-width="1" />
	<path
		d="M88,25H89ZM45,39H46ZM105,42H106ZM47,98H48ZM42,106H43ZM103,122H104Z"
		stroke="rgb(255,0,0)"
		stroke-opacity="0.87058824"
		stroke-width="1" />
	<path
		d="M120,25H121Z"
		stroke="rgb(255,0,0)"
		stroke-opacity="0.6666667"
		stroke-width="1" />
	<path
		d="M51,26H52ZM31,49H32ZM88,120H89Z"
		stroke="rgb(255,0,0)"
		stroke-opacity="0.09803922"
		stroke-width="1" />
	<path
		d="M121,26H122ZM469,67H470Z"
		stroke="rgb(255,0,0)"
		stroke-opacity="0.32156864"
		stroke-width="1" />
	<path
		d="M48,27H49ZM8,32H9ZM81,76H82ZM48,81H49ZM65,96H74ZM85,104H86ZM72,113H73ZM76,118H77Z"
		stroke="rgb(255,0,0)"
		stroke-opacity="0.023529412"
		stroke-width="1" />
	<path
		d="M49,27H50ZM101,29H102ZM33,110H34Z"
		stroke="rgb(255,0,0)"
		stroke-opacity="0.45882353"
		stroke-width="1" />
	<path
		d="M95,27H96ZM74,78H75Z"
		stroke="rgb(255,0,0)"
		stroke-opacity="0.85882354"
		stroke-width="1" />
	<path
		d="M8,28H9ZM40,31H41ZM65,33H66ZM110,46H111Z"
		stroke="rgb(255,0,0)"
		stroke-opacity="0.6039216"
		stroke-width="1" />
	<path
		d="M46,28H47ZM116,38H117ZM44,40H45ZM66,53H68ZM62,78H63ZM62,79H63ZM62,80H63ZM62,81H63ZM62,82H63ZM62,83H63ZM62,84H63ZM62,85H63ZM62,86H63ZM62,87H63ZM62,88H63ZM62,89H63ZM62,90H63ZM62,91H63ZM35,108H36ZM72,110H73ZM100,112H101Z"
		stroke="rgb(255,0,0)"
		stroke-opacity="0.26666668"
		stroke-width="1" />
	<path
		d="M124,28H125ZM53,72H54ZM53,73H54ZM53,74H54ZM53,75H54ZM53,76H54ZM53,77H54ZM53,78H54ZM53,79H54ZM53,80H54Z"
		stroke="rgb(255,0,0)"
		stroke-opacity="0.7882353"
		stroke-width="1" />
	<path
		d="M125,29H126ZM59,74H60ZM71,92H72ZM102,122H103Z"
		stroke="rgb(255,0,0)"
		stroke-opacity="0.65882355"
		stroke-width="1" />
	<path
		d="M42,30H43ZM69,66H70ZM82,66H83ZM69,67H70ZM82,67H83ZM69,68H70ZM82,68H83ZM69,69H70ZM82,69H83ZM69,70H70ZM82,70H83ZM58,75H59Z"
		stroke="rgb(255,0,0)"
		stroke-opacity="0.59607846"
		stroke-width="1" />
	<path
		d="M106,31H107ZM96,38H97ZM478,46H479ZM480,57H481ZM58,65H69ZM71,65H82ZM46,84H47ZM46,85H47ZM46,86H47ZM46,87H47ZM46,88H47ZM46,89H47ZM46,90H47ZM46,91H47ZM46,92H47ZM93,93H94ZM87,120H88Z"
		stroke="rgb(255,0,0)"
		stroke-opacity="0.015686275"
		stroke-width="1" />
	<path
		d="M127,31H128ZM414,51H415ZM90,120H91Z"
		stroke="rgb(255,0,0)"
		stroke-opacity="0.4392157"
		stroke-width="1" />
	<path
		d="M38,32H39ZM117,39H118Z"
		stroke="rgb(255,0,0)"
		stroke-opacity="0.47058824"
		stroke-width="1" />
	<path
		d="M107,32H108ZM134,33H135Z"
		stroke="rgb(255,0,0)"
		stroke-opacity="0.36078432"
		stroke-width="1" />
	<path
		d="M10,33H11ZM119,47H120Z"
		stroke="rgb(255,0,0)"
		stroke-opacity="0.80784315"
		stroke-width="1" />
	<path
		d="M36,33H37ZM92,36H93ZM65,53H66Z"
		stroke="rgb(255,0,0)"
		stroke-opacity="0.28235295"
		stroke-width="1" />
	<path
		d="M67,33H68ZM60,53H62ZM54,70H55Z"
		stroke="rgb(255,0,0)"
		stroke-opacity="0.3372549"
		stroke-width="1" />
	<path
		d="M69,33H70ZM463,47H464ZM30,49H31ZM115,49H116ZM74,53H76ZM82,93H83Z"
		stroke="rgb(255,0,0)"
		stroke-opacity="0.18431373"
		stroke-width="1" />
	<path
		d="M70,33H71ZM75,33H76ZM80,53H81Z"
		stroke="rgb(255,0,0)"
		stroke-opacity="0.13725491"
		stroke-width="1" />
	<path
		d="M80,33H81ZM77,92H78Z"
		stroke="rgb(255,0,0)"
		stroke-opacity="0.62352943"
		stroke-width="1" />
	<path
		d="M81,33H82ZM59,34H60Z"
		stroke="rgb(255,0,0)"
		stroke-opacity="0.78039217"
		stroke-width="1" />
	<path
		d="M108,33H109ZM75,117H76Z"
		stroke="rgb(255,0,0)"
		stroke-opacity="0.8745098"
		stroke-width="1" />
	<path
		d="M129,33H130ZM76,53H77ZM478,62H479ZM63,92H64Z"
		stroke="rgb(255,0,0)"
		stroke-opacity="0.16078432"
		stroke-width="1" />
	<path
		d="M131,33H132ZM433,42H434ZM433,43H434ZM433,44H434ZM433,45H434ZM433,46H434ZM433,47H434ZM433,48H434ZM433,49H434ZM433,50H434ZM433,51H434ZM426,52H427ZM433,52H434ZM426,53H427ZM433,53H434ZM426,54H427ZM433,54H434ZM426,55H427ZM433,55H434ZM433,56H434ZM479,56H480ZM433,57H434ZM433,58H434ZM433,59H434ZM433,60H434ZM433,61H434ZM433,62H434ZM433,63H434ZM433,64H434ZM433,65H434ZM433,66H434ZM92,120H93Z"
		stroke="rgb(255,0,0)"
		stroke-opacity="0.9254902"
		stroke-width="1" />
	<path
		d="M13,34H14ZM414,57H415Z"
		stroke="rgb(255,0,0)"
		stroke-opacity="0.4"
		stroke-width="1" />
	<path
		d="M35,34H36ZM81,54H82ZM99,111H100Z"
		stroke="rgb(255,0,0)"
		stroke-opacity="0.81960785"
		stroke-width="1" />
	<path
		d="M60,34H61ZM407,67H408Z"
		stroke="rgb(255,0,0)"
		stroke-opacity="0.3254902"
		stroke-width="1" />
	<path
		d="M110,34H111ZM54,71H55Z"
		stroke="rgb(255,0,0)"
		stroke-opacity="0.7372549"
		stroke-width="1" />
	<path
		d="M89,35H90Z"
		stroke="rgb(255,0,0)"
		stroke-opacity="0.4509804"
		stroke-width="1" />
	<path
		d="M112,35H113Z"
		stroke="rgb(255,0,0)"
		stroke-opacity="0.24313726"
		stroke-width="1" />
	<path
		d="M32,36H33ZM85,71H86ZM34,110H35ZM80,118H81Z"
		stroke="rgb(255,0,0)"
		stroke-opacity="0.7764706"
		stroke-width="1" />
	<path
		d="M30,37H31Z"
		stroke="rgb(255,0,0)"
		stroke-opacity="0.14509805"
		stroke-width="1" />
	<path
		d="M31,37H32ZM469,42H470ZM469,47H470Z"
		stroke="rgb(255,0,0)"
		stroke-opacity="0.92156863"
		stroke-width="1" />
	<path
		d="M50,37H51Z"
		stroke="rgb(255,0,0)"
		stroke-opacity="0.5254902"
		stroke-width="1" />
	<path
		d="M48,38H49Z"
		stroke="rgb(255,0,0)"
		stroke-opacity="0.21568628"
		stroke-width="1" />
	<path
		d="M28,39H29ZM69,74H70Z"
		stroke="rgb(255,0,0)"
		stroke-opacity="0.58431375"
		stroke-width="1" />
	<path
		d="M46,39H47ZM100,122H101Z"
		stroke="rgb(255,0,0)"
		stroke-opacity="0.22745098"
		stroke-width="1" />
	<path
		d="M27,40H28ZM60,78H61ZM60,79H61ZM60,80H61ZM60,81H61ZM60,82H61ZM60,83H61ZM60,84H61ZM60,85H61ZM60,86H61ZM60,87H61ZM60,88H61ZM60,89H61ZM60,90H61ZM60,91H61ZM45,112H46Z"
		stroke="rgb(255,0,0)"
		stroke-opacity="0.75686276"
		stroke-width="1" />
	<path
		d="M119,41H120ZM74,117H75Z"
		stroke="rgb(255,0,0)"
		stroke-opacity="0.7411765"
		stroke-width="1" />
	<path
		d="M25,42H26ZM35,46H36ZM415,62H428ZM477,63H478ZM50,84H55ZM85,84H90Z"
		stroke="rgb(255,0,0)"
		stroke-opacity="0.5019608"
		stroke-width="1" />
	<path
		d="M41,42H42ZM428,42H429ZM428,43H429ZM428,44H429ZM428,45H429ZM428,46H429ZM65,78H66ZM65,79H66ZM65,80H66ZM65,81H66ZM65,82H66ZM65,83H66ZM65,84H66ZM65,85H66ZM65,86H66ZM55,87H56ZM65,87H66ZM65,88H66ZM65,89H66ZM65,90H66ZM65,91H66Z"
		stroke="rgb(255,0,0)"
		stroke-opacity="0.105882354"
		stroke-width="1" />
	<path
		d="M168,42H169ZM124,49H125ZM129,52H130ZM119,53H120ZM6,91H7ZM122,108H123ZM130,116H131ZM122,127H123ZM120,129H121ZM92,135H93ZM36,140H37ZM98,150H99ZM159,150H160ZM97,151H98ZM55,158H56Z"
		stroke="rgb(0,0,0)"
		stroke-opacity="0.015686275"
		stroke-width="1" />
	<path
		d="M169,42H170ZM181,70H182ZM6,89H7ZM64,138H65ZM148,138H149Z"
		stroke="rgb(0,0,0)"
		stroke-opacity="0.19215687"
		stroke-width="1" />
	<path
		d="M170,42H171ZM182,68H183Z"
		stroke="rgb(0,0,0)"
		stroke-opacity="0.40784314"
		stroke-width="1" />
	<path
		d="M171,42H172ZM26,54H27Z"
		stroke="rgb(0,0,0)"
		stroke-opacity="0.6313726"
		stroke-width="1" />
	<path
		d="M172,42H173ZM273,85H274ZM264,117H265ZM264,118H265ZM264,119H265ZM264,120H265ZM264,121H265ZM96,151H97ZM56,158H57Z"
		stroke="rgb(0,0,0)"
		stroke-opacity="0.7764706"
		stroke-width="1" />
	<path
		d="M173,42H174ZM167,43H168ZM280,87H281ZM135,102H136ZM21,107H22ZM133,108H134ZM128,118H129ZM115,120H116ZM72,139H73ZM156,147H157ZM99,148H100ZM360,151H361Z"
		stroke="rgb(0,0,0)"
		stroke-opacity="0.8784314"
		stroke-width="1" />
	<path
		d="M174,42H175ZM180,71H181ZM147,88H148ZM127,97H128ZM23,111H24ZM262,127H263ZM261,128H262ZM152,143H153Z"
		stroke="rgb(0,0,0)"
		stroke-opacity="0.92156863"
		stroke-width="1" />
	<path
		d="M175,42H399ZM21,51H22ZM8,98H9ZM31,122H32ZM20,123H21ZM70,171H71Z"
		stroke="rgb(0,0,0)"
		stroke-opacity="0.93333334"
		stroke-width="1" />
	<path
		d="M399,42H400ZM261,111H262Z"
		stroke="rgb(0,0,0)"
		stroke-opacity="0.69803923"
		stroke-width="1" />
	<path
		d="M400,42H401ZM400,43H401ZM162,44H163ZM400,44H401ZM400,45H401ZM400,46H401ZM400,47H401ZM400,48H401ZM400,49H401ZM123,50H124ZM400,50H401ZM400,51H401ZM400,52H401ZM25,53H26ZM400,53H401ZM400,54H401ZM131,55H132ZM400,55H401ZM400,56H401ZM400,57H401ZM12,58H13ZM400,58H401ZM133,59H134ZM147,59H148ZM400,59H401ZM400,60H401ZM400,61H401ZM134,62H135ZM400,62H401ZM400,63H401ZM400,64H401ZM400,65H401ZM400,66H401ZM400,67H401ZM181,71H182ZM126,73H127ZM18,96H19ZM136,102H137ZM12,112H13ZM132,112H133ZM263,117H264ZM263,118H264ZM263,119H264ZM181,120H182ZM263,120H264ZM113,121H114ZM263,121H264ZM263,122H264ZM124,125H125ZM183,125H184ZM116,133H117ZM148,139H149ZM37,141H38ZM287,149H288ZM163,152H164ZM57,160H58ZM78,169H79Z"
		stroke="rgb(0,0,0)"
		stroke-opacity="0.003921569"
		stroke-width="1" />
	<path
		d="M407,42H408ZM407,43H408ZM407,44H408ZM407,45H408ZM407,46H408ZM407,47H408ZM407,48H408ZM407,49H408ZM407,50H408ZM407,51H408ZM407,52H408ZM407,53H408ZM407,54H408ZM407,55H408ZM407,56H408ZM407,57H408ZM407,58H408ZM407,59H408ZM407,60H408ZM407,61H408ZM407,62H408ZM407,63H408ZM407,64H408ZM407,65H408ZM407,66H408ZM456,67H457ZM72,106H73ZM39,111H40ZM67,114H68Z"
		stroke="rgb(255,0,0)"
		stroke-opacity="0.56078434"
		stroke-width="1" />
	<path
		d="M472,42H473ZM60,115H61Z"
		stroke="rgb(255,0,0)"
		stroke-opacity="0.25882354"
		stroke-width="1" />
	<path
		d="M39,43H40Z"
		stroke="rgb(255,0,0)"
		stroke-opacity="0.38431373"
		stroke-width="1" />
	<path
		d="M165,43H166ZM23,52H24ZM269,84H270ZM284,88H285ZM165,107H166ZM121,110H122ZM25,113H26ZM19,123H20ZM402,123H490ZM188,129H189ZM151,143H152ZM53,156H54ZM83,164H84ZM82,165H83Z"
		stroke="rgb(0,0,0)"
		stroke-opacity="0.02745098"
		stroke-width="1" />
	<path
		d="M166,43H167ZM286,149H287Z"
		stroke="rgb(0,0,0)"
		stroke-opacity="0.39215687"
		stroke-width="1" />
	<path
		d="M168,43H399ZM166,44H399ZM163,45H399ZM161,46H399ZM160,47H399ZM158,48H399ZM157,49H399ZM19,50H21ZM125,50H127ZM156,50H399ZM19,51H21ZM124,51H128ZM155,51H399ZM17,52H22ZM123,52H128ZM154,52H399ZM17,53H23ZM122,53H129ZM153,53H399ZM16,54H26ZM119,54H130ZM152,54H399ZM15,55H26ZM119,55H130ZM151,55H399ZM15,56H26ZM120,56H130ZM151,56H399ZM14,57H25ZM121,57H131ZM150,57H399ZM14,58H24ZM121,58H132ZM150,58H399ZM13,59H23ZM122,59H132ZM149,59H399ZM13,60H23ZM123,60H132ZM148,60H399ZM12,61H22ZM123,61H133ZM148,61H399ZM12,62H22ZM124,62H133ZM148,62H399ZM11,63H21ZM124,63H134ZM148,63H399ZM11,64H21ZM125,64H134ZM147,64H399ZM11,65H20ZM125,65H135ZM147,65H399ZM10,66H20ZM126,66H135ZM147,66H184ZM311,66H399ZM10,67H19ZM126,67H135ZM147,67H183ZM311,67H399ZM10,68H19ZM126,68H135ZM147,68H181ZM311,68H349ZM10,69H19ZM127,69H136ZM146,69H181ZM311,69H349ZM9,70H19ZM127,70H136ZM146,70H180ZM311,70H349ZM9,71H18ZM127,71H136ZM146,71H180ZM311,71H349ZM8,72H18ZM128,72H137ZM146,72H180ZM311,72H349ZM8,73H18ZM128,73H137ZM146,73H180ZM311,73H349ZM8,74H17ZM128,74H137ZM146,74H180ZM311,74H349ZM8,75H17ZM128,75H137ZM146,75H180ZM311,75H349ZM8,76H17ZM128,76H137ZM146,76H180ZM311,76H349ZM8,77H17ZM128,77H137ZM146,77H180ZM311,77H349ZM8,78H17ZM128,78H137ZM146,78H180ZM311,78H349ZM8,79H17ZM128,79H137ZM146,79H180ZM311,79H349ZM361,79H401ZM8,80H17ZM129,80H137ZM146,80H180ZM311,80H349ZM361,80H401ZM8,81H17ZM129,81H137ZM146,81H181ZM311,81H349ZM361,81H401ZM7,82H17ZM129,82H137ZM147,82H181ZM311,82H349ZM361,82H401ZM7,83H17ZM129,83H138ZM147,83H182ZM311,83H349ZM361,83H401ZM7,84H17ZM129,84H138ZM147,84H183ZM311,84H349ZM361,84H401ZM7,85H16ZM129,85H138ZM147,85H185ZM311,85H349ZM361,85H401ZM7,86H16ZM129,86H138ZM147,86H277ZM311,86H349ZM361,86H401ZM7,87H16ZM129,87H138ZM148,87H279ZM311,87H349ZM361,87H401ZM8,88H16ZM129,88H137ZM148,88H282ZM311,88H349ZM361,88H401ZM8,89H16ZM129,89H137ZM148,89H284ZM311,89H349ZM361,89H401ZM8,90H17ZM129,90H137ZM149,90H286ZM311,90H349ZM361,90H401ZM8,91H17ZM129,91H137ZM149,91H287ZM311,91H349ZM361,91H401ZM8,92H17ZM129,92H137ZM150,92H288ZM311,92H349ZM361,92H401ZM8,93H17ZM128,93H137ZM150,93H290ZM311,93H349ZM361,93H401ZM8,94H17ZM128,94H137ZM151,94H291ZM311,94H349ZM361,94H401ZM8,95H17ZM128,95H137ZM152,95H292ZM311,95H349ZM361,95H401ZM8,96H17ZM128,96H137ZM152,96H292ZM311,96H349ZM361,96H401ZM8,97H18ZM128,97H137ZM153,97H293ZM311,97H349ZM361,97H401ZM9,98H18ZM128,98H136ZM154,98H294ZM311,98H349ZM361,98H401ZM9,99H18ZM127,99H136ZM155,99H295ZM311,99H349ZM361,99H401ZM9,100H18ZM127,100H136ZM156,100H295ZM311,100H349ZM361,100H401ZM10,101H19ZM126,101H135ZM157,101H296ZM311,101H349ZM361,101H401ZM10,102H19ZM126,102H135ZM159,102H296ZM311,102H349ZM361,102H401ZM10,103H19ZM126,103H135ZM160,103H297ZM311,103H349ZM361,103H401ZM10,104H20ZM126,104H135ZM161,104H297ZM311,104H349ZM361,104H401ZM11,105H20ZM125,105H135ZM163,105H297ZM311,105H349ZM361,105H401ZM11,106H21ZM125,106H134ZM166,106H297ZM311,106H349ZM361,106H401ZM12,107H21ZM124,107H134ZM169,107H298ZM311,107H349ZM361,107H401ZM12,108H21ZM123,108H133ZM257,108H298ZM311,108H349ZM361,108H401ZM12,109H22ZM123,109H133ZM259,109H299ZM311,109H349ZM361,109H401ZM13,110H23ZM123,110H132ZM261,110H299ZM311,110H349ZM361,110H401ZM13,111H23ZM122,111H132ZM262,111H299ZM311,111H349ZM361,111H401ZM14,112H24ZM121,112H131ZM263,112H299ZM311,112H349ZM361,112H401ZM14,113H24ZM121,113H131ZM264,113H299ZM311,113H349ZM361,113H401ZM15,114H25ZM120,114H130ZM264,114H299ZM311,114H349ZM361,114H401ZM15,115H26ZM120,115H130ZM265,115H299ZM311,115H349ZM361,115H401ZM16,116H26ZM119,116H130ZM265,116H299ZM311,116H349ZM361,116H401ZM17,117H27ZM118,117H129ZM265,117H299ZM311,117H349ZM361,117H401ZM17,118H28ZM118,118H128ZM146,118H160ZM265,118H299ZM311,118H349ZM361,118H401ZM18,119H29ZM117,119H128ZM146,119H180ZM265,119H299ZM311,119H349ZM361,119H401ZM19,120H29ZM116,120H127ZM146,120H180ZM265,120H299ZM311,120H349ZM361,120H401ZM19,121H30ZM115,121H126ZM146,121H180ZM265,121H299ZM311,121H349ZM361,121H401ZM20,122H31ZM114,122H126ZM146,122H181ZM265,122H299ZM311,122H349ZM361,122H401ZM21,123H32ZM113,123H125ZM146,123H181ZM265,123H299ZM311,123H349ZM361,123H401ZM21,124H33ZM112,124H124ZM146,124H181ZM265,124H299ZM311,124H349ZM361,124H401ZM22,125H34ZM111,125H123ZM146,125H182ZM264,125H299ZM311,125H349ZM361,125H490ZM23,126H35ZM110,126H122ZM146,126H183ZM263,126H299ZM311,126H349ZM361,126H490ZM24,127H37ZM109,127H121ZM146,127H183ZM263,127H299ZM311,127H349ZM361,127H490ZM26,128H38ZM108,128H120ZM147,128H185ZM262,128H299ZM311,128H349ZM361,128H490ZM26,129H39ZM106,129H119ZM147,129H186ZM261,129H299ZM311,129H349ZM361,129H490ZM28,130H41ZM105,130H118ZM147,130H188ZM259,130H299ZM311,130H349ZM361,130H490ZM28,131H42ZM103,131H117ZM147,131H192ZM255,131H298ZM311,131H349ZM361,131H490ZM30,132H44ZM101,132H116ZM148,132H298ZM311,132H349ZM361,132H490ZM31,133H46ZM100,133H115ZM148,133H297ZM311,133H349ZM361,133H490ZM32,134H48ZM97,134H114ZM148,134H297ZM311,134H349ZM361,134H490ZM33,135H50ZM95,135H113ZM148,135H297ZM311,135H349ZM361,135H490ZM34,136H52ZM93,136H112ZM148,136H297ZM311,136H349ZM361,136H490ZM35,137H56ZM90,137H110ZM149,137H296ZM311,137H349ZM361,137H490ZM36,138H59ZM86,138H110ZM150,138H296ZM311,138H349ZM361,138H490ZM37,139H68ZM77,139H108ZM150,139H295ZM311,139H349ZM361,139H490ZM38,140H108ZM151,140H295ZM311,140H349ZM361,140H490ZM39,141H106ZM152,141H293ZM311,141H349ZM361,141H490ZM40,142H106ZM152,142H293ZM311,142H349ZM361,142H490ZM41,143H104ZM153,143H292ZM311,143H349ZM361,143H490ZM42,144H103ZM154,144H291ZM311,144H349ZM361,144H490ZM43,145H102ZM155,145H290ZM311,145H349ZM361,145H490ZM44,146H101ZM156,146H289ZM311,146H349ZM361,146H490ZM45,147H100ZM157,147H288ZM311,147H349ZM361,147H490ZM47,148H99ZM159,148H286ZM311,148H349ZM361,148H490ZM48,149H98ZM160,149H285ZM311,149H349ZM361,149H490ZM49,150H97ZM162,150H283ZM361,150H490ZM50,151H96ZM163,151H281ZM51,152H95ZM167,152H278ZM52,153H94ZM170,153H275ZM53,154H93ZM54,155H92ZM55,156H91ZM56,157H90ZM57,158H89ZM58,159H87ZM59,160H86ZM61,161H85ZM61,162H84ZM63,163H83ZM63,164H82ZM64,165H81ZM66,166H80ZM66,167H79ZM68,168H78ZM69,169H77ZM70,170H76ZM71,171H75ZM72,172H73Z"
		stroke="rgb(0,0,0)"
		stroke-opacity="1.0"
		stroke-width="1" />
	<path
		d="M399,43H400ZM399,44H400ZM399,45H400ZM399,46H400ZM399,47H400ZM399,48H400ZM399,49H400ZM399,50H400ZM399,51H400ZM399,52H400ZM399,53H400ZM399,54H400ZM399,55H400ZM399,56H400ZM399,57H400ZM399,58H400ZM399,59H400ZM399,60H400ZM399,61H400ZM399,62H400ZM399,63H400ZM399,64H400ZM399,65H400ZM399,66H400ZM157,102H158ZM148,137H149Z"
		stroke="rgb(0,0,0)"
		stroke-opacity="0.7254902"
		stroke-width="1" />
	<path
		d="M163,44H164ZM293,96H294ZM182,124H183ZM36,126H37ZM107,141H108Z"
		stroke="rgb(0,0,0)"
		stroke-opacity="0.2627451"
		stroke-width="1" />
	<path
		d="M164,44H165ZM15,116H16Z"
		stroke="rgb(0,0,0)"
		stroke-opacity="0.7607843"
		stroke-width="1" />
	<path
		d="M165,44H166ZM155,50H156ZM153,52H154ZM23,53H24ZM123,62H124ZM7,80H8ZM146,82H147ZM16,85H17ZM279,87H280ZM137,88H138ZM7,89H8ZM292,96H293ZM11,107H12ZM130,114H131ZM164,118H165ZM180,121H181ZM181,124H182ZM264,124H265ZM25,128H26ZM107,128H108ZM146,128H147ZM188,130H189ZM29,132H30ZM30,133H31ZM149,138H150ZM151,141H152ZM102,145H103ZM158,148H159ZM47,149H48ZM87,159H88ZM65,166H66Z"
		stroke="rgb(0,0,0)"
		stroke-opacity="0.99215686"
		stroke-width="1" />
	<path
		d="M475,44H476ZM55,50H56Z"
		stroke="rgb(255,0,0)"
		stroke-opacity="0.8352941"
		stroke-width="1" />
	<path
		d="M161,45H162ZM25,57H26ZM23,127H24ZM26,130H27Z"
		stroke="rgb(0,0,0)"
		stroke-opacity="0.25490198"
		stroke-width="1" />
	<path
		d="M162,45H163ZM126,121H127ZM264,123H265ZM296,137H297ZM35,138H36Z"
		stroke="rgb(0,0,0)"
		stroke-opacity="0.90588236"
		stroke-width="1" />
	<path
		d="M25,46H26Z"
		stroke="rgb(255,0,0)"
		stroke-opacity="0.5568628"
		stroke-width="1" />
	<path
		d="M159,46H160ZM350,68H351ZM191,130H192ZM104,144H105Z"
		stroke="rgb(0,0,0)"
		stroke-opacity="0.16470589"
		stroke-width="1" />
	<path
		d="M160,46H161ZM135,67H136ZM146,85H147ZM123,125H124ZM83,138H84Z"
		stroke="rgb(0,0,0)"
		stroke-opacity="0.8039216"
		stroke-width="1" />
	<path
		d="M34,47H35ZM66,116H67Z"
		stroke="rgb(255,0,0)"
		stroke-opacity="0.2509804"
		stroke-width="1" />
	<path
		d="M157,47H158ZM8,68H9ZM270,84H271ZM17,91H18ZM150,96H151ZM295,98H296ZM261,112H262ZM129,118H130ZM110,124H111ZM184,126H185ZM118,131H119ZM60,137H61ZM297,137H298ZM79,138H80ZM150,142H151ZM279,153H280Z"
		stroke="rgb(0,0,0)"
		stroke-opacity="0.007843138"
		stroke-width="1" />
	<path
		d="M158,47H159ZM146,64H147ZM100,132H101ZM147,135H148ZM92,155H93Z"
		stroke="rgb(0,0,0)"
		stroke-opacity="0.5647059"
		stroke-width="1" />
	<path
		d="M159,47H160ZM121,53H122ZM146,67H147ZM183,84H184ZM186,85H269ZM147,87H148ZM297,105H298ZM132,110H133ZM16,117H17ZM169,118H173ZM35,126H36ZM258,130H259ZM254,131H255ZM147,133H148ZM103,144H104ZM48,150H49ZM50,152H51ZM275,153H276ZM85,161H86Z"
		stroke="rgb(0,0,0)"
		stroke-opacity="0.9843137"
		stroke-width="1" />
	<path
		d="M414,47H415ZM85,56H86ZM85,57H86ZM85,58H86ZM85,59H86ZM85,60H86ZM85,61H86ZM85,62H86ZM85,63H86ZM85,64H86ZM85,65H86ZM85,66H86ZM85,67H86ZM85,68H86ZM85,69H86ZM85,70H86Z"
		stroke="rgb(255,0,0)"
		stroke-opacity="0.43137255"
		stroke-width="1" />
	<path
		d="M464,47H467ZM75,94H76ZM75,95H76Z"
		stroke="rgb(255,0,0)"
		stroke-opacity="0.20392157"
		stroke-width="1" />
	<path
		d="M468,47H469ZM91,86H92ZM105,121H106Z"
		stroke="rgb(255,0,0)"
		stroke-opacity="0.5176471"
		stroke-width="1" />
	<path
		d="M118,48H119ZM467,67H468ZM91,85H92ZM80,92H81Z"
		stroke="rgb(255,0,0)"
		stroke-opacity="0.5529412"
		stroke-width="1" />
	<path
		d="M125,48H126ZM15,53H16ZM122,62H123ZM123,64H124ZM19,70H20ZM17,81H18ZM148,93H149ZM298,104H299ZM175,109H255ZM263,116H264ZM127,121H128ZM258,129H259Z"
		stroke="rgb(0,0,0)"
		stroke-opacity="0.011764706"
		stroke-width="1" />
	<path
		d="M156,48H157ZM6,79H7ZM161,105H162ZM262,113H263ZM59,137H60ZM105,143H106Z"
		stroke="rgb(0,0,0)"
		stroke-opacity="0.101960786"
		stroke-width="1" />
	<path
		d="M157,48H158ZM9,102H10ZM61,138H62ZM36,139H37Z"
		stroke="rgb(0,0,0)"
		stroke-opacity="0.87058824"
		stroke-width="1" />
	<path
		d="M414,48H415ZM414,49H415ZM414,50H415ZM414,58H415ZM414,59H415ZM414,60H415ZM414,61H415Z"
		stroke="rgb(255,0,0)"
		stroke-opacity="0.41568628"
		stroke-width="1" />
	<path
		d="M19,49H20Z"
		stroke="rgb(0,0,0)"
		stroke-opacity="0.5921569"
		stroke-width="1" />
	<path
		d="M20,49H21Z"
		stroke="rgb(0,0,0)"
		stroke-opacity="0.5568628"
		stroke-width="1" />
	<path
		d="M56,49H57ZM65,92H66ZM103,117H104ZM77,118H78Z"
		stroke="rgb(255,0,0)"
		stroke-opacity="0.08627451"
		stroke-width="1" />
	<path
		d="M84,49H85ZM472,57H473Z"
		stroke="rgb(255,0,0)"
		stroke-opacity="0.16470589"
		stroke-width="1" />
	<path
		d="M125,49H126ZM272,85H273ZM284,89H285ZM128,91H129ZM74,139H75Z"
		stroke="rgb(0,0,0)"
		stroke-opacity="0.9019608"
		stroke-width="1" />
	<path
		d="M126,49H127Z"
		stroke="rgb(0,0,0)"
		stroke-opacity="0.44313726"
		stroke-width="1" />
	<path
		d="M155,49H156ZM146,63H147ZM155,117H156ZM103,130H104ZM291,145H292Z"
		stroke="rgb(0,0,0)"
		stroke-opacity="0.2509804"
		stroke-width="1" />
	<path
		d="M156,49H157ZM132,59H133ZM122,110H123ZM173,118H177ZM32,135H33ZM289,146H290ZM175,154H270ZM83,163H84ZM67,168H68Z"
		stroke="rgb(0,0,0)"
		stroke-opacity="0.9647059"
		stroke-width="1" />
	<path
		d="M18,50H19ZM183,67H184Z"
		stroke="rgb(0,0,0)"
		stroke-opacity="0.57254905"
		stroke-width="1" />
	<path
		d="M21,50H22ZM24,59H25ZM183,83H184ZM151,97H152ZM169,117H172ZM115,119H116ZM34,124H35ZM261,127H262ZM193,130H255ZM149,140H150ZM152,144H153Z"
		stroke="rgb(0,0,0)"
		stroke-opacity="0.07058824"
		stroke-width="1" />
	<path
		d="M124,50H125ZM133,61H134ZM39,142H40Z"
		stroke="rgb(0,0,0)"
		stroke-opacity="0.7490196"
		stroke-width="1" />
	<path
		d="M127,50H128ZM148,58H149ZM6,81H7ZM29,119H30ZM298,133H299ZM108,140H109Z"
		stroke="rgb(0,0,0)"
		stroke-opacity="0.32156864"
		stroke-width="1" />
	<path
		d="M154,50H155ZM7,74H8ZM93,135H94Z"
		stroke="rgb(0,0,0)"
		stroke-opacity="0.3137255"
		stroke-width="1" />
	<path
		d="M479,50H480ZM67,110H68Z"
		stroke="rgb(255,0,0)"
		stroke-opacity="0.6156863"
		stroke-width="1" />
	<path
		d="M17,51H18ZM19,69H20ZM137,95H138Z"
		stroke="rgb(0,0,0)"
		stroke-opacity="0.34509805"
		stroke-width="1" />
	<path
		d="M18,51H19ZM130,56H131ZM149,58H150ZM132,60H133ZM133,62H134ZM146,68H147ZM181,68H182ZM9,69H10ZM180,70H181ZM127,72H128ZM17,74H18ZM7,81H8ZM137,82H138ZM185,85H186ZM7,88H8ZM16,89H17ZM148,90H149ZM149,92H150ZM288,92H289ZM151,95H152ZM127,98H128ZM18,100H19ZM135,101H136ZM158,102H159ZM125,104H126ZM297,106H298ZM21,108H22ZM131,112H132ZM14,114H15ZM117,118H118ZM160,118H164ZM29,120H30ZM401,124H490ZM183,127H184ZM192,131H193ZM147,132H148ZM297,133H298ZM52,136H53ZM89,137H90ZM110,137H111ZM59,138H60ZM293,141H294ZM46,148H47ZM286,148H287ZM311,150H349ZM281,151H282ZM166,152H167ZM278,152H279ZM52,154H53ZM60,161H61ZM62,163H63ZM73,172H74Z"
		stroke="rgb(0,0,0)"
		stroke-opacity="0.99607843"
		stroke-width="1" />
	<path
		d="M22,51H23ZM146,62H147ZM124,66H125ZM297,102H298ZM33,123H34ZM108,126H109ZM32,136H33ZM84,163H85Z"
		stroke="rgb(0,0,0)"
		stroke-opacity="0.05882353"
		stroke-width="1" />
	<path
		d="M123,51H124ZM11,108H12Z"
		stroke="rgb(0,0,0)"
		stroke-opacity="0.7294118"
		stroke-width="1" />
	<path
		d="M128,51H129ZM23,110H24ZM260,128H261ZM147,136H148Z"
		stroke="rgb(0,0,0)"
		stroke-opacity="0.15294118"
		stroke-width="1" />
	<path
		d="M153,51H154ZM125,123H126ZM43,131H44Z"
		stroke="rgb(0,0,0)"
		stroke-opacity="0.3372549"
		stroke-width="1" />
	<path
		d="M154,51H155ZM150,56H151ZM23,59H24ZM147,63H148ZM10,65H11ZM125,66H126ZM19,67H20ZM135,68H136ZM126,69H127ZM137,81H138ZM128,92H129ZM9,101H10ZM119,115H120ZM165,118H169ZM18,120H19ZM34,125H35ZM27,130H28ZM104,130H105ZM193,131H254ZM31,134H32ZM68,139H69ZM108,139H109ZM106,141H107ZM104,143H105ZM290,145H291ZM285,149H286ZM283,150H284ZM86,160H87Z"
		stroke="rgb(0,0,0)"
		stroke-opacity="0.9882353"
		stroke-width="1" />
	<path
		d="M472,51H473Z"
		stroke="rgb(255,0,0)"
		stroke-opacity="0.3647059"
		stroke-width="1" />
	<path
		d="M16,52H17ZM121,60H122ZM7,73H8ZM359,79H360ZM359,80H360ZM359,81H360ZM359,82H360ZM359,83H360ZM187,84H269ZM359,84H360ZM359,85H360ZM359,86H360ZM359,87H360ZM359,88H360ZM359,89H360ZM359,90H360ZM359,91H360ZM359,92H360ZM359,93H360ZM359,94H360ZM359,95H360ZM359,96H360ZM359,97H360ZM359,98H360ZM359,99H360ZM359,100H360ZM136,101H137ZM359,101H360ZM359,102H360ZM20,103H21ZM359,103H360ZM359,104H360ZM359,105H360ZM359,106H360ZM359,107H360ZM359,108H360ZM359,109H360ZM359,110H360ZM359,111H360ZM359,112H360ZM359,113H360ZM359,114H360ZM359,115H360ZM359,116H360ZM359,117H360ZM359,118H360ZM359,119H360ZM359,120H360ZM359,121H360ZM359,122H360ZM359,123H360ZM359,124H360ZM359,125H360ZM359,126H360ZM359,127H360ZM39,128H40ZM359,128H360ZM359,129H360ZM359,130H360ZM359,131H360ZM359,132H360ZM359,133H360ZM359,134H360ZM359,135H360ZM359,136H360ZM359,137H360ZM359,138H360ZM359,139H360ZM359,140H360ZM359,141H360ZM359,142H360ZM359,143H360ZM359,144H360ZM359,145H360ZM359,146H360ZM359,147H360ZM100,148H101ZM359,148H360ZM359,149H360ZM359,150H360ZM281,152H282Z"
		stroke="rgb(0,0,0)"
		stroke-opacity="0.050980393"
		stroke-width="1" />
	<path
		d="M22,52H23ZM7,78H8ZM282,88H283ZM136,98H137ZM296,102H297ZM12,110H13ZM186,129H187ZM165,152H166ZM174,154H175Z"
		stroke="rgb(0,0,0)"
		stroke-opacity="0.95686275"
		stroke-width="1" />
	<path
		d="M121,52H122ZM136,68H137ZM133,110H134ZM34,138H35ZM35,139H36ZM99,149H100ZM70,172H71Z"
		stroke="rgb(0,0,0)"
		stroke-opacity="0.03137255"
		stroke-width="1" />
	<path
		d="M122,52H123ZM149,57H150ZM174,108H175ZM38,141H39ZM293,142H294ZM276,153H277Z"
		stroke="rgb(0,0,0)"
		stroke-opacity="0.8392157"
		stroke-width="1" />
	<path
		d="M128,52H129ZM16,53H17ZM182,83H183ZM13,112H14ZM48,134H49ZM147,134H148ZM84,138H85ZM70,139H71Z"
		stroke="rgb(0,0,0)"
		stroke-opacity="0.91764706"
		stroke-width="1" />
	<path
		d="M152,52H153ZM18,73H19ZM126,122H127Z"
		stroke="rgb(0,0,0)"
		stroke-opacity="0.15686275"
		stroke-width="1" />
	<path
		d="M472,52H473ZM99,110H100Z"
		stroke="rgb(255,0,0)"
		stroke-opacity="0.101960786"
		stroke-width="1" />
	<path
		d="M24,53H25ZM43,146H44ZM60,162H61Z"
		stroke="rgb(0,0,0)"
		stroke-opacity="0.5058824"
		stroke-width="1" />
	<path
		d="M62,53H63ZM38,107H39ZM104,119H105Z"
		stroke="rgb(255,0,0)"
		stroke-opacity="0.33333334"
		stroke-width="1" />
	<path
		d="M73,53H74Z"
		stroke="rgb(255,0,0)"
		stroke-opacity="0.2"
		stroke-width="1" />
	<path
		d="M120,53H121ZM23,60H24Z"
		stroke="rgb(0,0,0)"
		stroke-opacity="0.47843137"
		stroke-width="1" />
	<path
		d="M129,53H130ZM128,85H129Z"
		stroke="rgb(0,0,0)"
		stroke-opacity="0.6392157"
		stroke-width="1" />
	<path
		d="M151,53H152ZM137,96H138ZM263,115H264ZM17,120H18ZM255,130H256Z"
		stroke="rgb(0,0,0)"
		stroke-opacity="0.1254902"
		stroke-width="1" />
	<path
		d="M152,53H153ZM134,64H135ZM270,85H271ZM154,99H155ZM256,108H257ZM298,108H299ZM26,116H27ZM30,121H31ZM99,133H100ZM76,139H77Z"
		stroke="rgb(0,0,0)"
		stroke-opacity="0.9764706"
		stroke-width="1" />
	<path
		d="M15,54H16ZM118,54H119Z"
		stroke="rgb(0,0,0)"
		stroke-opacity="0.53333336"
		stroke-width="1" />
	<path
		d="M130,54H131ZM155,101H156ZM299,109H300ZM35,125H36Z"
		stroke="rgb(0,0,0)"
		stroke-opacity="0.13333334"
		stroke-width="1" />
	<path
		d="M150,54H151ZM255,109H256ZM177,117H181ZM299,131H300ZM95,134H96ZM146,134H147ZM51,154H52ZM52,155H53Z"
		stroke="rgb(0,0,0)"
		stroke-opacity="0.023529412"
		stroke-width="1" />
	<path
		d="M151,54H152ZM277,86H278ZM109,126H110Z"
		stroke="rgb(0,0,0)"
		stroke-opacity="0.85882354"
		stroke-width="1" />
	<path
		d="M14,55H15ZM169,108H170ZM172,117H173ZM170,154H171Z"
		stroke="rgb(0,0,0)"
		stroke-opacity="0.06666667"
		stroke-width="1" />
	<path
		d="M26,55H27ZM111,124H112ZM114,134H115ZM62,138H63Z"
		stroke="rgb(0,0,0)"
		stroke-opacity="0.6784314"
		stroke-width="1" />
	<path
		d="M118,55H119Z"
		stroke="rgb(0,0,0)"
		stroke-opacity="0.3254902"
		stroke-width="1" />
	<path
		d="M130,55H131ZM180,79H181ZM137,91H138ZM82,164H83Z"
		stroke="rgb(0,0,0)"
		stroke-opacity="0.89411765"
		stroke-width="1" />
	<path
		d="M150,55H151Z"
		stroke="rgb(0,0,0)"
		stroke-opacity="0.58431375"
		stroke-width="1" />
	<path
		d="M14,56H15ZM17,75H18ZM7,77H8ZM295,100H296ZM155,146H156ZM361,151H489Z"
		stroke="rgb(0,0,0)"
		stroke-opacity="0.9098039"
		stroke-width="1" />
	<path
		d="M26,56H27ZM148,57H149ZM6,78H7ZM359,78H360ZM123,106H124ZM263,123H264ZM99,132H100ZM296,139H297ZM80,167H81Z"
		stroke="rgb(0,0,0)"
		stroke-opacity="0.019607844"
		stroke-width="1" />
	<path
		d="M119,56H120ZM149,139H150Z"
		stroke="rgb(0,0,0)"
		stroke-opacity="0.72156864"
		stroke-width="1" />
	<path
		d="M131,56H132ZM361,78H400ZM125,102H126ZM148,117H151Z"
		stroke="rgb(0,0,0)"
		stroke-opacity="0.32941177"
		stroke-width="1" />
	<path
		d="M149,56H150ZM125,68H126ZM185,84H186ZM154,100H155ZM128,119H129Z"
		stroke="rgb(0,0,0)"
		stroke-opacity="0.1764706"
		stroke-width="1" />
	<path
		d="M13,57H14ZM170,108H171ZM64,166H65Z"
		stroke="rgb(0,0,0)"
		stroke-opacity="0.27450982"
		stroke-width="1" />
	<path
		d="M82,57H83Z"
		stroke="rgb(255,0,0)"
		stroke-opacity="0.35686275"
		stroke-width="1" />
	<path
		d="M119,57H120ZM18,74H19ZM294,97H295ZM296,100H297ZM173,117H177ZM85,137H86ZM65,138H66Z"
		stroke="rgb(0,0,0)"
		stroke-opacity="0.047058824"
		stroke-width="1" />
	<path
		d="M120,57H121ZM22,61H23ZM146,66H147ZM137,90H138ZM155,100H156ZM10,105H11ZM39,129H40ZM34,137H35ZM60,138H61ZM101,146H102Z"
		stroke="rgb(0,0,0)"
		stroke-opacity="0.9490196"
		stroke-width="1" />
	<path
		d="M131,57H132ZM127,73H128ZM360,80H361ZM360,81H361ZM360,82H361ZM360,83H361ZM360,84H361ZM360,85H361ZM360,86H361ZM360,87H361ZM360,88H361ZM360,89H361ZM360,90H361ZM360,91H361ZM360,92H361ZM360,93H361ZM360,94H361ZM360,95H361ZM360,96H361ZM360,97H361ZM360,98H361ZM360,99H361ZM360,100H361ZM360,101H361ZM360,102H361ZM360,103H361ZM360,104H361ZM20,105H21ZM360,105H361ZM360,106H361ZM360,107H361ZM360,108H361ZM360,109H361ZM360,110H361ZM360,111H361ZM360,112H361ZM360,113H361ZM360,114H361ZM360,115H361ZM360,116H361ZM360,117H361ZM177,118H180ZM360,118H361ZM360,119H361ZM360,120H361ZM360,121H361ZM360,122H361ZM360,123H361ZM360,124H361ZM360,125H361ZM360,126H361ZM360,127H361ZM360,128H361ZM360,129H361ZM360,130H361ZM42,131H43ZM360,131H361ZM360,132H361ZM360,133H361ZM360,134H361ZM50,135H51ZM360,135H361ZM360,136H361ZM360,137H361ZM360,138H361ZM360,139H361ZM360,140H361ZM360,141H361ZM360,142H361ZM360,143H361ZM360,144H361ZM360,145H361ZM360,146H361ZM360,147H361ZM360,148H361ZM159,149H160ZM360,149H361ZM360,150H361ZM69,170H70Z"
		stroke="rgb(0,0,0)"
		stroke-opacity="0.9411765"
		stroke-width="1" />
	<path
		d="M13,58H14ZM180,72H181ZM180,73H181ZM180,74H181ZM180,75H181ZM180,76H181ZM180,77H181ZM180,78H181ZM17,119H18ZM180,119H181Z"
		stroke="rgb(0,0,0)"
		stroke-opacity="0.8862745"
		stroke-width="1" />
	<path
		d="M24,58H25ZM189,130H190Z"
		stroke="rgb(0,0,0)"
		stroke-opacity="0.7372549"
		stroke-width="1" />
	<path
		d="M120,58H121ZM137,74H138ZM8,100H9ZM106,142H107ZM88,159H89Z"
		stroke="rgb(0,0,0)"
		stroke-opacity="0.26666668"
		stroke-width="1" />
	<path
		d="M132,58H133ZM6,82H7ZM297,136H298ZM62,164H63Z"
		stroke="rgb(0,0,0)"
		stroke-opacity="0.3647059"
		stroke-width="1" />
	<path
		d="M472,58H473ZM98,109H99Z"
		stroke="rgb(255,0,0)"
		stroke-opacity="0.6392157"
		stroke-width="1" />
	<path
		d="M479,58H480ZM55,84H56ZM74,92H75Z"
		stroke="rgb(255,0,0)"
		stroke-opacity="0.7607843"
		stroke-width="1" />
	<path
		d="M12,59H13ZM22,108H23ZM263,124H264ZM27,131H28Z"
		stroke="rgb(0,0,0)"
		stroke-opacity="0.21960784"
		stroke-width="1" />
	<path
		d="M121,59H122ZM91,136H92Z"
		stroke="rgb(0,0,0)"
		stroke-opacity="0.7529412"
		stroke-width="1" />
	<path
		d="M148,59H149ZM118,116H119ZM97,150H98ZM173,154H174Z"
		stroke="rgb(0,0,0)"
		stroke-opacity="0.8352941"
		stroke-width="1" />
	<path
		d="M12,60H13ZM124,64H125ZM360,79H361ZM181,82H182ZM56,137H57ZM54,156H55ZM84,162H85ZM81,165H82Z"
		stroke="rgb(0,0,0)"
		stroke-opacity="0.94509804"
		stroke-width="1" />
	<path
		d="M122,60H123ZM7,79H8ZM146,83H147ZM269,85H270ZM16,86H17ZM16,87H17ZM16,88H17ZM137,89H138ZM7,90H8ZM150,94H151ZM19,103H20ZM159,103H160ZM124,106H125ZM264,115H265ZM32,123H33ZM146,129H147ZM297,134H298ZM85,138H86ZM68,169H69Z"
		stroke="rgb(0,0,0)"
		stroke-opacity="0.98039216"
		stroke-width="1" />
	<path
		d="M133,60H134ZM148,92H149ZM158,149H159Z"
		stroke="rgb(0,0,0)"
		stroke-opacity="0.23921569"
		stroke-width="1" />
	<path
		d="M147,60H148ZM153,99H154ZM25,129H26ZM40,129H41Z"
		stroke="rgb(0,0,0)"
		stroke-opacity="0.23529412"
		stroke-width="1" />
	<path
		d="M11,61H12ZM6,80H7ZM166,107H167ZM90,136H91ZM295,140H296Z"
		stroke="rgb(0,0,0)"
		stroke-opacity="0.22352941"
		stroke-width="1" />
	<path
		d="M122,61H123ZM278,86H279ZM146,132H147ZM167,153H168Z"
		stroke="rgb(0,0,0)"
		stroke-opacity="0.4862745"
		stroke-width="1" />
	<path
		d="M147,61H148ZM136,99H137ZM160,104H161ZM131,113H132ZM151,142H152Z"
		stroke="rgb(0,0,0)"
		stroke-opacity="0.67058825"
		stroke-width="1" />
	<path
		d="M478,61H479Z"
		stroke="rgb(255,0,0)"
		stroke-opacity="0.8"
		stroke-width="1" />
	<path
		d="M11,62H12ZM19,102H20ZM122,126H123ZM118,130H119ZM116,132H117Z"
		stroke="rgb(0,0,0)"
		stroke-opacity="0.76862746"
		stroke-width="1" />
	<path
		d="M22,62H23ZM61,163H62Z"
		stroke="rgb(0,0,0)"
		stroke-opacity="0.36078432"
		stroke-width="1" />
	<path
		d="M147,62H148ZM152,97H153ZM293,97H294ZM125,103H126ZM165,106H166ZM75,139H76Z"
		stroke="rgb(0,0,0)"
		stroke-opacity="0.9372549"
		stroke-width="1" />
	<path
		d="M10,63H11ZM20,67H21ZM168,117H169ZM186,128H187ZM45,132H46ZM155,147H156ZM310,151H311Z"
		stroke="rgb(0,0,0)"
		stroke-opacity="0.08235294"
		stroke-width="1" />
	<path
		d="M21,63H22ZM137,79H138ZM146,84H147ZM17,96H18ZM156,101H157ZM33,124H34ZM51,153H52Z"
		stroke="rgb(0,0,0)"
		stroke-opacity="0.92941177"
		stroke-width="1" />
	<path
		d="M123,63H124ZM73,173H74Z"
		stroke="rgb(0,0,0)"
		stroke-opacity="0.34117648"
		stroke-width="1" />
	<path
		d="M134,63H135ZM292,95H293ZM87,137H88Z"
		stroke="rgb(0,0,0)"
		stroke-opacity="0.4627451"
		stroke-width="1" />
	<path
		d="M453,63H454ZM453,64H454ZM453,65H454ZM453,66H454ZM48,93H57ZM83,93H93Z"
		stroke="rgb(255,0,0)"
		stroke-opacity="0.20784314"
		stroke-width="1" />
	<path
		d="M10,64H11ZM75,171H76Z"
		stroke="rgb(0,0,0)"
		stroke-opacity="0.50980395"
		stroke-width="1" />
	<path
		d="M21,64H22ZM360,78H361Z"
		stroke="rgb(0,0,0)"
		stroke-opacity="0.31764707"
		stroke-width="1" />
	<path
		d="M20,65H21ZM137,80H138ZM180,80H181ZM271,85H272ZM153,98H154ZM24,113H25ZM263,113H264ZM116,119H117ZM260,129H261ZM33,136H34ZM92,136H93ZM279,152H280ZM169,153H170Z"
		stroke="rgb(0,0,0)"
		stroke-opacity="0.96862745"
		stroke-width="1" />
	<path
		d="M57,65H58Z"
		stroke="rgb(255,0,0)"
		stroke-opacity="0.5294118"
		stroke-width="1" />
	<path
		d="M69,65H70ZM77,79H78ZM77,80H78ZM77,81H78ZM77,82H78ZM77,83H78ZM77,84H78ZM77,85H78ZM77,86H78ZM77,87H78ZM77,88H78ZM77,89H78ZM77,90H78ZM77,91H78ZM102,116H103Z"
		stroke="rgb(255,0,0)"
		stroke-opacity="0.6901961"
		stroke-width="1" />
	<path
		d="M124,65H125ZM137,75H138ZM297,103H298ZM16,118H17ZM401,123H402Z"
		stroke="rgb(0,0,0)"
		stroke-opacity="0.48235294"
		stroke-width="1" />
	<path
		d="M135,65H136ZM182,82H183ZM164,117H165ZM299,130H300ZM153,145H154ZM274,154H275Z"
		stroke="rgb(0,0,0)"
		stroke-opacity="0.105882354"
		stroke-width="1" />
	<path
		d="M146,65H147ZM22,109H23ZM80,166H81Z"
		stroke="rgb(0,0,0)"
		stroke-opacity="0.8235294"
		stroke-width="1" />
	<path
		d="M9,66H10ZM351,68H399Z"
		stroke="rgb(0,0,0)"
		stroke-opacity="0.16862746"
		stroke-width="1" />
	<path
		d="M20,66H21ZM135,66H136ZM181,81H182Z"
		stroke="rgb(0,0,0)"
		stroke-opacity="0.47058824"
		stroke-width="1" />
	<path
		d="M184,66H185ZM7,91H8ZM108,127H109ZM69,139H70ZM100,147H101Z"
		stroke="rgb(0,0,0)"
		stroke-opacity="0.9529412"
		stroke-width="1" />
	<path
		d="M185,66H186ZM263,125H264Z"
		stroke="rgb(0,0,0)"
		stroke-opacity="0.7176471"
		stroke-width="1" />
	<path
		d="M186,66H187ZM259,129H260ZM51,135H52Z"
		stroke="rgb(0,0,0)"
		stroke-opacity="0.5137255"
		stroke-width="1" />
	<path
		d="M187,66H310ZM290,93H291ZM18,121H19Z"
		stroke="rgb(0,0,0)"
		stroke-opacity="0.49803922"
		stroke-width="1" />
	<path
		d="M310,66H311ZM112,123H113ZM282,151H283ZM78,168H79Z"
		stroke="rgb(0,0,0)"
		stroke-opacity="0.7137255"
		stroke-width="1" />
	<path
		d="M473,66H474Z"
		stroke="rgb(255,0,0)"
		stroke-opacity="0.39215687"
		stroke-width="1" />
	<path
		d="M9,67H10ZM7,94H8Z"
		stroke="rgb(0,0,0)"
		stroke-opacity="0.6666667"
		stroke-width="1" />
	<path
		d="M125,67H126ZM7,76H8ZM128,82H129ZM137,92H138ZM88,137H89ZM295,139H296Z"
		stroke="rgb(0,0,0)"
		stroke-opacity="0.83137256"
		stroke-width="1" />
	<path
		d="M184,67H185ZM287,90H288ZM299,108H300ZM359,151H360Z"
		stroke="rgb(0,0,0)"
		stroke-opacity="0.043137256"
		stroke-width="1" />
	<path
		d="M310,67H311ZM310,68H311ZM310,69H311ZM310,70H311ZM310,71H311ZM310,72H311ZM310,73H311ZM310,74H311ZM310,75H311ZM310,76H311ZM310,77H311ZM310,78H311ZM310,79H311ZM310,80H311ZM310,81H311ZM310,82H311ZM310,83H311ZM310,84H311ZM310,85H311ZM310,86H311ZM310,87H311ZM310,88H311ZM310,89H311ZM310,90H311ZM310,91H311ZM310,92H311ZM310,93H311ZM310,94H311ZM150,95H151ZM310,95H311ZM310,96H311ZM310,97H311ZM310,98H311ZM310,99H311ZM310,100H311ZM310,101H311ZM310,102H311ZM310,103H311ZM310,104H311ZM310,105H311ZM310,106H311ZM123,107H124ZM310,107H311ZM310,108H311ZM122,109H123ZM310,109H311ZM310,110H311ZM310,111H311ZM310,112H311ZM310,113H311ZM310,114H311ZM310,115H311ZM310,116H311ZM310,117H311ZM310,118H311ZM310,119H311ZM310,120H311ZM310,121H311ZM310,122H311ZM310,123H311ZM310,124H311ZM310,125H311ZM310,126H311ZM310,127H311ZM310,128H311ZM310,129H311ZM310,130H311ZM310,131H311ZM310,132H311ZM310,133H311ZM310,134H311ZM310,135H311ZM310,136H311ZM310,137H311ZM310,138H311ZM310,139H311ZM310,140H311ZM310,141H311ZM310,142H311ZM310,143H311ZM310,144H311ZM310,145H311ZM310,146H311ZM310,147H311ZM310,148H311ZM310,149H311Z"
		stroke="rgb(0,0,0)"
		stroke-opacity="0.44705883"
		stroke-width="1" />
	<path
		d="M399,67H400Z"
		stroke="rgb(0,0,0)"
		stroke-opacity="0.73333335"
		stroke-width="1" />
	<path
		d="M408,67H428ZM434,67H453ZM457,67H467Z"
		stroke="rgb(255,0,0)"
		stroke-opacity="0.57254905"
		stroke-width="1" />
	<path
		d="M428,67H429ZM68,106H69Z"
		stroke="rgb(255,0,0)"
		stroke-opacity="0.39607844"
		stroke-width="1" />
	<path
		d="M9,68H10ZM287,91H288ZM255,108H256ZM180,120H181ZM146,130H147ZM288,147H289Z"
		stroke="rgb(0,0,0)"
		stroke-opacity="0.9254902"
		stroke-width="1" />
	<path
		d="M19,68H20Z"
		stroke="rgb(0,0,0)"
		stroke-opacity="0.8156863"
		stroke-width="1" />
	<path
		d="M349,68H350Z"
		stroke="rgb(0,0,0)"
		stroke-opacity="0.6431373"
		stroke-width="1" />
	<path
		d="M399,68H400ZM126,72H127ZM52,135H53ZM85,162H86Z"
		stroke="rgb(0,0,0)"
		stroke-opacity="0.12156863"
		stroke-width="1" />
	<path
		d="M8,69H9ZM283,151H284Z"
		stroke="rgb(0,0,0)"
		stroke-opacity="0.14117648"
		stroke-width="1" />
	<path
		d="M136,69H137ZM160,117H164ZM166,153H167ZM65,167H66ZM66,168H67Z"
		stroke="rgb(0,0,0)"
		stroke-opacity="0.14901961"
		stroke-width="1" />
	<path
		d="M181,69H182ZM151,96H152ZM38,128H39ZM120,128H121Z"
		stroke="rgb(0,0,0)"
		stroke-opacity="0.7647059"
		stroke-width="1" />
	<path
		d="M349,69H350ZM349,70H350ZM349,71H350ZM349,72H350ZM349,73H350ZM349,74H350ZM349,75H350ZM349,76H350ZM349,77H350ZM349,78H350ZM349,79H350ZM349,80H350ZM349,81H350ZM349,82H350ZM349,83H350ZM349,84H350ZM349,85H350ZM349,86H350ZM349,87H350ZM349,88H350ZM349,89H350ZM349,90H350ZM349,91H350ZM349,92H350ZM349,93H350ZM349,94H350ZM349,95H350ZM349,96H350ZM349,97H350ZM349,98H350ZM349,99H350ZM349,100H350ZM349,101H350ZM349,102H350ZM349,103H350ZM349,104H350ZM349,105H350ZM349,106H350ZM349,107H350ZM349,108H350ZM349,109H350ZM349,110H350ZM349,111H350ZM349,112H350ZM349,113H350ZM349,114H350ZM349,115H350ZM349,116H350ZM349,117H350ZM349,118H350ZM349,119H350ZM349,120H350ZM349,121H350ZM349,122H350ZM349,123H350ZM349,124H350ZM349,125H350ZM349,126H350ZM349,127H350ZM349,128H350ZM349,129H350ZM349,130H350ZM349,131H350ZM349,132H350ZM349,133H350ZM349,134H350ZM349,135H350ZM349,136H350ZM349,137H350ZM349,138H350ZM349,139H350ZM349,140H350ZM349,141H350ZM349,142H350ZM349,143H350ZM349,144H350ZM349,145H350ZM349,146H350ZM349,147H350ZM349,148H350ZM349,149H350ZM349,150H350ZM93,154H94Z"
		stroke="rgb(0,0,0)"
		stroke-opacity="0.5803922"
		stroke-width="1" />
	<path
		d="M8,70H9Z"
		stroke="rgb(0,0,0)"
		stroke-opacity="0.42352942"
		stroke-width="1" />
	<path
		d="M126,70H127ZM137,93H138Z"
		stroke="rgb(0,0,0)"
		stroke-opacity="0.7411765"
		stroke-width="1" />
	<path
		d="M136,70H137Z"
		stroke="rgb(0,0,0)"
		stroke-opacity="0.5254902"
		stroke-width="1" />
	<path
		d="M8,71H9ZM173,108H174ZM110,125H111Z"
		stroke="rgb(0,0,0)"
		stroke-opacity="0.80784315"
		stroke-width="1" />
	<path
		d="M18,71H19ZM128,81H129ZM53,136H54Z"
		stroke="rgb(0,0,0)"
		stroke-opacity="0.8980392"
		stroke-width="1" />
	<path
		d="M126,71H127ZM281,87H282ZM13,113H14ZM296,138H297Z"
		stroke="rgb(0,0,0)"
		stroke-opacity="0.35686275"
		stroke-width="1" />
	<path
		d="M136,71H137ZM71,139H72Z"
		stroke="rgb(0,0,0)"
		stroke-opacity="0.8901961"
		stroke-width="1" />
	<path
		d="M18,72H19ZM187,129H188Z"
		stroke="rgb(0,0,0)"
		stroke-opacity="0.49411765"
		stroke-width="1" />
	<path
		d="M137,73H138ZM181,80H182ZM10,107H11ZM27,116H28Z"
		stroke="rgb(0,0,0)"
		stroke-opacity="0.0627451"
		stroke-width="1" />
	<path
		d="M127,74H128ZM294,98H295ZM25,114H26Z"
		stroke="rgb(0,0,0)"
		stroke-opacity="0.84313726"
		stroke-width="1" />
	<path
		d="M7,75H8ZM28,118H29ZM124,124H125Z"
		stroke="rgb(0,0,0)"
		stroke-opacity="0.6156863"
		stroke-width="1" />
	<path
		d="M127,75H128ZM135,103H136ZM172,154H173Z"
		stroke="rgb(0,0,0)"
		stroke-opacity="0.5882353"
		stroke-width="1" />
	<path
		d="M17,76H18ZM264,122H265ZM146,131H147Z"
		stroke="rgb(0,0,0)"
		stroke-opacity="0.78431374"
		stroke-width="1" />
	<path
		d="M127,76H128ZM18,98H19ZM151,117H152Z"
		stroke="rgb(0,0,0)"
		stroke-opacity="0.3019608"
		stroke-width="1" />
	<path
		d="M137,76H138ZM128,89H129Z"
		stroke="rgb(0,0,0)"
		stroke-opacity="0.68235296"
		stroke-width="1" />
	<path
		d="M17,77H18Z"
		stroke="rgb(0,0,0)"
		stroke-opacity="0.59607846"
		stroke-width="1" />
	<path
		d="M127,77H128ZM6,90H7ZM127,94H128ZM152,98H153Z"
		stroke="rgb(0,0,0)"
		stroke-opacity="0.09019608"
		stroke-width="1" />
	<path
		d="M137,77H138ZM168,153H169Z"
		stroke="rgb(0,0,0)"
		stroke-opacity="0.8"
		stroke-width="1" />
	<path
		d="M17,78H18Z"
		stroke="rgb(0,0,0)"
		stroke-opacity="0.38431373"
		stroke-width="1" />
	<path
		d="M66,78H67ZM66,79H67ZM66,80H67ZM66,81H67ZM66,82H67ZM66,83H67ZM66,84H67ZM66,85H67ZM66,86H67ZM66,87H67ZM66,88H67ZM66,89H67ZM66,90H67ZM66,91H67Z"
		stroke="rgb(255,0,0)"
		stroke-opacity="0.3529412"
		stroke-width="1" />
	<path
		d="M68,78H69ZM71,78H72ZM68,79H69ZM71,79H72ZM68,80H69ZM71,80H72ZM68,81H69ZM71,81H72ZM68,82H69ZM71,82H72ZM68,83H69ZM71,83H72ZM68,84H69ZM71,84H72ZM68,85H69ZM71,85H72ZM68,86H69ZM71,86H72ZM68,87H69ZM71,87H72ZM68,88H69ZM71,88H72ZM68,89H69ZM71,89H72ZM68,90H69ZM71,90H72ZM68,91H69ZM71,91H72Z"
		stroke="rgb(255,0,0)"
		stroke-opacity="0.73333335"
		stroke-width="1" />
	<path
		d="M77,78H78Z"
		stroke="rgb(255,0,0)"
		stroke-opacity="0.69411767"
		stroke-width="1" />
	<path
		d="M80,78H81ZM92,82H93Z"
		stroke="rgb(255,0,0)"
		stroke-opacity="0.6313726"
		stroke-width="1" />
	<path
		d="M137,78H138ZM264,116H265ZM114,121H115Z"
		stroke="rgb(0,0,0)"
		stroke-opacity="0.8666667"
		stroke-width="1" />
	<path
		d="M400,78H401ZM45,148H46Z"
		stroke="rgb(0,0,0)"
		stroke-opacity="0.33333334"
		stroke-width="1" />
	<path
		d="M401,78H402ZM29,133H30Z"
		stroke="rgb(0,0,0)"
		stroke-opacity="0.17254902"
		stroke-width="1" />
	<path
		d="M17,79H18ZM157,117H159Z"
		stroke="rgb(0,0,0)"
		stroke-opacity="0.20392157"
		stroke-width="1" />
	<path
		d="M401,79H402ZM401,80H402ZM401,81H402ZM401,82H402ZM401,83H402ZM401,84H402ZM401,85H402ZM401,86H402ZM401,87H402ZM401,88H402ZM401,89H402ZM401,90H402ZM401,91H402ZM401,92H402ZM401,93H402ZM401,94H402ZM401,95H402ZM401,96H402ZM401,97H402ZM401,98H402ZM401,99H402ZM401,100H402ZM401,101H402ZM401,102H402ZM401,103H402ZM401,104H402ZM401,105H402ZM401,106H402ZM401,107H402ZM401,108H402ZM401,109H402ZM401,110H402ZM401,111H402ZM401,112H402ZM401,113H402ZM401,114H402ZM401,115H402ZM401,116H402ZM401,117H402ZM401,118H402ZM401,119H402ZM401,120H402ZM401,121H402ZM401,122H402Z"
		stroke="rgb(0,0,0)"
		stroke-opacity="0.49019608"
		stroke-width="1" />
	<path
		d="M17,80H18ZM17,92H18ZM8,101H9ZM256,109H257ZM298,134H299Z"
		stroke="rgb(0,0,0)"
		stroke-opacity="0.07450981"
		stroke-width="1" />
	<path
		d="M128,80H129ZM292,143H293ZM291,144H292ZM154,145H155ZM161,150H162ZM49,151H50Z"
		stroke="rgb(0,0,0)"
		stroke-opacity="0.972549"
		stroke-width="1" />
	<path
		d="M47,82H48ZM92,104H93Z"
		stroke="rgb(255,0,0)"
		stroke-opacity="0.31764707"
		stroke-width="1" />
	<path
		d="M6,83H7ZM6,84H7ZM6,85H7ZM6,86H7Z"
		stroke="rgb(0,0,0)"
		stroke-opacity="0.37254903"
		stroke-width="1" />
	<path
		d="M128,83H129ZM127,96H128ZM119,129H120ZM102,131H103ZM287,148H288ZM95,152H96Z"
		stroke="rgb(0,0,0)"
		stroke-opacity="0.75686276"
		stroke-width="1" />
	<path
		d="M128,84H129ZM134,106H135ZM130,115H131ZM57,159H58Z"
		stroke="rgb(0,0,0)"
		stroke-opacity="0.6862745"
		stroke-width="1" />
	<path
		d="M184,84H185Z"
		stroke="rgb(0,0,0)"
		stroke-opacity="0.5686275"
		stroke-width="1" />
	<path
		d="M186,84H187ZM134,107H135ZM120,112H121ZM32,122H33ZM101,147H102Z"
		stroke="rgb(0,0,0)"
		stroke-opacity="0.05490196"
		stroke-width="1" />
	<path
		d="M274,85H275ZM111,137H112ZM164,152H165Z"
		stroke="rgb(0,0,0)"
		stroke-opacity="0.5019608"
		stroke-width="1" />
	<path
		d="M275,85H276ZM47,133H48ZM48,151H49ZM87,160H88Z"
		stroke="rgb(0,0,0)"
		stroke-opacity="0.20784314"
		stroke-width="1" />
	<path
		d="M128,86H129ZM128,87H129ZM128,88H129ZM147,89H148ZM280,152H281Z"
		stroke="rgb(0,0,0)"
		stroke-opacity="0.62352943"
		stroke-width="1" />
	<path
		d="M146,86H147Z"
		stroke="rgb(0,0,0)"
		stroke-opacity="0.5176471"
		stroke-width="1" />
	<path
		d="M279,86H280ZM124,104H125ZM154,146H155Z"
		stroke="rgb(0,0,0)"
		stroke-opacity="0.13725491"
		stroke-width="1" />
	<path
		d="M6,87H7Z"
		stroke="rgb(0,0,0)"
		stroke-opacity="0.3529412"
		stroke-width="1" />
	<path
		d="M146,87H147Z"
		stroke="rgb(0,0,0)"
		stroke-opacity="0.22745098"
		stroke-width="1" />
	<path
		d="M6,88H7ZM119,114H120ZM22,126H23Z"
		stroke="rgb(0,0,0)"
		stroke-opacity="0.29803923"
		stroke-width="1" />
	<path
		d="M146,88H147ZM156,102H157ZM118,115H119ZM288,148H289ZM71,173H72Z"
		stroke="rgb(0,0,0)"
		stroke-opacity="0.039215688"
		stroke-width="1" />
	<path
		d="M283,88H284Z"
		stroke="rgb(0,0,0)"
		stroke-opacity="0.39607844"
		stroke-width="1" />
	<path
		d="M285,89H286ZM89,158H90Z"
		stroke="rgb(0,0,0)"
		stroke-opacity="0.28235295"
		stroke-width="1" />
	<path
		d="M128,90H129ZM46,133H47Z"
		stroke="rgb(0,0,0)"
		stroke-opacity="0.7882353"
		stroke-width="1" />
	<path
		d="M147,90H148ZM86,137H87ZM311,151H349Z"
		stroke="rgb(0,0,0)"
		stroke-opacity="0.18431373"
		stroke-width="1" />
	<path
		d="M286,90H287Z"
		stroke="rgb(0,0,0)"
		stroke-opacity="0.7019608"
		stroke-width="1" />
	<path
		d="M148,91H149ZM149,93H150ZM18,99H19Z"
		stroke="rgb(0,0,0)"
		stroke-opacity="0.77254903"
		stroke-width="1" />
	<path
		d="M288,91H289ZM292,144H293ZM47,150H48Z"
		stroke="rgb(0,0,0)"
		stroke-opacity="0.21176471"
		stroke-width="1" />
	<path
		d="M7,92H8ZM153,144H154ZM489,151H490ZM71,172H72Z"
		stroke="rgb(0,0,0)"
		stroke-opacity="0.9137255"
		stroke-width="1" />
	<path
		d="M68,92H69Z"
		stroke="rgb(255,0,0)"
		stroke-opacity="0.64705884"
		stroke-width="1" />
	<path
		d="M289,92H290ZM295,99H296ZM147,117H148Z"
		stroke="rgb(0,0,0)"
		stroke-opacity="0.3764706"
		stroke-width="1" />
	<path
		d="M7,93H8ZM180,118H181Z"
		stroke="rgb(0,0,0)"
		stroke-opacity="0.84705883"
		stroke-width="1" />
	<path
		d="M17,93H18ZM299,110H300Z"
		stroke="rgb(0,0,0)"
		stroke-opacity="0.27058825"
		stroke-width="1" />
	<path
		d="M17,94H18ZM296,101H297Z"
		stroke="rgb(0,0,0)"
		stroke-opacity="0.5294118"
		stroke-width="1" />
	<path
		d="M47,94H48ZM47,95H48ZM47,96H48ZM47,97H48Z"
		stroke="rgb(255,0,0)"
		stroke-opacity="0.8666667"
		stroke-width="1" />
	<path
		d="M137,94H138ZM98,133H99ZM112,136H113Z"
		stroke="rgb(0,0,0)"
		stroke-opacity="0.56078434"
		stroke-width="1" />
	<path
		d="M149,94H150ZM30,134H31ZM161,151H162ZM49,152H50ZM68,170H69Z"
		stroke="rgb(0,0,0)"
		stroke-opacity="0.08627451"
		stroke-width="1" />
	<path
		d="M291,94H292ZM9,103H10Z"
		stroke="rgb(0,0,0)"
		stroke-opacity="0.54509807"
		stroke-width="1" />
	<path
		d="M7,95H8ZM299,128H300Z"
		stroke="rgb(0,0,0)"
		stroke-opacity="0.3882353"
		stroke-width="1" />
	<path
		d="M17,95H18ZM19,122H20ZM185,128H186Z"
		stroke="rgb(0,0,0)"
		stroke-opacity="0.78039217"
		stroke-width="1" />
	<path
		d="M127,95H128ZM20,104H21ZM273,154H274Z"
		stroke="rgb(0,0,0)"
		stroke-opacity="0.4"
		stroke-width="1" />
	<path
		d="M7,96H8ZM181,121H182ZM107,127H108ZM80,138H81ZM349,151H350Z"
		stroke="rgb(0,0,0)"
		stroke-opacity="0.11764706"
		stroke-width="1" />
	<path
		d="M75,96H76Z"
		stroke="rgb(255,0,0)"
		stroke-opacity="0.7176471"
		stroke-width="1" />
	<path
		d="M18,97H19ZM9,104H10ZM159,104H160ZM101,131H102ZM33,137H34ZM69,171H70Z"
		stroke="rgb(0,0,0)"
		stroke-opacity="0.078431375"
		stroke-width="1" />
	<path
		d="M126,98H127ZM293,143H294Z"
		stroke="rgb(0,0,0)"
		stroke-opacity="0.11372549"
		stroke-width="1" />
	<path
		d="M8,99H9ZM257,130H258Z"
		stroke="rgb(0,0,0)"
		stroke-opacity="0.627451"
		stroke-width="1" />
	<path
		d="M126,99H127Z"
		stroke="rgb(0,0,0)"
		stroke-opacity="0.38039216"
		stroke-width="1" />
	<path
		d="M126,100H127ZM162,105H163ZM298,107H299ZM94,135H95ZM297,135H298Z"
		stroke="rgb(0,0,0)"
		stroke-opacity="0.7921569"
		stroke-width="1" />
	<path
		d="M136,100H137ZM290,146H291Z"
		stroke="rgb(0,0,0)"
		stroke-opacity="0.24705882"
		stroke-width="1" />
	<path
		d="M19,101H20ZM12,111H13ZM262,126H263ZM256,130H257Z"
		stroke="rgb(0,0,0)"
		stroke-opacity="0.24313726"
		stroke-width="1" />
	<path
		d="M158,103H159ZM26,115H27ZM171,154H172Z"
		stroke="rgb(0,0,0)"
		stroke-opacity="0.34901962"
		stroke-width="1" />
	<path
		d="M135,104H136ZM11,109H12ZM156,117H157ZM159,117H160ZM28,132H29ZM278,153H279Z"
		stroke="rgb(0,0,0)"
		stroke-opacity="0.2"
		stroke-width="1" />
	<path
		d="M297,104H298ZM27,117H28ZM98,149H99ZM72,173H73Z"
		stroke="rgb(0,0,0)"
		stroke-opacity="0.8627451"
		stroke-width="1" />
	<path
		d="M44,105H45ZM67,115H68Z"
		stroke="rgb(255,0,0)"
		stroke-opacity="0.5647059"
		stroke-width="1" />
	<path
		d="M124,105H125ZM127,120H128ZM184,127H185ZM162,151H163ZM76,170H77Z"
		stroke="rgb(0,0,0)"
		stroke-opacity="0.60784316"
		stroke-width="1" />
	<path
		d="M298,105H299ZM163,106H164ZM31,135H32Z"
		stroke="rgb(0,0,0)"
		stroke-opacity="0.12941177"
		stroke-width="1" />
	<path
		d="M10,106H11ZM133,109H134ZM106,128H107Z"
		stroke="rgb(0,0,0)"
		stroke-opacity="0.40392157"
		stroke-width="1" />
	<path
		d="M21,106H22ZM146,133H147Z"
		stroke="rgb(0,0,0)"
		stroke-opacity="0.19607843"
		stroke-width="1" />
	<path
		d="M164,106H165ZM57,137H58ZM58,160H59Z"
		stroke="rgb(0,0,0)"
		stroke-opacity="0.63529414"
		stroke-width="1" />
	<path
		d="M298,106H299ZM129,117H130Z"
		stroke="rgb(0,0,0)"
		stroke-opacity="0.43529412"
		stroke-width="1" />
	<path
		d="M167,107H168Z"
		stroke="rgb(0,0,0)"
		stroke-opacity="0.64705884"
		stroke-width="1" />
	<path
		d="M168,107H169ZM298,131H299ZM150,140H151ZM270,154H271Z"
		stroke="rgb(0,0,0)"
		stroke-opacity="0.9607843"
		stroke-width="1" />
	<path
		d="M171,108H172Z"
		stroke="rgb(0,0,0)"
		stroke-opacity="0.4745098"
		stroke-width="1" />
	<path
		d="M172,108H173Z"
		stroke="rgb(0,0,0)"
		stroke-opacity="0.6745098"
		stroke-width="1" />
	<path
		d="M175,108H255ZM182,125H183ZM44,132H45ZM73,139H74ZM53,155H54Z"
		stroke="rgb(0,0,0)"
		stroke-opacity="0.88235295"
		stroke-width="1" />
	<path
		d="M257,109H258ZM152,117H155Z"
		stroke="rgb(0,0,0)"
		stroke-opacity="0.25882354"
		stroke-width="1" />
	<path
		d="M258,109H259ZM120,113H121ZM105,129H106Z"
		stroke="rgb(0,0,0)"
		stroke-opacity="0.79607844"
		stroke-width="1" />
	<path
		d="M259,110H260ZM116,118H117ZM21,125H22ZM289,147H290ZM86,161H87Z"
		stroke="rgb(0,0,0)"
		stroke-opacity="0.16078432"
		stroke-width="1" />
	<path
		d="M260,110H261ZM271,154H272Z"
		stroke="rgb(0,0,0)"
		stroke-opacity="0.8745098"
		stroke-width="1" />
	<path
		d="M121,111H122ZM277,153H278Z"
		stroke="rgb(0,0,0)"
		stroke-opacity="0.5372549"
		stroke-width="1" />
	<path
		d="M132,111H133ZM298,132H299Z"
		stroke="rgb(0,0,0)"
		stroke-opacity="0.7058824"
		stroke-width="1" />
	<path
		d="M260,111H261ZM104,129H105ZM42,130H43ZM97,133H98ZM55,136H56ZM103,145H104ZM285,150H286Z"
		stroke="rgb(0,0,0)"
		stroke-opacity="0.03529412"
		stroke-width="1" />
	<path
		d="M299,111H300ZM110,138H111Z"
		stroke="rgb(0,0,0)"
		stroke-opacity="0.41568628"
		stroke-width="1" />
	<path
		d="M24,112H25ZM63,138H64ZM44,147H45Z"
		stroke="rgb(0,0,0)"
		stroke-opacity="0.41960785"
		stroke-width="1" />
	<path
		d="M262,112H263ZM55,157H56ZM79,167H80Z"
		stroke="rgb(0,0,0)"
		stroke-opacity="0.8117647"
		stroke-width="1" />
	<path
		d="M299,112H300ZM299,113H300ZM299,114H300ZM299,115H300ZM299,116H300ZM299,117H300ZM299,118H300ZM299,119H300ZM299,120H300ZM299,121H300ZM299,122H300ZM299,123H300ZM299,124H300ZM299,125H300ZM299,126H300Z"
		stroke="rgb(0,0,0)"
		stroke-opacity="0.46666667"
		stroke-width="1" />
	<path
		d="M51,113H52Z"
		stroke="rgb(255,0,0)"
		stroke-opacity="0.7254902"
		stroke-width="1" />
	<path
		d="M131,114H132Z"
		stroke="rgb(0,0,0)"
		stroke-opacity="0.09803922"
		stroke-width="1" />
	<path
		d="M263,114H264ZM42,145H43Z"
		stroke="rgb(0,0,0)"
		stroke-opacity="0.54901963"
		stroke-width="1" />
	<path
		d="M14,115H15ZM49,134H50Z"
		stroke="rgb(0,0,0)"
		stroke-opacity="0.18039216"
		stroke-width="1" />
	<path
		d="M62,115H63Z"
		stroke="rgb(255,0,0)"
		stroke-opacity="0.7137255"
		stroke-width="1" />
	<path
		d="M15,117H16ZM31,121H32ZM102,146H103Z"
		stroke="rgb(0,0,0)"
		stroke-opacity="0.10980392"
		stroke-width="1" />
	<path
		d="M73,117H74Z"
		stroke="rgb(255,0,0)"
		stroke-opacity="0.4745098"
		stroke-width="1" />
	<path
		d="M117,117H118ZM74,172H75Z"
		stroke="rgb(0,0,0)"
		stroke-opacity="0.4117647"
		stroke-width="1" />
	<path
		d="M146,117H147ZM91,156H92Z"
		stroke="rgb(0,0,0)"
		stroke-opacity="0.45490196"
		stroke-width="1" />
	<path
		d="M165,117H168ZM192,130H193ZM50,153H51ZM67,169H68Z"
		stroke="rgb(0,0,0)"
		stroke-opacity="0.09411765"
		stroke-width="1" />
	<path
		d="M30,120H31Z"
		stroke="rgb(0,0,0)"
		stroke-opacity="0.1882353"
		stroke-width="1" />
	<path
		d="M91,120H92Z"
		stroke="rgb(255,0,0)"
		stroke-opacity="0.7058824"
		stroke-width="1" />
	<path
		d="M113,122H114Z"
		stroke="rgb(0,0,0)"
		stroke-opacity="0.6901961"
		stroke-width="1" />
	<path
		d="M181,122H182ZM90,157H91Z"
		stroke="rgb(0,0,0)"
		stroke-opacity="0.43137255"
		stroke-width="1" />
	<path
		d="M181,123H182Z"
		stroke="rgb(0,0,0)"
		stroke-opacity="0.85490197"
		stroke-width="1" />
	<path
		d="M20,124H21Z"
		stroke="rgb(0,0,0)"
		stroke-opacity="0.14509805"
		stroke-width="1" />
	<path
		d="M183,126H184ZM157,148H158Z"
		stroke="rgb(0,0,0)"
		stroke-opacity="0.6117647"
		stroke-width="1" />
	<path
		d="M37,127H38Z"
		stroke="rgb(0,0,0)"
		stroke-opacity="0.52156866"
		stroke-width="1" />
	<path
		d="M121,127H122Z"
		stroke="rgb(0,0,0)"
		stroke-opacity="0.827451"
		stroke-width="1" />
	<path
		d="M299,127H300ZM54,136H55Z"
		stroke="rgb(0,0,0)"
		stroke-opacity="0.45882353"
		stroke-width="1" />
	<path
		d="M24,128H25Z"
		stroke="rgb(0,0,0)"
		stroke-opacity="0.30588236"
		stroke-width="1" />
	<path
		d="M299,129H300ZM63,165H64Z"
		stroke="rgb(0,0,0)"
		stroke-opacity="0.23137255"
		stroke-width="1" />
	<path
		d="M41,130H42ZM272,154H273Z"
		stroke="rgb(0,0,0)"
		stroke-opacity="0.65882355"
		stroke-width="1" />
	<path
		d="M190,130H191ZM109,139H110ZM150,141H151Z"
		stroke="rgb(0,0,0)"
		stroke-opacity="0.36862746"
		stroke-width="1" />
	<path
		d="M117,131H118ZM40,143H41Z"
		stroke="rgb(0,0,0)"
		stroke-opacity="0.70980394"
		stroke-width="1" />
	<path
		d="M115,133H116ZM294,141H295Z"
		stroke="rgb(0,0,0)"
		stroke-opacity="0.61960787"
		stroke-width="1" />
	<path
		d="M96,134H97Z"
		stroke="rgb(0,0,0)"
		stroke-opacity="0.6509804"
		stroke-width="1" />
	<path
		d="M113,135H114ZM82,138H83Z"
		stroke="rgb(0,0,0)"
		stroke-opacity="0.5529412"
		stroke-width="1" />
	<path
		d="M58,137H59ZM46,149H47Z"
		stroke="rgb(0,0,0)"
		stroke-opacity="0.2784314"
		stroke-width="1" />
	<path
		d="M81,138H82Z"
		stroke="rgb(0,0,0)"
		stroke-opacity="0.30980393"
		stroke-width="1" />
	<path
		d="M37,140H38Z"
		stroke="rgb(0,0,0)"
		stroke-opacity="0.81960785"
		stroke-width="1" />
	<path
		d="M41,144H42Z"
		stroke="rgb(0,0,0)"
		stroke-opacity="0.6"
		stroke-width="1" />
	<path
		d="M160,150H161ZM59,161H60Z"
		stroke="rgb(0,0,0)"
		stroke-opacity="0.5764706"
		stroke-width="1" />
	<path
		d="M284,150H285Z"
		stroke="rgb(0,0,0)"
		stroke-opacity="0.69411767"
		stroke-width="1" />
	<path
		d="M310,150H311Z"
		stroke="rgb(0,0,0)"
		stroke-opacity="0.4509804"
		stroke-width="1" />
	<path
		d="M94,153H95ZM77,169H78Z"
		stroke="rgb(0,0,0)"
		stroke-opacity="0.654902"
		stroke-width="1" />
</svg>