<svg width="31" height="20" viewBox="0 0 31 20" fill="none" xmlns="http://www.w3.org/2000/svg">
<path d="M22.1443 9.26758V15.9084L20.0383 17.1246L15.0556 19.9998L10.0714 17.1246L7.96533 15.9084V9.26758L12.9496 12.1444L15.0556 13.359L17.1617 12.1444L22.1443 9.26758Z" fill="#f0324c"/>
<path d="M14.179 4.09141V10.7322L9.19633 7.85702L7.09029 6.64083L4.98425 7.85702L0 10.7322V4.09141L2.10604 2.8768L7.09029 0L12.073 2.8768L14.179 4.09141Z" fill="white"/>
<path d="M30.1097 4.09141V10.7322L25.127 7.85702L23.021 6.64083L20.9133 7.85702L15.9307 10.7322V4.09141L18.0367 2.8768L23.021 0L28.0036 2.8768L30.1097 4.09141Z" fill="white"/>
</svg>
