<svg width="157" height="20" viewBox="0 0 157 20" fill="none" xmlns="http://www.w3.org/2000/svg">
<path d="M22.1443 9.26758V15.9084L20.0383 17.1246L15.0556 19.9998L10.0714 17.1246L7.96533 15.9084V9.26758L12.9496 12.1444L15.0556 13.359L17.1617 12.1444L22.1443 9.26758Z" fill="#6683AE"/>
<path d="M14.179 4.09141V10.7322L9.19633 7.85702L7.09029 6.64083L4.98425 7.85702L0 10.7322V4.09141L2.10604 2.8768L7.09029 0L12.073 2.8768L14.179 4.09141Z" fill="white"/>
<path d="M30.1097 4.09141V10.7322L25.127 7.85702L23.021 6.64083L20.9133 7.85702L15.9307 10.7322V4.09141L18.0367 2.8768L23.021 0L28.0036 2.8768L30.1097 4.09141Z" fill="white"/>
<path d="M45 18.815H59.0588V15.0084H49.7984V11.7817H57.0838V7.97022H49.7984V4.99218H59.0588V1.18555H45V18.815Z" fill="white"/>
<path d="M66.9637 1.18555H62.1653V18.815H75.9753V15.0084H66.9637V1.18555Z" fill="white"/>
<path d="M92.9988 2.68188C92.0235 1.70707 90.5362 1.18555 88.6393 1.18555H78.8328V18.815H88.6393C90.5362 18.815 92.004 18.3276 92.9988 17.3187C93.9936 16.3097 94.4959 14.8816 94.4959 12.9613V7.03928C94.4959 5.1384 93.9887 3.67131 92.9988 2.68188ZM89.6975 12.9613C89.6975 14.3357 89.0294 15.0084 87.6494 15.0084H83.6312V4.99218H87.6494C89.0294 4.99218 89.6975 5.65992 89.6975 7.03928V12.9613Z" fill="white"/>
</svg>
