<svg width="119" height="18" viewBox="0 0 119 18" fill="none" xmlns="http://www.w3.org/2000/svg">
<path d="M0.712402 3.99218H5.89605V17.815H10.6945V3.99218H15.883V0.185547H0.712402V3.99218Z" fill="#000"/>
<path d="M28.547 9.12455L23.7096 0.185547H18.7405V17.815H23.534V8.69076L26.7134 14.3593H30.3757L33.5551 8.69076V17.815H38.3535V0.185547H33.3795L28.547 9.12455Z" fill="#000"/>
<path d="M53.0364 0.185547L49.1841 6.97022H47.2432V0.185547H42.4448V17.815H47.2432V10.7817H49.1841L53.0121 17.815H58.1031L53.1925 8.87598L58.1323 0.185547H53.0364Z" fill="#000"/>
<path d="M69.5042 17.815H83.5629V14.0084H74.3026V10.7817H81.588V6.97022H74.3026V3.99218H83.5629V0.185547H69.5042V17.815Z" fill="#000"/>
<path d="M91.4678 0.185547H86.6694V17.815H100.479V14.0084H91.4678V0.185547Z" fill="#000"/>
<path d="M117.503 1.68188C116.528 0.707066 115.04 0.185547 113.143 0.185547H103.337V17.815H113.143C115.04 17.815 116.508 17.3276 117.503 16.3187C118.498 15.3097 119 13.8816 119 11.9613V6.03928C119 4.1384 118.493 2.67131 117.503 1.68188ZM114.202 11.9613C114.202 13.3357 113.534 14.0084 112.154 14.0084H108.135V3.99218H112.154C113.534 3.99218 114.202 4.65992 114.202 6.03928V11.9613Z" fill="#000"/>
</svg>
