<svg width="5


53" height="63" viewBox="0 0 553 63" fill="none" xmlns="http://www.w3.org/2000/svg">
<path d="M130.75 5.55289C130.75 4.72328 130.75 4.30847 130.803 3.96113C131.109 1.96071 132.678 0.390822 134.679 0.0852796C135.026 0.0322266 135.441 0.0322266 136.271 0.0322266H296.419C308.635 0.0322266 314.743 0.0322266 318.538 3.82734C322.333 7.62245 322.333 13.7306 322.333 25.9469V37.0531C322.333 49.2694 322.333 55.3776 318.538 59.1727C314.743 62.9678 308.635 62.9678 296.419 62.9678H188.165C179.537 62.9678 175.223 62.9678 171.611 62.416C150.806 59.2384 134.479 42.9116 131.302 22.1072C130.75 18.4949 130.75 14.1809 130.75 5.55289Z" fill="#F80638"/>
<path d="M360.401 36.9051C360.401 39.2745 360.03 41.0515 359.29 42.2362C358.55 43.4208 357.059 44.0132 354.82 44.0132H339.798C338.281 44.0132 337.087 43.5689 336.217 42.6804C335.365 41.7919 334.939 40.5795 334.939 39.0431V6.33512L335.328 5.9464H359.04C359.17 6.57576 359.253 7.16809 359.29 7.72341C359.327 8.27872 359.345 8.79701 359.345 9.27829C359.345 9.75956 359.281 10.3519 359.151 11.0553C359.04 11.7402 358.873 12.4066 358.651 13.0544H347.045C346.157 13.0544 344.898 13.0359 343.269 12.9989C343.269 13.7578 343.278 14.4334 343.297 15.0258C343.315 15.5996 343.325 16.2567 343.325 16.9971V21.3841C344.047 21.3841 344.75 21.3841 345.435 21.3841C346.12 21.3656 346.657 21.3564 347.045 21.3564H355.791C355.958 21.8747 356.078 22.467 356.152 23.1334C356.245 23.7812 356.291 24.3365 356.291 24.7993C356.291 25.2806 356.245 25.8451 356.152 26.493C356.078 27.1224 355.958 27.7054 355.791 28.2423H347.045C346.657 28.2423 346.12 28.2423 345.435 28.2423C344.75 28.2423 344.047 28.233 343.325 28.2145V33.1568C343.325 33.8417 343.315 34.471 343.297 35.0448C343.278 35.6187 343.269 36.2665 343.269 36.9884V37.0162C343.899 36.9977 344.537 36.9792 345.185 36.9607C345.851 36.9237 346.564 36.9051 347.323 36.9051H360.401Z" fill="#373F4A"/>
<path d="M388.542 36.7108C388.542 39.4133 388.107 41.3106 387.237 42.4028C386.367 43.4764 384.886 44.0132 382.794 44.0132H369.967C368.467 44.0132 367.273 43.5782 366.385 42.7082C365.496 41.8197 365.052 40.598 365.052 39.0431V5.97417L365.441 5.58545H368.551C370.198 5.58545 371.438 6.01119 372.271 6.86267C373.123 7.71415 373.549 9.08393 373.549 10.972V36.9051C375.344 36.7756 377.066 36.7108 378.713 36.7108H388.542Z" fill="#373F4A"/>
<path d="M422.75 24.8826C422.75 27.0483 422.602 29.14 422.306 31.1576C422.009 33.1568 421.417 35.0263 420.529 36.7663C419.659 38.4878 418.344 40.0334 416.586 41.4032C415.734 42.0696 414.707 42.6064 413.504 43.0136C412.319 43.4208 411.097 43.717 409.839 43.9021C408.599 44.0872 407.469 44.1798 406.451 44.1798C404.082 44.1798 401.805 44.152 399.621 44.0965C397.437 44.0594 395.141 44.0132 392.735 43.9576L392.346 43.5967V6.22406L392.735 5.86311C395.123 5.77055 397.409 5.71502 399.593 5.69651C401.796 5.65949 404.082 5.64098 406.451 5.64098C407.469 5.64098 408.608 5.73353 409.866 5.91864C411.125 6.10374 412.347 6.39991 413.532 6.80714C414.735 7.21437 415.753 7.75117 416.586 8.41755C418.326 9.78732 419.631 11.3422 420.501 13.0822C421.389 14.8222 421.982 16.6917 422.278 18.6909C422.592 20.6715 422.75 22.7354 422.75 24.8826ZM414.059 24.8826C414.059 23.4388 413.967 21.9765 413.781 20.4956C413.596 19.0148 413.245 17.6543 412.726 16.4141C412.208 15.1554 411.449 14.1465 410.45 13.3876C409.45 12.6287 408.117 12.2492 406.451 12.2492C405.47 12.2492 404.535 12.2492 403.647 12.2492C402.777 12.2492 401.824 12.2307 400.787 12.1937V37.5993C401.824 37.5808 402.777 37.5715 403.647 37.5715C404.535 37.5715 405.47 37.5715 406.451 37.5715C408.117 37.5715 409.45 37.1921 410.45 36.4331C411.449 35.6557 412.208 34.6469 412.726 33.4067C413.245 32.148 413.596 30.7782 413.781 29.2973C413.967 27.798 414.059 26.3264 414.059 24.8826Z" fill="#373F4A"/>
<path d="M335.873 56.0502C335.749 56.075 335.619 56.0895 335.483 56.0936C335.347 56.1019 335.224 56.106 335.116 56.106C335.008 56.106 334.886 56.1019 334.75 56.0936C334.614 56.0895 334.486 56.075 334.366 56.0502V49.3147L334.432 49.2526H338.844C338.868 49.3436 338.886 49.4449 338.898 49.5566C338.91 49.6682 338.916 49.7633 338.916 49.8419C338.916 50.0651 338.858 50.2388 338.742 50.3628C338.63 50.4869 338.432 50.5489 338.147 50.5489H336.737C336.581 50.5489 336.431 50.5489 336.287 50.5489C336.143 50.5448 336.003 50.5427 335.867 50.5427C335.871 50.6791 335.873 50.8156 335.873 50.952C335.873 51.0843 335.873 51.2167 335.873 51.349V52.1118C335.989 52.1077 336.091 52.1056 336.179 52.1056H338.219C338.243 52.1966 338.259 52.3 338.267 52.4157C338.279 52.5274 338.285 52.6245 338.285 52.7072C338.285 52.7941 338.279 52.8974 338.267 53.0173C338.259 53.1373 338.243 53.2448 338.219 53.3399H336.179C336.091 53.3399 335.989 53.3378 335.873 53.3337V56.0502Z" fill="#373F4A"/>
<path d="M340.841 54.6671C340.785 54.6671 340.703 54.6651 340.595 54.6609C340.487 54.6568 340.391 54.6547 340.307 54.6547L339.845 56.0564C339.753 56.0771 339.651 56.0915 339.539 56.0998C339.431 56.1122 339.319 56.1184 339.203 56.1184C339.071 56.1184 338.941 56.1081 338.813 56.0874C338.689 56.0709 338.585 56.044 338.501 56.0068L338.453 55.9262L340.817 49.2526C340.965 49.232 341.119 49.2175 341.28 49.2092C341.444 49.1968 341.59 49.1906 341.718 49.1906C341.838 49.1906 341.97 49.1968 342.114 49.2092C342.262 49.2175 342.41 49.232 342.558 49.2526L344.893 55.9758C344.777 56.0337 344.635 56.075 344.467 56.0998C344.303 56.1288 344.16 56.1432 344.04 56.1432C343.852 56.1432 343.682 56.106 343.53 56.0316C343.378 55.953 343.256 55.7649 343.164 55.4672L342.9 54.6547C342.82 54.6547 342.728 54.6568 342.624 54.6609C342.52 54.6651 342.44 54.6671 342.384 54.6671H340.841ZM341.057 52.3909L340.715 53.4267C340.791 53.4267 340.873 53.4246 340.961 53.4205C341.053 53.4164 341.125 53.4143 341.178 53.4143H342.084C342.136 53.4143 342.2 53.4164 342.276 53.4205C342.356 53.4205 342.43 53.4226 342.498 53.4267L342.204 52.5398C342.116 52.2462 342.02 51.9092 341.916 51.5288C341.816 51.1443 341.726 50.8011 341.646 50.4993H341.586C341.51 50.7887 341.424 51.1112 341.328 51.4668C341.232 51.8224 341.142 52.1304 341.057 52.3909Z" fill="#373F4A"/>
<path d="M345.189 55.5106C345.193 55.3121 345.249 55.0971 345.357 54.8656C345.469 54.6299 345.603 54.4604 345.759 54.357C346.039 54.5224 346.357 54.6692 346.713 54.7974C347.073 54.9255 347.445 54.9896 347.829 54.9896C348.117 54.9855 348.364 54.9173 348.568 54.785C348.772 54.6485 348.874 54.4624 348.874 54.2268C348.874 53.8794 348.618 53.6169 348.105 53.4391L347.031 53.0111C346.559 52.8416 346.165 52.6121 345.849 52.3227C345.533 52.0291 345.375 51.6405 345.375 51.1567C345.375 50.5654 345.597 50.0734 346.041 49.6806C346.485 49.2878 347.097 49.0893 347.877 49.0852C348.314 49.0811 348.744 49.1327 349.168 49.2402C349.596 49.3477 349.958 49.4718 350.254 49.6124C350.254 49.8356 350.208 50.0569 350.116 50.276C350.024 50.491 349.898 50.6626 349.738 50.7908C349.446 50.6543 349.128 50.5427 348.784 50.4559C348.444 50.369 348.133 50.3256 347.853 50.3256C347.573 50.3298 347.353 50.3959 347.193 50.5241C347.037 50.6523 346.959 50.8135 346.959 51.0079C346.959 51.1774 347.023 51.3076 347.151 51.3986C347.283 51.4854 347.463 51.5702 347.691 51.6529L348.748 52.0684C349.26 52.2545 349.678 52.517 350.002 52.8561C350.326 53.1951 350.488 53.6148 350.488 54.1151C350.488 54.5493 350.376 54.9235 350.152 55.2377C349.928 55.552 349.618 55.7938 349.222 55.9634C348.826 56.1329 348.368 56.2177 347.847 56.2177C347.247 56.2218 346.719 56.1474 346.263 55.9944C345.807 55.8414 345.449 55.6801 345.189 55.5106Z" fill="#373F4A"/>
<path d="M352.499 51.2621C352.499 51.1298 352.501 51.0079 352.505 50.8962C352.509 50.7846 352.511 50.6585 352.511 50.5179C352.435 50.5179 352.327 50.52 352.187 50.5241C352.047 50.5282 351.937 50.5303 351.857 50.5303H350.65C350.63 50.4145 350.616 50.3049 350.608 50.2016C350.6 50.0941 350.596 49.9948 350.596 49.9039C350.596 49.817 350.6 49.7157 350.608 49.6C350.616 49.4842 350.63 49.3684 350.65 49.2526H355.818C355.842 49.3436 355.86 49.4449 355.872 49.5566C355.884 49.6682 355.89 49.7633 355.89 49.8419C355.89 50.0651 355.832 50.2367 355.716 50.3566C355.604 50.4724 355.406 50.5303 355.122 50.5303H354.636C354.56 50.5303 354.451 50.5282 354.311 50.5241C354.175 50.52 354.071 50.5179 353.999 50.5179C353.999 50.6585 354.001 50.7846 354.005 50.8962C354.009 51.0079 354.011 51.1298 354.011 51.2621V56.0502C353.919 56.0709 353.797 56.0853 353.645 56.0936C353.497 56.1019 353.369 56.106 353.261 56.106C353.153 56.106 353.025 56.1019 352.877 56.0936C352.733 56.0853 352.607 56.0709 352.499 56.0502V51.2621Z" fill="#373F4A"/>
<path d="M360.805 54.6671C360.749 54.6671 360.667 54.6651 360.559 54.6609C360.451 54.6568 360.355 54.6547 360.271 54.6547L359.809 56.0564C359.717 56.0771 359.615 56.0915 359.503 56.0998C359.395 56.1122 359.283 56.1184 359.167 56.1184C359.035 56.1184 358.905 56.1081 358.777 56.0874C358.653 56.0709 358.549 56.044 358.465 56.0068L358.417 55.9262L360.781 49.2526C360.93 49.232 361.084 49.2175 361.244 49.2092C361.408 49.1968 361.554 49.1906 361.682 49.1906C361.802 49.1906 361.934 49.1968 362.078 49.2092C362.226 49.2175 362.374 49.232 362.522 49.2526L364.857 55.9758C364.741 56.0337 364.599 56.075 364.431 56.0998C364.267 56.1288 364.125 56.1432 364.005 56.1432C363.816 56.1432 363.646 56.106 363.494 56.0316C363.342 55.953 363.22 55.7649 363.128 55.4672L362.864 54.6547C362.784 54.6547 362.692 54.6568 362.588 54.6609C362.484 54.6651 362.404 54.6671 362.348 54.6671H360.805ZM361.022 52.3909L360.679 53.4267C360.755 53.4267 360.837 53.4246 360.926 53.4205C361.018 53.4164 361.09 53.4143 361.142 53.4143H362.048C362.1 53.4143 362.164 53.4164 362.24 53.4205C362.32 53.4205 362.394 53.4226 362.462 53.4267L362.168 52.5398C362.08 52.2462 361.984 51.9092 361.88 51.5288C361.78 51.1443 361.69 50.8011 361.61 50.4993H361.55C361.474 50.7887 361.388 51.1112 361.292 51.4668C361.196 51.8224 361.106 52.1304 361.022 52.3909Z" fill="#373F4A"/>
<path d="M367.853 52.4902C367.793 52.3785 367.719 52.2297 367.631 52.0436C367.547 51.8534 367.463 51.6653 367.379 51.4792C367.295 51.289 367.227 51.1381 367.175 51.0265L367.127 51.0451C367.139 51.3262 367.151 51.6363 367.163 51.9754C367.179 52.3103 367.191 52.6245 367.199 52.9181C367.207 53.2075 367.211 53.4246 367.211 53.5693V56.0502C367.087 56.075 366.965 56.0895 366.845 56.0936C366.729 56.1019 366.621 56.106 366.521 56.106C366.425 56.106 366.313 56.1019 366.185 56.0936C366.057 56.0895 365.933 56.075 365.813 56.0502V49.2837C365.933 49.2589 366.079 49.2382 366.251 49.2216C366.423 49.2051 366.561 49.1968 366.665 49.1968C366.777 49.1968 366.919 49.201 367.091 49.2092C367.267 49.2134 367.415 49.2278 367.535 49.2526L369.378 52.8189C369.438 52.9264 369.514 53.0814 369.606 53.284C369.698 53.4825 369.79 53.6851 369.882 53.8919C369.974 54.0945 370.048 54.2536 370.104 54.3694L370.158 54.357C370.142 54.1131 370.122 53.8278 370.098 53.5011C370.078 53.1703 370.06 52.8499 370.044 52.5398C370.028 52.2255 370.02 51.9733 370.02 51.7831V50.0713C370.02 49.724 370.088 49.4904 370.224 49.3705C370.36 49.2506 370.576 49.1906 370.872 49.1906H371.383L371.455 49.2651V56.0316C371.331 56.0564 371.183 56.075 371.011 56.0874C370.838 56.0998 370.7 56.106 370.596 56.106C370.488 56.106 370.342 56.1019 370.158 56.0936C369.974 56.0895 369.824 56.075 369.708 56.0502L367.853 52.4902Z" fill="#373F4A"/>
<path d="M378.938 52.6638C378.938 53.7968 378.688 54.6526 378.188 55.2315C377.688 55.8062 376.885 56.0936 375.781 56.0936C375.325 56.0936 374.915 56.0895 374.551 56.0812C374.186 56.0771 373.772 56.0688 373.308 56.0564L373.242 55.9882V49.3147L373.308 49.2464C373.772 49.234 374.186 49.2237 374.551 49.2154C374.915 49.2072 375.325 49.203 375.781 49.203C376.877 49.203 377.678 49.5028 378.182 50.1023C378.686 50.6977 378.938 51.5516 378.938 52.6638ZM377.395 52.6638C377.395 52.4075 377.375 52.147 377.335 51.8824C377.295 51.6177 377.219 51.3758 377.107 51.1567C376.999 50.9376 376.837 50.7618 376.621 50.6295C376.409 50.4931 376.127 50.4249 375.775 50.4249C375.575 50.4249 375.397 50.4228 375.241 50.4187C375.089 50.4145 374.921 50.4124 374.737 50.4124V54.9028C374.925 54.9028 375.095 54.9007 375.247 54.8966C375.399 54.8925 375.575 54.8904 375.775 54.8904C376.127 54.8904 376.409 54.8242 376.621 54.6919C376.837 54.5555 376.999 54.3777 377.107 54.1585C377.219 53.9394 377.295 53.6996 377.335 53.4391C377.375 53.1786 377.395 52.9202 377.395 52.6638Z" fill="#373F4A"/>
<path d="M382.245 52.6576C382.245 51.9464 382.363 51.3242 382.599 50.7908C382.839 50.2533 383.191 49.8356 383.656 49.5379C384.12 49.2361 384.692 49.0852 385.372 49.0852C386.064 49.0852 386.643 49.234 387.107 49.5317C387.575 49.8294 387.927 50.2471 388.163 50.7846C388.399 51.318 388.517 51.9423 388.517 52.6576C388.517 53.3275 388.395 53.9353 388.151 54.4811C387.911 55.0268 387.557 55.43 387.089 55.6905L387.119 55.7153C387.459 55.9923 387.753 56.1577 388.001 56.2115C388.249 56.2652 388.461 56.2983 388.637 56.3107C388.621 56.6787 388.509 56.9536 388.301 57.1356C388.097 57.3216 387.859 57.4147 387.587 57.4147C387.447 57.4147 387.289 57.3878 387.113 57.334C386.941 57.2844 386.757 57.1666 386.56 56.9805L385.648 56.199C385.576 56.2115 385.506 56.2177 385.438 56.2177C384.382 56.2177 383.586 55.8951 383.049 55.2501C382.513 54.6051 382.245 53.7409 382.245 52.6576ZM383.794 52.6576C383.794 52.9222 383.814 53.1951 383.854 53.4763C383.898 53.7533 383.976 54.0118 384.088 54.2516C384.2 54.4914 384.36 54.6857 384.568 54.8346C384.776 54.9793 385.046 55.0517 385.378 55.0517C385.714 55.0517 385.986 54.9793 386.194 54.8346C386.402 54.6857 386.562 54.4914 386.675 54.2516C386.787 54.0118 386.863 53.7533 386.903 53.4763C386.943 53.1951 386.963 52.9222 386.963 52.6576C386.963 52.393 386.943 52.1201 386.903 51.8389C386.863 51.5578 386.787 51.2973 386.675 51.0575C386.562 50.8177 386.402 50.6254 386.194 50.4807C385.986 50.3318 385.714 50.2574 385.378 50.2574C385.046 50.2574 384.776 50.3318 384.568 50.4807C384.36 50.6254 384.2 50.8177 384.088 51.0575C383.976 51.2973 383.898 51.5578 383.854 51.8389C383.814 52.1201 383.794 52.393 383.794 52.6576Z" fill="#373F4A"/>
<path d="M395.331 53.5817C395.331 54.4211 395.085 55.0703 394.593 55.5292C394.105 55.9882 393.412 56.2177 392.516 56.2177C391.624 56.2177 390.932 55.9882 390.439 55.5292C389.947 55.0703 389.701 54.4211 389.701 53.5817V49.2651L389.773 49.1968H390.331C390.627 49.1968 390.847 49.2754 390.992 49.4325C391.14 49.5855 391.214 49.8377 391.214 50.1892V53.5755C391.214 54.0221 391.318 54.3694 391.526 54.6175C391.734 54.8615 392.064 54.9834 392.516 54.9834C392.972 54.9834 393.302 54.8615 393.506 54.6175C393.714 54.3694 393.818 54.0221 393.818 53.5755V49.2526C393.939 49.232 394.065 49.2175 394.197 49.2092C394.333 49.201 394.451 49.1968 394.551 49.1968C394.651 49.1968 394.775 49.201 394.923 49.2092C395.075 49.2175 395.211 49.2361 395.331 49.2651V53.5817Z" fill="#373F4A"/>
<path d="M398.348 54.6671C398.292 54.6671 398.21 54.6651 398.102 54.6609C397.994 54.6568 397.898 54.6547 397.814 54.6547L397.351 56.0564C397.259 56.0771 397.157 56.0915 397.045 56.0998C396.937 56.1122 396.825 56.1184 396.709 56.1184C396.577 56.1184 396.447 56.1081 396.319 56.0874C396.195 56.0709 396.091 56.044 396.007 56.0068L395.959 55.9262L398.324 49.2526C398.472 49.232 398.626 49.2175 398.786 49.2092C398.95 49.1968 399.096 49.1906 399.224 49.1906C399.344 49.1906 399.476 49.1968 399.62 49.2092C399.768 49.2175 399.916 49.232 400.064 49.2526L402.399 55.9758C402.283 56.0337 402.141 56.075 401.973 56.0998C401.809 56.1288 401.667 56.1432 401.547 56.1432C401.359 56.1432 401.189 56.106 401.037 56.0316C400.885 55.953 400.763 55.7649 400.671 55.4672L400.406 54.6547C400.326 54.6547 400.234 54.6568 400.13 54.6609C400.026 54.6651 399.946 54.6671 399.89 54.6671H398.348ZM398.564 52.3909L398.222 53.4267C398.298 53.4267 398.38 53.4246 398.468 53.4205C398.56 53.4164 398.632 53.4143 398.684 53.4143H399.59C399.642 53.4143 399.706 53.4164 399.782 53.4205C399.862 53.4205 399.936 53.4226 400.004 53.4267L399.71 52.5398C399.622 52.2462 399.526 51.9092 399.422 51.5288C399.322 51.1443 399.232 50.8011 399.152 50.4993H399.092C399.016 50.7887 398.93 51.1112 398.834 51.4668C398.738 51.8224 398.648 52.1304 398.564 52.3909Z" fill="#373F4A"/>
<path d="M407.791 54.7664C407.775 55.2543 407.695 55.5933 407.551 55.7835C407.406 55.9737 407.152 56.0688 406.788 56.0688H404.213C403.945 56.0688 403.731 55.9902 403.571 55.8331C403.415 55.6719 403.337 55.4486 403.337 55.1633V49.2713L403.403 49.203H403.991C404.287 49.203 404.504 49.2795 404.64 49.4325C404.78 49.5814 404.85 49.8294 404.85 50.1768V54.8222C405.23 54.785 405.578 54.7664 405.894 54.7664H407.791Z" fill="#373F4A"/>
<path d="M408.939 49.2526C409.055 49.232 409.187 49.2175 409.335 49.2092C409.487 49.201 409.611 49.1968 409.707 49.1968C409.811 49.1968 409.929 49.201 410.061 49.2092C410.197 49.2175 410.327 49.232 410.451 49.2526V56.0502C410.327 56.075 410.197 56.0895 410.061 56.0936C409.929 56.1019 409.811 56.106 409.707 56.106C409.611 56.106 409.487 56.1019 409.335 56.0936C409.187 56.0895 409.055 56.075 408.939 56.0502V49.2526Z" fill="#373F4A"/>
<path d="M413.285 51.2621C413.285 51.1298 413.287 51.0079 413.291 50.8962C413.295 50.7846 413.297 50.6585 413.297 50.5179C413.221 50.5179 413.113 50.52 412.973 50.5241C412.833 50.5282 412.723 50.5303 412.643 50.5303H411.436C411.416 50.4145 411.402 50.3049 411.394 50.2016C411.386 50.0941 411.382 49.9948 411.382 49.9039C411.382 49.817 411.386 49.7157 411.394 49.6C411.402 49.4842 411.416 49.3684 411.436 49.2526H416.604C416.628 49.3436 416.646 49.4449 416.658 49.5566C416.67 49.6682 416.676 49.7633 416.676 49.8419C416.676 50.0651 416.618 50.2367 416.502 50.3566C416.39 50.4724 416.192 50.5303 415.908 50.5303H415.421C415.345 50.5303 415.237 50.5282 415.097 50.5241C414.961 50.52 414.857 50.5179 414.785 50.5179C414.785 50.6585 414.787 50.7846 414.791 50.8962C414.795 51.0079 414.797 51.1298 414.797 51.2621V56.0502C414.705 56.0709 414.583 56.0853 414.431 56.0936C414.283 56.1019 414.155 56.106 414.047 56.106C413.939 56.106 413.811 56.1019 413.663 56.0936C413.519 56.0853 413.393 56.0709 413.285 56.0502V51.2621Z" fill="#373F4A"/>
<path d="M420.85 49.2651C420.966 49.2361 421.082 49.2175 421.199 49.2092C421.319 49.1968 421.427 49.1906 421.523 49.1906C421.651 49.1906 421.777 49.1989 421.901 49.2154C422.025 49.232 422.133 49.2568 422.225 49.2899L422.291 49.3705L420.238 54.0717V56.0502C420.118 56.075 419.994 56.0895 419.866 56.0936C419.738 56.1019 419.618 56.106 419.506 56.106C419.41 56.106 419.29 56.1019 419.146 56.0936C419.002 56.0895 418.872 56.075 418.756 56.0502V54.0221L416.709 49.3891C416.857 49.3188 417.013 49.263 417.177 49.2216C417.341 49.1762 417.493 49.1534 417.633 49.1534C417.841 49.1534 418.009 49.201 418.138 49.2961C418.266 49.387 418.372 49.5421 418.456 49.7612L419.092 51.3056C419.192 51.566 419.276 51.8017 419.344 52.0126C419.416 52.2193 419.476 52.4343 419.524 52.6576H419.59C419.662 52.4095 419.736 52.1635 419.812 51.9196C419.888 51.6756 419.976 51.4275 420.076 51.1753L420.85 49.2651Z" fill="#373F4A"/>
<path d="M190.916 35.839C190.916 39.8866 189.702 43.0654 187.274 45.3755C184.845 47.6659 181.281 48.8111 176.582 48.8111C171.883 48.8111 168.309 47.6659 165.861 45.3755C163.432 43.0654 162.218 39.8866 162.218 35.839V15.3738L162.573 15.0184H165.831C167.549 15.0184 168.862 15.4528 169.77 16.3215C170.698 17.1903 171.162 18.6514 171.162 20.7048V35.7797C171.162 37.6555 171.567 39.1264 172.376 40.1926C173.206 41.2588 174.607 41.7919 176.582 41.7919C178.596 41.7919 179.998 41.2588 180.787 40.1926C181.577 39.1264 181.972 37.6555 181.972 35.7797V15.3442C182.722 15.206 183.492 15.1171 184.282 15.0776C185.072 15.0381 185.753 15.0184 186.326 15.0184C186.879 15.0184 187.599 15.048 188.488 15.1072C189.396 15.1467 190.206 15.2455 190.916 15.4034V35.839Z" fill="white"/>
<path d="M210.274 32.5811C210.057 32.1467 209.731 31.4359 209.297 30.4487C208.862 29.4417 208.428 28.4348 207.994 27.4278C207.559 26.4208 207.243 25.6903 207.046 25.2362L206.809 25.325C206.888 26.8453 206.967 28.4841 207.046 30.2414C207.125 31.9987 207.184 33.6177 207.224 35.0985C207.283 36.5596 207.312 37.6258 207.312 38.2971V47.9522C206.582 48.0904 205.871 48.1793 205.18 48.2188C204.489 48.2582 203.857 48.278 203.285 48.278C202.732 48.278 202.07 48.2582 201.3 48.2188C200.53 48.1793 199.79 48.0904 199.079 47.9522V15.5515C199.79 15.3935 200.659 15.2652 201.685 15.1665C202.712 15.0678 203.522 15.0184 204.114 15.0184C204.706 15.0184 205.526 15.0381 206.572 15.0776C207.638 15.0974 208.527 15.1862 209.238 15.3442L216.671 30.6856C216.849 30.9818 217.096 31.4853 217.412 32.1961C217.728 32.9069 218.073 33.6868 218.448 34.5358C218.824 35.3848 219.169 36.1845 219.485 36.9348C219.821 37.6653 220.067 38.2083 220.225 38.5637L220.492 38.5045C220.413 37.2211 220.304 35.7402 220.166 34.062C220.048 32.3639 219.939 30.7251 219.84 29.1456C219.761 27.5463 219.722 26.2629 219.722 25.2954V19.8755C219.722 17.8813 220.146 16.5683 220.995 15.9365C221.844 15.2849 223.128 14.9592 224.846 14.9592H227.807L228.133 15.3738V47.8041C227.403 47.9621 226.524 48.0805 225.497 48.1595C224.47 48.2385 223.671 48.278 223.098 48.278C222.526 48.278 221.677 48.2582 220.551 48.2188C219.426 48.199 218.517 48.1102 217.826 47.9522L210.274 32.5811Z" fill="white"/>
<path d="M237 15.3442C237.711 15.206 238.51 15.1171 239.399 15.0776C240.307 15.0381 241.028 15.0184 241.561 15.0184C242.134 15.0184 242.815 15.0381 243.605 15.0776C244.414 15.1171 245.194 15.206 245.944 15.3442V47.9522C245.194 48.0904 244.414 48.1793 243.605 48.2188C242.815 48.2582 242.134 48.278 241.561 48.278C241.028 48.278 240.307 48.2582 239.399 48.2188C238.51 48.1793 237.711 48.0904 237 47.9522V15.3442Z" fill="white"/>
<path d="M259.789 26.1247C259.789 25.4928 259.799 24.9104 259.819 24.3773C259.839 23.8244 259.848 23.2124 259.848 22.541C259.434 22.541 258.871 22.5509 258.16 22.5707C257.449 22.5904 256.887 22.6003 256.472 22.6003H250.875C250.736 21.929 250.647 21.2971 250.608 20.7048C250.569 20.1125 250.549 19.5695 250.549 19.0759C250.549 18.5823 250.569 17.9998 250.608 17.3285C250.647 16.6572 250.736 15.9957 250.875 15.3442H277.382C277.52 15.8575 277.618 16.44 277.678 17.0916C277.757 17.7234 277.796 18.2466 277.796 18.6613C277.796 19.9249 277.451 20.9022 276.76 21.5933C276.088 22.2646 274.953 22.6003 273.354 22.6003H271.873C271.478 22.6003 270.935 22.5904 270.244 22.5707C269.573 22.5509 269.049 22.541 268.674 22.541C268.674 23.2124 268.684 23.8244 268.704 24.3773C268.724 24.9104 268.733 25.4928 268.733 26.1247V47.9522C268.2 48.0707 267.48 48.1496 266.571 48.1891C265.663 48.2484 264.893 48.278 264.261 48.278C263.649 48.278 262.899 48.2484 262.01 48.1891C261.142 48.1496 260.401 48.0707 259.789 47.9522V26.1247Z" fill="white"/>
<path d="M301.054 15.4034C301.725 15.2455 302.396 15.1467 303.068 15.1072C303.759 15.048 304.39 15.0184 304.963 15.0184C305.733 15.0184 306.473 15.0678 307.184 15.1665C307.915 15.2455 308.557 15.3738 309.109 15.5515L309.494 15.9958L299.425 38.6822V47.9522C298.714 48.0904 297.973 48.1793 297.203 48.2188C296.433 48.2582 295.752 48.278 295.16 48.278C294.627 48.278 293.926 48.2582 293.057 48.2188C292.188 48.1793 291.399 48.0904 290.688 47.9522V38.4452L280.677 16.1438C281.507 15.7489 282.405 15.433 283.372 15.1961C284.34 14.9592 285.219 14.8407 286.008 14.8407C287.232 14.8407 288.23 15.0974 289 15.6107C289.77 16.1043 290.392 16.9731 290.865 18.217L293.116 23.9627C293.63 25.3448 294.044 26.5196 294.36 27.487C294.676 28.4348 294.953 29.501 295.19 30.6857H295.545C296.295 27.9609 297.115 25.4435 298.003 23.1334L301.054 15.4034Z" fill="white"/>
</svg>
