<svg width="15" height="15" viewBox="0 0 15 15" fill="none" xmlns="http://www.w3.org/2000/svg">
<path d="M7.5 3.68164C7.01134 3.68164 6.53366 3.82654 6.12735 4.09803C5.72105 4.36951 5.40437 4.75538 5.21737 5.20685C5.03037 5.65831 4.98144 6.15508 5.07677 6.63435C5.1721 7.11362 5.40742 7.55386 5.75295 7.89939C6.09848 8.24493 6.53872 8.48024 7.01799 8.57557C7.49726 8.67091 7.99404 8.62198 8.4455 8.43498C8.89696 8.24797 9.28283 7.9313 9.55431 7.52499C9.8258 7.11869 9.9707 6.641 9.9707 6.15234C9.96996 5.4973 9.70942 4.8693 9.24623 4.40611C8.78304 3.94293 8.15504 3.68238 7.5 3.68164ZM7.5 7.27539C7.27788 7.27539 7.06075 7.20953 6.87607 7.08612C6.69138 6.96272 6.54744 6.78733 6.46244 6.58212C6.37744 6.37691 6.3552 6.1511 6.39853 5.93325C6.44187 5.7154 6.54883 5.51529 6.70589 5.35823C6.86295 5.20117 7.06306 5.09421 7.2809 5.05088C7.49875 5.00754 7.72456 5.02978 7.92977 5.11478C8.13498 5.19978 8.31038 5.34373 8.43378 5.52841C8.55718 5.7131 8.62305 5.93023 8.62305 6.15234C8.62305 6.45019 8.50473 6.73585 8.29411 6.94646C8.0835 7.15707 7.79785 7.27539 7.5 7.27539ZM7.5 0.986328C6.13034 0.987814 4.81721 1.53257 3.84872 2.50106C2.88022 3.46955 2.33547 4.78269 2.33398 6.15234C2.33398 10.4963 6.91826 13.7554 7.11367 13.8918C7.22691 13.9711 7.36179 14.0136 7.5 14.0136C7.63821 14.0136 7.77309 13.9711 7.88633 13.8918C8.75459 13.2519 9.54898 12.5174 10.2548 11.7019C11.8322 9.8904 12.666 7.97 12.666 6.15234C12.6645 4.78269 12.1198 3.46955 11.1513 2.50106C10.1828 1.53257 8.86966 0.987814 7.5 0.986328ZM9.25757 10.7967C8.72217 11.4117 8.13408 11.9787 7.5 12.4914C6.86592 11.9787 6.27783 11.4117 5.74243 10.7967C4.80469 9.71072 3.68164 8.02278 3.68164 6.15234C3.68164 5.13965 4.08393 4.16844 4.80001 3.45236C5.51609 2.73627 6.48731 2.33398 7.5 2.33398C8.51269 2.33398 9.48391 2.73627 10.2 3.45236C10.9161 4.16844 11.3184 5.13965 11.3184 6.15234C11.3184 8.02278 10.1953 9.71072 9.25757 10.7967Z" fill="#5D5E5F"/>
</svg>
