<svg width="16" height="24" viewBox="0 0 16 24" fill="none" xmlns="http://www.w3.org/2000/svg">
<path fill-rule="evenodd" clip-rule="evenodd" d="M8.00017 0.132812C5.79599 0.132812 3.61417 0.574438 1.5835 1.43161C1.03835 1.66173 0.78296 2.29021 1.01309 2.83537C1.24319 3.38053 1.87169 3.63591 2.41685 3.4058C4.18378 2.65993 6.08226 2.27568 8.00017 2.27568C9.91808 2.27568 11.8166 2.65993 13.5835 3.4058C14.1287 3.63591 14.7571 3.38053 14.9872 2.83537C15.2174 2.29021 14.962 1.66173 14.4168 1.43161C12.3862 0.574438 10.2043 0.132812 8.00017 0.132812ZM2.00017 14.4382C2.00017 11.1245 4.68646 8.43816 8.00017 8.43816C11.3139 8.43816 14.0001 11.1245 14.0001 14.4382V17.8667C14.0001 21.1805 11.3139 23.8667 8.00017 23.8667C4.68646 23.8667 2.00017 21.1805 2.00017 17.8667V14.4382ZM3.95297 5.00346C6.59984 4.10468 9.46936 4.10468 12.1163 5.00346C12.6766 5.19373 12.9766 5.8022 12.7863 6.3625C12.596 6.92281 11.9876 7.2228 11.4273 7.03255C9.22717 6.28548 6.84203 6.28548 4.64197 7.03255C4.08166 7.2228 3.47319 6.92281 3.28294 6.3625C3.09267 5.8022 3.39265 5.19373 3.95297 5.00346ZM9.28602 12.7239C9.28602 12.0138 8.7104 11.4382 8.00031 11.4382C7.29023 11.4382 6.71459 12.0138 6.71459 12.7239V14.4382C6.71459 15.1482 7.29023 15.7239 8.00031 15.7239C8.7104 15.7239 9.28602 15.1482 9.28602 14.4382V12.7239Z" fill="#5D5E5F"/>
</svg>
