<svg width="34" height="34" viewBox="0 0 34 34" fill="none" xmlns="http://www.w3.org/2000/svg">
<path d="M16.9918 34C26.3093 34 34 26.3056 34 17C34 7.69439 26.2929 0 16.9754 0C7.67424 0 0 7.69439 0 17C0 26.3056 7.69067 34 16.9918 34ZM16.9754 19.6799C13.7545 19.6634 11.2566 16.9671 11.2566 13.3994C11.2238 10.0455 13.7709 7.25048 16.9754 7.25048C20.1798 7.25048 22.6941 10.0455 22.6941 13.3994C22.6941 16.9671 20.1962 19.7128 16.9754 19.6799ZM16.9754 31.1886C13.2943 31.1886 9.38328 29.6596 6.90189 26.9961C8.79169 24.1683 12.5384 22.5242 16.9754 22.5242C21.363 22.5242 25.1426 24.1354 27.0488 26.9961C24.5674 29.6596 20.6564 31.1886 16.9754 31.1886Z" fill="#DCDCE4"/>
</svg>
