<svg width="21" height="22" viewBox="0 0 21 22" fill="none" xmlns="http://www.w3.org/2000/svg">
<path d="M9 9.98828C6.63672 9.98828 4.72266 7.91797 4.72266 5.36914C4.72266 2.85938 6.64648 0.828125 9 0.828125C11.3633 0.828125 13.2676 2.83008 13.2676 5.34961C13.2676 7.9082 11.3535 9.98828 9 9.98828ZM9 8.29883C10.3672 8.29883 11.5 7.01953 11.5 5.34961C11.5 3.72852 10.3672 2.51758 9 2.51758C7.63281 2.51758 6.5 3.74805 6.5 5.36914C6.5 7.0293 7.64258 8.29883 9 8.29883ZM17.7695 9.11914C19.5371 9.11914 20.9531 10.5449 20.9531 12.293C20.9531 13.6406 20.1328 14.7441 18.6777 15.3789L19.8887 16.5801C20.0449 16.7363 20.0352 16.9414 19.9082 17.0684L18.6484 18.2988L19.5469 19.1973C19.6738 19.334 19.6836 19.5293 19.5469 19.666L17.9941 21.209C17.8574 21.3457 17.6719 21.3262 17.5547 21.2188L16.7148 20.3887C16.6074 20.2812 16.5488 20.1641 16.5488 20.0273V15.2715C15.3477 14.7734 14.5762 13.6309 14.5762 12.293C14.5762 10.5449 15.9824 9.11914 17.7695 9.11914ZM17.7598 10.5742C17.2227 10.5742 16.7832 11.0137 16.7832 11.541C16.7832 12.0879 17.2324 12.5273 17.7598 12.5273C18.2871 12.5273 18.7266 12.0879 18.7266 11.541C18.7266 11.0137 18.2871 10.5742 17.7598 10.5742ZM2.90625 19.0703C1.2168 19.0703 0.40625 18.5332 0.40625 17.3906C0.40625 14.7246 3.75586 11.1309 8.99023 11.1309C10.5723 11.1309 11.9785 11.4629 13.1699 11.9902C13.1309 12.791 13.2578 13.4844 13.5215 14.0996C12.418 13.3672 10.8848 12.8203 8.99023 12.8203C4.68359 12.8203 2.26172 15.6328 2.26172 17.127C2.26172 17.3125 2.34961 17.3809 2.58398 17.3809H15.123V19.0703H2.90625Z" fill="#E3E3E3"/>
</svg>
