<svg width="16" height="16" viewBox="0 0 16 16" fill="none" xmlns="http://www.w3.org/2000/svg">
<path d="M2.08008 15.0278C0.79834 15.0278 0 14.105 0 12.9551C0 12.6035 0.0952148 12.2446 0.292969 11.9004L5.96191 2.0127C6.3501 1.32422 7.03857 0.972656 7.7417 0.972656C8.4375 0.972656 9.12598 1.32422 9.52148 2.0127L15.1904 11.9004C15.3809 12.2373 15.4834 12.6035 15.4834 12.9551C15.4834 14.105 14.6777 15.0278 13.4033 15.0278H2.08008ZM2.20459 13.6509H13.2715C13.7256 13.6509 14.0186 13.292 14.0186 12.8892C14.0186 12.7646 13.9893 12.6108 13.916 12.479L8.37158 2.77441C8.23242 2.53271 7.9834 2.43018 7.7417 2.43018C7.5 2.43018 7.24365 2.53271 7.10449 2.77441L1.56006 12.4644C1.48682 12.6035 1.46484 12.7646 1.46484 12.8892C1.46484 13.292 1.74316 13.6509 2.20459 13.6509ZM7.7417 9.9668C7.33154 9.9668 7.10449 9.73242 7.08984 9.32227L6.9873 5.74805C6.97266 5.32324 7.2876 5.02295 7.73438 5.02295C8.18115 5.02295 8.50342 5.33057 8.48877 5.75537L8.37891 9.31494C8.37158 9.73975 8.13721 9.9668 7.7417 9.9668ZM7.7417 12.3911C7.27295 12.3911 6.88477 12.0469 6.88477 11.5854C6.88477 11.1313 7.27295 10.7871 7.7417 10.7871C8.21777 10.7871 8.59863 11.124 8.59863 11.5854C8.59863 12.0469 8.21045 12.3911 7.7417 12.3911Z" fill="white"/>
</svg>
