<svg width="1075" height="204" xmlns="http://www.w3.org/2000/svg" fill="none">
 <defs>
  <clipPath id="Frame 44468__a">
   <path id="svg_1" d="m28,0l1047,0l0,204l-1047,0l0,-204z" fill="#fff"/>
  </clipPath>
 </defs>
 <g>
  <title>Layer 1</title>
  <path id="svg_4" d="m35.25,203.75l0.5,0l0,-157.5l-0.5,0l0,157.5z" stroke-width="0.5" stroke="#D0CFCF"/>
  <path id="svg_5" fill="#686868" d="m77.7,25.451l0,8.549l-1.688,0l0,-6.604l-2.028,0.645l0,-1.33l3.534,-1.26l0.181,0l0.001,0z"/>
  <path id="svg_6" d="m78.25,203.75l0.5,0l0,-157.5l-0.5,0l0,157.5z" stroke-width="0.5" stroke="#D0CFCF"/>
  <path id="svg_7" fill="#686868" d="m122.422,32.682l0,1.318l-5.836,0l0,-1.125l2.76,-2.959c0.277,-0.309 0.496,-0.58 0.656,-0.814a3.25,3.25 0 0 0 0.346,-0.64c0.074,-0.19 0.111,-0.372 0.111,-0.544a1.55,1.55 0 0 0 -0.129,-0.662a0.96,0.96 0 0 0 -0.381,-0.434a1.136,1.136 0 0 0 -0.609,-0.152c-0.258,0 -0.481,0.062 -0.668,0.187a1.193,1.193 0 0 0 -0.422,0.522a1.927,1.927 0 0 0 -0.141,0.756l-1.693,0c0,-0.508 0.121,-0.973 0.363,-1.395a2.66,2.66 0 0 1 1.026,-1.013c0.441,-0.254 0.965,-0.381 1.57,-0.381c0.598,0 1.102,0.097 1.512,0.293c0.414,0.191 0.726,0.468 0.937,0.832c0.215,0.36 0.322,0.789 0.322,1.289c0,0.281 -0.044,0.556 -0.134,0.826a3.74,3.74 0 0 1 -0.387,0.797a6.351,6.351 0 0 1 -0.598,0.797c-0.234,0.27 -0.494,0.549 -0.779,0.838l-1.482,1.664l3.656,0z"/>
  <path id="svg_8" d="m121.25,203.75l0.5,0l0,-157.5l-0.5,0l0,157.5z" stroke-width="0.5" stroke="#D0CFCF"/>
  <path id="svg_9" fill="#686868" d="m161.314,29.002l0.903,0c0.289,0 0.527,-0.049 0.715,-0.146a0.967,0.967 0 0 0 0.416,-0.422a1.4,1.4 0 0 0 0.14,-0.64a1.26,1.26 0 0 0 -0.129,-0.58a0.877,0.877 0 0 0 -0.38,-0.398c-0.172,-0.097 -0.389,-0.146 -0.651,-0.146a1.34,1.34 0 0 0 -0.574,0.123a1.053,1.053 0 0 0 -0.422,0.346a0.91,0.91 0 0 0 -0.158,0.539l-1.694,0c0,-0.469 0.125,-0.877 0.375,-1.225a2.55,2.55 0 0 1 1.02,-0.814a3.335,3.335 0 0 1 1.406,-0.293c0.578,0 1.084,0.093 1.518,0.281a2.24,2.24 0 0 1 1.013,0.814c0.243,0.36 0.364,0.805 0.364,1.336c0,0.27 -0.063,0.532 -0.188,0.785c-0.125,0.25 -0.304,0.477 -0.539,0.68c-0.23,0.2 -0.511,0.36 -0.844,0.48a3.35,3.35 0 0 1 -1.119,0.176l-1.172,0l0,-0.896zm0,1.283l0,-0.873l1.172,0c0.465,0 0.873,0.053 1.225,0.158c0.351,0.106 0.646,0.258 0.885,0.457c0.238,0.196 0.418,0.428 0.539,0.698c0.121,0.265 0.181,0.56 0.181,0.884c0,0.399 -0.076,0.754 -0.228,1.067a2.23,2.23 0 0 1 -0.645,0.785a2.929,2.929 0 0 1 -0.961,0.492c-0.367,0.11 -0.767,0.164 -1.201,0.164c-0.359,0 -0.713,-0.049 -1.06,-0.146a3.152,3.152 0 0 1 -0.938,-0.451a2.325,2.325 0 0 1 -0.668,-0.762c-0.164,-0.309 -0.246,-0.674 -0.246,-1.096l1.693,0c0,0.219 0.055,0.414 0.165,0.586c0.109,0.172 0.259,0.307 0.451,0.404c0.195,0.098 0.412,0.147 0.65,0.147c0.27,0 0.5,-0.049 0.692,-0.147a1.06,1.06 0 0 0 0.445,-0.422a1.26,1.26 0 0 0 0.158,-0.638c0,-0.313 -0.057,-0.563 -0.17,-0.75a1.006,1.006 0 0 0 -0.486,-0.422a1.907,1.907 0 0 0 -0.75,-0.135l-0.903,0z"/>
  <path id="svg_10" d="m164.25,203.75l0.5,0l0,-157.5l-0.5,0l0,157.5z" stroke-width="0.5" stroke="#D0CFCF"/>
  <path id="svg_11" fill="#686868" d="m208.562,30.813l0,1.324l-6.146,0l-0.082,-1.026l3.557,-5.642l1.341,0l-1.453,2.431l-1.769,2.913l4.552,0zm-0.966,-5.344l0,8.531l-1.688,0l0,-8.531l1.688,0z"/>
  <path id="svg_12" d="m207.25,203.75l0.5,0l0,-157.5l-0.5,0l0,157.5z" stroke-width="0.5" stroke="#D0CFCF"/>
  <path id="svg_13" fill="#686868" d="m247.174,30.115l-1.348,-0.322l0.486,-4.324l4.793,0l0,1.365l-3.404,0l-0.211,1.893a2.74,2.74 0 0 1 0.516,-0.211c0.23,-0.078 0.488,-0.118 0.773,-0.118c0.414,0 0.782,0.065 1.102,0.194c0.32,0.129 0.592,0.316 0.814,0.562c0.227,0.246 0.399,0.547 0.516,0.903c0.117,0.355 0.176,0.758 0.176,1.207c0,0.379 -0.059,0.74 -0.176,1.084c-0.117,0.34 -0.295,0.644 -0.533,0.914a2.492,2.492 0 0 1 -0.897,0.627c-0.359,0.152 -0.785,0.228 -1.277,0.228a3.49,3.49 0 0 1 -1.066,-0.164a2.92,2.92 0 0 1 -0.92,-0.486a2.499,2.499 0 0 1 -0.651,-0.78a2.365,2.365 0 0 1 -0.252,-1.054l1.676,0c0.023,0.242 0.086,0.451 0.188,0.627c0.105,0.172 0.244,0.305 0.416,0.398c0.171,0.094 0.373,0.14 0.603,0.14c0.215,0 0.398,-0.04 0.551,-0.122a1,1 0 0 0 0.369,-0.34c0.094,-0.148 0.162,-0.32 0.205,-0.516a2.8,2.8 0 0 0 0.07,-0.644c0,-0.23 -0.027,-0.44 -0.082,-0.627a1.318,1.318 0 0 0 -0.252,-0.486a1.11,1.11 0 0 0 -0.433,-0.317a1.514,1.514 0 0 0 -0.604,-0.111c-0.312,0 -0.554,0.049 -0.726,0.146a1.746,1.746 0 0 0 -0.422,0.334z"/>
  <path id="svg_14" d="m250.25,203.75l0.5,0l0,-157.5l-0.5,0l0,157.5z" stroke-width="0.5" stroke="#D0CFCF"/>
  <path id="svg_15" fill="#686868" d="m292.939,25.38l0.247,0l0,1.349l-0.1,0c-0.445,0 -0.842,0.066 -1.19,0.199a2.448,2.448 0 0 0 -0.884,0.568a2.464,2.464 0 0 0 -0.551,0.879a3.36,3.36 0 0 0 -0.188,1.154l0,1.418c0,0.305 0.03,0.575 0.088,0.809c0.063,0.23 0.151,0.424 0.264,0.58a1.2,1.2 0 0 0 0.41,0.346c0.156,0.074 0.332,0.111 0.527,0.111c0.184,0 0.35,-0.04 0.499,-0.117a1.11,1.11 0 0 0 0.386,-0.328a1.5,1.5 0 0 0 0.246,-0.504c0.059,-0.196 0.088,-0.409 0.088,-0.639a2.2,2.2 0 0 0 -0.088,-0.639a1.423,1.423 0 0 0 -0.246,-0.503a1.125,1.125 0 0 0 -0.398,-0.334a1.163,1.163 0 0 0 -0.528,-0.118a1.344,1.344 0 0 0 -1.171,0.656a1.256,1.256 0 0 0 -0.182,0.604l-0.51,-0.328c0.012,-0.3 0.074,-0.586 0.188,-0.855a2.34,2.34 0 0 1 0.48,-0.715c0.207,-0.211 0.455,-0.375 0.744,-0.492c0.289,-0.122 0.616,-0.182 0.979,-0.182c0.398,0 0.748,0.076 1.049,0.228c0.304,0.153 0.558,0.362 0.761,0.627c0.203,0.266 0.356,0.573 0.457,0.92c0.102,0.348 0.153,0.719 0.153,1.113c0,0.415 -0.069,0.8 -0.205,1.155a2.7,2.7 0 0 1 -0.58,0.931c-0.25,0.266 -0.551,0.473 -0.903,0.621a3.011,3.011 0 0 1 -1.183,0.223c-0.453,0 -0.866,-0.082 -1.237,-0.246a2.818,2.818 0 0 1 -0.949,-0.703a3.17,3.17 0 0 1 -0.615,-1.072a4.194,4.194 0 0 1 -0.211,-1.36l0,-0.656c0,-0.687 0.1,-1.316 0.299,-1.887c0.203,-0.574 0.494,-1.07 0.873,-1.488a3.883,3.883 0 0 1 1.371,-0.978c0.535,-0.23 1.139,-0.346 1.81,-0.346l0,-0.001z"/>
  <path id="svg_16" d="m293.25,203.75l0.5,0l0,-157.5l-0.5,0l0,157.5z" stroke-width="0.5" stroke="#D0CFCF"/>
  <path id="svg_17" fill="#686868" d="m337.381,25.469l0,0.908l-3.299,7.623l-1.781,0l3.299,-7.213l-4.248,0l0,-1.317l6.029,0l0,-0.001z"/>
  <path id="svg_18" d="m336.25,203.75l0.5,0l0,-157.5l-0.5,0l0,157.5z" stroke-width="0.5" stroke="#D0CFCF"/>
  <path id="svg_19" fill="#686868" d="m380.334,31.662c0,0.535 -0.125,0.986 -0.375,1.354c-0.25,0.363 -0.594,0.638 -1.031,0.826a3.758,3.758 0 0 1 -1.477,0.275a3.794,3.794 0 0 1 -1.482,-0.275a2.37,2.37 0 0 1 -1.037,-0.826c-0.254,-0.368 -0.381,-0.819 -0.381,-1.354c0,-0.36 0.072,-0.683 0.217,-0.973a2.19,2.19 0 0 1 0.603,-0.75a2.75,2.75 0 0 1 0.92,-0.48c0.352,-0.113 0.734,-0.17 1.148,-0.17c0.555,0 1.051,0.098 1.489,0.293c0.437,0.195 0.781,0.47 1.031,0.826c0.25,0.356 0.375,0.774 0.375,1.254zm-1.699,-0.111a1.39,1.39 0 0 0 -0.153,-0.674a1.023,1.023 0 0 0 -0.416,-0.44a1.249,1.249 0 0 0 -0.627,-0.152c-0.238,0 -0.447,0.05 -0.627,0.152c-0.179,0.102 -0.32,0.248 -0.421,0.44a1.438,1.438 0 0 0 -0.147,0.674c0,0.258 0.049,0.48 0.147,0.668c0.101,0.187 0.242,0.332 0.421,0.433c0.184,0.098 0.397,0.147 0.639,0.147s0.451,-0.049 0.627,-0.147a0.994,0.994 0 0 0 0.41,-0.433c0.098,-0.188 0.147,-0.41 0.147,-0.668zm1.517,-3.82c0,0.433 -0.115,0.818 -0.345,1.154a2.308,2.308 0 0 1 -0.961,0.78c-0.407,0.187 -0.871,0.28 -1.395,0.28c-0.527,0 -0.996,-0.093 -1.406,-0.28a2.302,2.302 0 0 1 -0.961,-0.78a1.995,1.995 0 0 1 -0.346,-1.155c0,-0.515 0.116,-0.949 0.346,-1.3c0.234,-0.356 0.555,-0.625 0.961,-0.809c0.41,-0.183 0.875,-0.275 1.394,-0.275c0.528,0 0.995,0.091 1.401,0.275c0.41,0.184 0.73,0.453 0.961,0.809c0.234,0.351 0.351,0.785 0.351,1.3l0,0.001zm-1.687,0.076c0,-0.23 -0.041,-0.43 -0.123,-0.598a0.918,0.918 0 0 0 -0.352,-0.398a1.012,1.012 0 0 0 -0.551,-0.141c-0.21,0 -0.392,0.045 -0.544,0.135a0.892,0.892 0 0 0 -0.346,0.392a1.439,1.439 0 0 0 -0.117,0.61c0,0.23 0.039,0.433 0.117,0.609a0.96,0.96 0 0 0 0.351,0.404a1,1 0 0 0 0.551,0.147a0.922,0.922 0 0 0 0.891,-0.55c0.082,-0.177 0.123,-0.38 0.123,-0.61z"/>
  <path id="svg_20" d="m379.25,203.75l0.5,0l0,-157.5l-0.5,0l0,157.5z" stroke-width="0.5" stroke="#D0CFCF"/>
  <path id="svg_21" fill="#686868" d="m418.781,32.717l0.112,0c0.468,0 0.871,-0.057 1.207,-0.17a2.16,2.16 0 0 0 0.838,-0.504a2.03,2.03 0 0 0 0.486,-0.803c0.105,-0.32 0.158,-0.683 0.158,-1.09l0,-1.617c0,-0.308 -0.031,-0.58 -0.094,-0.814a1.6,1.6 0 0 0 -0.258,-0.58a1.095,1.095 0 0 0 -0.386,-0.352a0.997,0.997 0 0 0 -0.481,-0.117a0.897,0.897 0 0 0 -0.498,0.14c-0.144,0.09 -0.267,0.213 -0.369,0.37a1.95,1.95 0 0 0 -0.228,0.539a2.516,2.516 0 0 0 -0.077,0.627c0,0.218 0.026,0.427 0.077,0.627c0.05,0.195 0.127,0.369 0.228,0.521c0.102,0.149 0.229,0.268 0.381,0.358c0.152,0.085 0.332,0.128 0.539,0.128c0.199,0 0.377,-0.037 0.533,-0.11c0.16,-0.079 0.295,-0.18 0.405,-0.306c0.113,-0.125 0.199,-0.263 0.257,-0.416a1.2,1.2 0 0 0 0.094,-0.462l0.557,0.304c0,0.274 -0.059,0.543 -0.176,0.809a2.484,2.484 0 0 1 -1.213,1.242a2.033,2.033 0 0 1 -0.879,0.193a2.47,2.47 0 0 1 -1.06,-0.216a2.317,2.317 0 0 1 -0.786,-0.61a2.769,2.769 0 0 1 -0.48,-0.914a3.762,3.762 0 0 1 -0.164,-1.13c0,-0.415 0.066,-0.803 0.199,-1.167c0.137,-0.363 0.33,-0.683 0.58,-0.96c0.254,-0.278 0.557,-0.495 0.908,-0.651c0.356,-0.16 0.75,-0.24 1.184,-0.24a2.626,2.626 0 0 1 2.098,0.967c0.254,0.304 0.449,0.67 0.586,1.095c0.14,0.426 0.211,0.899 0.211,1.418l0,0.586c0,0.555 -0.061,1.07 -0.182,1.547a4.5,4.5 0 0 1 -0.533,1.295c-0.235,0.383 -0.528,0.71 -0.879,0.984a3.764,3.764 0 0 1 -1.213,0.627a5.158,5.158 0 0 1 -1.547,0.217l-0.135,0l0,-1.365z"/>
  <path id="svg_22" d="m422.25,203.75l0.5,0l0,-157.5l-0.5,0l0,157.5z" stroke-width="0.5" stroke="#D0CFCF"/>
  <path id="svg_23" fill="#686868" d="m464.699,25.451l0,8.549l-1.687,0l0,-6.604l-2.028,0.645l0,-1.33l3.534,-1.26l0.181,0zm9.02,3.533l0,1.477c0,0.64 -0.069,1.193 -0.205,1.658c-0.137,0.461 -0.334,0.84 -0.592,1.137a2.34,2.34 0 0 1 -0.908,0.65c-0.352,0.14 -0.743,0.211 -1.172,0.211a3.44,3.44 0 0 1 -0.961,-0.129a2.417,2.417 0 0 1 -0.803,-0.416a2.651,2.651 0 0 1 -0.609,-0.709a3.64,3.64 0 0 1 -0.387,-1.031a6.258,6.258 0 0 1 -0.135,-1.371l0,-1.477c0,-0.64 0.069,-1.19 0.205,-1.646c0.141,-0.461 0.338,-0.838 0.592,-1.131c0.258,-0.293 0.563,-0.508 0.914,-0.645c0.352,-0.14 0.742,-0.21 1.172,-0.21c0.344,0 0.662,0.044 0.955,0.134c0.297,0.086 0.565,0.221 0.803,0.405c0.238,0.183 0.441,0.42 0.609,0.709c0.168,0.285 0.297,0.627 0.387,1.025c0.09,0.395 0.135,0.848 0.135,1.36l0,-0.001zm-1.694,1.7l0,-1.928a5.46,5.46 0 0 0 -0.052,-0.809a2.38,2.38 0 0 0 -0.147,-0.586a1.225,1.225 0 0 0 -0.246,-0.398a0.9,0.9 0 0 0 -0.334,-0.223a1.18,1.18 0 0 0 -0.416,-0.07c-0.191,0 -0.361,0.037 -0.51,0.111a0.954,0.954 0 0 0 -0.369,0.358a1.92,1.92 0 0 0 -0.234,0.644c-0.051,0.266 -0.076,0.59 -0.076,0.973l0,1.928c0,0.308 0.015,0.58 0.047,0.814c0.035,0.234 0.085,0.436 0.152,0.604c0.07,0.164 0.152,0.298 0.246,0.404a0.9,0.9 0 0 0 0.334,0.222c0.129,0.047 0.269,0.07 0.422,0.07c0.187,0 0.353,-0.036 0.498,-0.11a0.985,0.985 0 0 0 0.375,-0.364c0.105,-0.168 0.183,-0.386 0.234,-0.656a5.4,5.4 0 0 0 0.076,-0.984z"/>
  <path id="svg_24" d="m465.25,203.75l0.5,0l0,-157.5l-0.5,0l0,157.5z" stroke-width="0.5" stroke="#D0CFCF"/>
  <path id="svg_25" fill="#686868" d="m507.699,25.451l0,8.549l-1.687,0l0,-6.604l-2.028,0.645l0,-1.33l3.534,-1.26l0.181,0zm7.391,0l0,8.549l-1.688,0l0,-6.604l-2.027,0.645l0,-1.33l3.533,-1.26l0.182,0z"/>
  <path id="svg_26" d="m508.25,203.75l0.5,0l0,-157.5l-0.5,0l0,157.5z" stroke-width="0.5" stroke="#D0CFCF"/>
  <path id="svg_27" fill="#686868" d="m553.705,25.469l0,8.531l-1.758,0l-3.427,-5.719l0,5.719l-1.758,0l0,-8.531l1.758,0l3.433,5.724l0,-5.723l1.752,0l0,-0.001z"/>
  <path id="svg_28" d="m551.25,203.75l0.5,0l0,-157.5l-0.5,0l0,157.5z" stroke-width="0.5" stroke="#D0CFCF"/>
  <path id="svg_29" fill="#686868" d="m593.699,25.451l0,8.549l-1.687,0l0,-6.604l-2.028,0.645l0,-1.33l3.534,-1.26l0.181,0z"/>
  <path id="svg_30" d="m594.25,203.75l0.5,0l0,-157.5l-0.5,0l0,157.5z" stroke-width="0.5" stroke="#D0CFCF"/>
  <path id="svg_31" fill="#686868" d="m638.422,32.682l0,1.318l-5.836,0l0,-1.125l2.76,-2.959c0.277,-0.309 0.496,-0.58 0.656,-0.814a3.25,3.25 0 0 0 0.346,-0.64c0.074,-0.19 0.111,-0.372 0.111,-0.544a1.55,1.55 0 0 0 -0.129,-0.662a0.96,0.96 0 0 0 -0.381,-0.434a1.136,1.136 0 0 0 -0.609,-0.152c-0.258,0 -0.481,0.062 -0.668,0.187a1.193,1.193 0 0 0 -0.422,0.522a1.927,1.927 0 0 0 -0.141,0.756l-1.693,0c0,-0.508 0.121,-0.973 0.363,-1.395a2.66,2.66 0 0 1 1.026,-1.013c0.441,-0.254 0.965,-0.381 1.57,-0.381c0.598,0 1.102,0.097 1.512,0.293c0.414,0.191 0.726,0.468 0.937,0.832c0.215,0.36 0.322,0.789 0.322,1.289c0,0.281 -0.044,0.556 -0.134,0.826a3.74,3.74 0 0 1 -0.387,0.797a6.351,6.351 0 0 1 -0.598,0.797c-0.234,0.27 -0.494,0.549 -0.779,0.838l-1.482,1.664l3.656,0z"/>
  <path id="svg_32" d="m637.25,203.75l0.5,0l0,-157.5l-0.5,0l0,157.5z" stroke-width="0.5" stroke="#D0CFCF"/>
  <path id="svg_33" fill="#686868" d="m677.314,29.002l0.903,0c0.289,0 0.527,-0.049 0.715,-0.146a0.967,0.967 0 0 0 0.416,-0.422a1.4,1.4 0 0 0 0.14,-0.64a1.26,1.26 0 0 0 -0.129,-0.58a0.877,0.877 0 0 0 -0.38,-0.398c-0.172,-0.097 -0.389,-0.146 -0.651,-0.146a1.34,1.34 0 0 0 -0.574,0.123a1.053,1.053 0 0 0 -0.422,0.346a0.91,0.91 0 0 0 -0.158,0.539l-1.694,0c0,-0.469 0.125,-0.877 0.375,-1.225a2.55,2.55 0 0 1 1.02,-0.814a3.335,3.335 0 0 1 1.406,-0.293c0.578,0 1.084,0.093 1.518,0.281a2.24,2.24 0 0 1 1.013,0.814c0.243,0.36 0.364,0.805 0.364,1.336c0,0.27 -0.063,0.532 -0.188,0.785c-0.125,0.25 -0.304,0.477 -0.539,0.68c-0.23,0.2 -0.511,0.36 -0.844,0.48a3.35,3.35 0 0 1 -1.119,0.176l-1.172,0l0,-0.896zm0,1.283l0,-0.873l1.172,0c0.465,0 0.873,0.053 1.225,0.158c0.351,0.106 0.646,0.258 0.885,0.457c0.238,0.196 0.418,0.428 0.539,0.698c0.121,0.265 0.181,0.56 0.181,0.884c0,0.399 -0.076,0.754 -0.228,1.067a2.23,2.23 0 0 1 -0.645,0.785a2.929,2.929 0 0 1 -0.961,0.492c-0.367,0.11 -0.767,0.164 -1.201,0.164c-0.359,0 -0.713,-0.049 -1.06,-0.146a3.152,3.152 0 0 1 -0.938,-0.451a2.325,2.325 0 0 1 -0.668,-0.762c-0.164,-0.309 -0.246,-0.674 -0.246,-1.096l1.693,0c0,0.219 0.055,0.414 0.165,0.586c0.109,0.172 0.259,0.307 0.451,0.404c0.195,0.098 0.412,0.147 0.65,0.147c0.27,0 0.5,-0.049 0.692,-0.147a1.06,1.06 0 0 0 0.445,-0.422a1.26,1.26 0 0 0 0.158,-0.638c0,-0.313 -0.057,-0.563 -0.17,-0.75a1.006,1.006 0 0 0 -0.486,-0.422a1.907,1.907 0 0 0 -0.75,-0.135l-0.903,0z"/>
  <path id="svg_34" d="m680.25,203.75l0.5,0l0,-157.5l-0.5,0l0,157.5z" stroke-width="0.5" stroke="#D0CFCF"/>
  <path id="svg_35" fill="#686868" d="m724.562,30.813l0,1.324l-6.146,0l-0.082,-1.026l3.557,-5.642l1.341,0l-1.453,2.431l-1.769,2.913l4.552,0zm-0.966,-5.344l0,8.531l-1.688,0l0,-8.531l1.688,0z"/>
  <path id="svg_36" d="m723.25,203.75l0.5,0l0,-157.5l-0.5,0l0,157.5z" stroke-width="0.5" stroke="#D0CFCF"/>
  <path id="svg_37" fill="#686868" d="m763.174,30.115l-1.348,-0.322l0.486,-4.324l4.793,0l0,1.365l-3.404,0l-0.211,1.893a2.74,2.74 0 0 1 0.516,-0.211c0.23,-0.078 0.488,-0.118 0.773,-0.118c0.414,0 0.782,0.065 1.102,0.194c0.32,0.129 0.592,0.316 0.814,0.562c0.227,0.246 0.399,0.547 0.516,0.903c0.117,0.355 0.176,0.758 0.176,1.207c0,0.379 -0.059,0.74 -0.176,1.084c-0.117,0.34 -0.295,0.644 -0.533,0.914a2.492,2.492 0 0 1 -0.897,0.627c-0.359,0.152 -0.785,0.228 -1.277,0.228a3.49,3.49 0 0 1 -1.066,-0.164a2.92,2.92 0 0 1 -0.92,-0.486a2.499,2.499 0 0 1 -0.651,-0.78a2.365,2.365 0 0 1 -0.252,-1.054l1.676,0c0.023,0.242 0.086,0.451 0.188,0.627c0.105,0.172 0.244,0.305 0.416,0.398c0.171,0.094 0.373,0.14 0.603,0.14c0.215,0 0.398,-0.04 0.551,-0.122a1,1 0 0 0 0.369,-0.34c0.094,-0.148 0.162,-0.32 0.205,-0.516a2.8,2.8 0 0 0 0.07,-0.644c0,-0.23 -0.027,-0.44 -0.082,-0.627a1.318,1.318 0 0 0 -0.252,-0.486a1.11,1.11 0 0 0 -0.433,-0.317a1.514,1.514 0 0 0 -0.604,-0.111c-0.312,0 -0.554,0.049 -0.726,0.146a1.746,1.746 0 0 0 -0.422,0.334z"/>
  <path id="svg_38" d="m766.25,203.75l0.5,0l0,-157.5l-0.5,0l0,157.5z" stroke-width="0.5" stroke="#D0CFCF"/>
  <path id="svg_39" fill="#686868" d="m808.939,25.38l0.247,0l0,1.349l-0.1,0c-0.445,0 -0.842,0.066 -1.19,0.199a2.448,2.448 0 0 0 -0.884,0.568a2.464,2.464 0 0 0 -0.551,0.879a3.36,3.36 0 0 0 -0.188,1.154l0,1.418c0,0.305 0.03,0.575 0.088,0.809c0.063,0.23 0.151,0.424 0.264,0.58a1.2,1.2 0 0 0 0.41,0.346c0.156,0.074 0.332,0.111 0.527,0.111c0.184,0 0.35,-0.04 0.499,-0.117a1.11,1.11 0 0 0 0.386,-0.328a1.5,1.5 0 0 0 0.246,-0.504c0.059,-0.196 0.088,-0.409 0.088,-0.639a2.2,2.2 0 0 0 -0.088,-0.639a1.423,1.423 0 0 0 -0.246,-0.503a1.125,1.125 0 0 0 -0.398,-0.334a1.163,1.163 0 0 0 -0.528,-0.118a1.344,1.344 0 0 0 -1.171,0.656a1.256,1.256 0 0 0 -0.182,0.604l-0.51,-0.328c0.012,-0.3 0.074,-0.586 0.188,-0.855a2.34,2.34 0 0 1 0.48,-0.715c0.207,-0.211 0.455,-0.375 0.744,-0.492c0.289,-0.122 0.616,-0.182 0.979,-0.182c0.398,0 0.748,0.076 1.049,0.228c0.304,0.153 0.558,0.362 0.761,0.627c0.203,0.266 0.356,0.573 0.457,0.92c0.102,0.348 0.153,0.719 0.153,1.113c0,0.415 -0.069,0.8 -0.205,1.155a2.7,2.7 0 0 1 -0.58,0.931c-0.25,0.266 -0.551,0.473 -0.903,0.621a3.011,3.011 0 0 1 -1.183,0.223c-0.453,0 -0.866,-0.082 -1.237,-0.246a2.818,2.818 0 0 1 -0.949,-0.703a3.17,3.17 0 0 1 -0.615,-1.072a4.194,4.194 0 0 1 -0.211,-1.36l0,-0.656c0,-0.687 0.1,-1.316 0.299,-1.887c0.203,-0.574 0.494,-1.07 0.873,-1.488a3.883,3.883 0 0 1 1.371,-0.978c0.535,-0.23 1.139,-0.346 1.81,-0.346l0,-0.001z"/>
  <path id="svg_40" d="m809.25,203.75l0.5,0l0,-157.5l-0.5,0l0,157.5z" stroke-width="0.5" stroke="#D0CFCF"/>
  <path id="svg_41" fill="#686868" d="m853.381,25.469l0,0.908l-3.299,7.623l-1.781,0l3.299,-7.213l-4.248,0l0,-1.317l6.029,0l0,-0.001z"/>
  <path id="svg_42" d="m852.25,203.75l0.5,0l0,-157.5l-0.5,0l0,157.5z" stroke-width="0.5" stroke="#D0CFCF"/>
  <path id="svg_43" fill="#686868" d="m896.334,31.662c0,0.535 -0.125,0.986 -0.375,1.354c-0.25,0.363 -0.594,0.638 -1.031,0.826a3.758,3.758 0 0 1 -1.477,0.275a3.794,3.794 0 0 1 -1.482,-0.275a2.37,2.37 0 0 1 -1.037,-0.826c-0.254,-0.368 -0.381,-0.819 -0.381,-1.354c0,-0.36 0.072,-0.683 0.217,-0.973a2.19,2.19 0 0 1 0.603,-0.75a2.75,2.75 0 0 1 0.92,-0.48c0.352,-0.113 0.734,-0.17 1.148,-0.17c0.555,0 1.051,0.098 1.489,0.293c0.437,0.195 0.781,0.47 1.031,0.826c0.25,0.356 0.375,0.774 0.375,1.254zm-1.699,-0.111a1.39,1.39 0 0 0 -0.153,-0.674a1.023,1.023 0 0 0 -0.416,-0.44a1.249,1.249 0 0 0 -0.627,-0.152c-0.238,0 -0.447,0.05 -0.627,0.152c-0.179,0.102 -0.32,0.248 -0.421,0.44a1.438,1.438 0 0 0 -0.147,0.674c0,0.258 0.049,0.48 0.147,0.668c0.101,0.187 0.242,0.332 0.421,0.433c0.184,0.098 0.397,0.147 0.639,0.147s0.451,-0.049 0.627,-0.147a0.994,0.994 0 0 0 0.41,-0.433c0.098,-0.188 0.147,-0.41 0.147,-0.668zm1.517,-3.82c0,0.433 -0.115,0.818 -0.345,1.154a2.308,2.308 0 0 1 -0.961,0.78c-0.407,0.187 -0.871,0.28 -1.395,0.28c-0.527,0 -0.996,-0.093 -1.406,-0.28a2.302,2.302 0 0 1 -0.961,-0.78a1.995,1.995 0 0 1 -0.346,-1.155c0,-0.515 0.116,-0.949 0.346,-1.3c0.234,-0.356 0.555,-0.625 0.961,-0.809c0.41,-0.183 0.875,-0.275 1.394,-0.275c0.528,0 0.995,0.091 1.401,0.275c0.41,0.184 0.73,0.453 0.961,0.809c0.234,0.351 0.351,0.785 0.351,1.3l0,0.001zm-1.687,0.076c0,-0.23 -0.041,-0.43 -0.123,-0.598a0.918,0.918 0 0 0 -0.352,-0.398a1.012,1.012 0 0 0 -0.551,-0.141c-0.21,0 -0.392,0.045 -0.544,0.135a0.892,0.892 0 0 0 -0.346,0.392a1.439,1.439 0 0 0 -0.117,0.61c0,0.23 0.039,0.433 0.117,0.609a0.96,0.96 0 0 0 0.351,0.404a1,1 0 0 0 0.551,0.147a0.922,0.922 0 0 0 0.891,-0.55c0.082,-0.177 0.123,-0.38 0.123,-0.61z"/>
  <path id="svg_44" d="m895.25,203.75l0.5,0l0,-157.5l-0.5,0l0,157.5z" stroke-width="0.5" stroke="#D0CFCF"/>
  <path id="svg_45" fill="#686868" d="m934.781,32.717l0.112,0c0.468,0 0.871,-0.057 1.207,-0.17a2.16,2.16 0 0 0 0.838,-0.504a2.03,2.03 0 0 0 0.486,-0.803c0.105,-0.32 0.158,-0.683 0.158,-1.09l0,-1.617c0,-0.308 -0.031,-0.58 -0.094,-0.814a1.6,1.6 0 0 0 -0.258,-0.58a1.095,1.095 0 0 0 -0.386,-0.352a0.997,0.997 0 0 0 -0.481,-0.117a0.897,0.897 0 0 0 -0.498,0.14c-0.144,0.09 -0.267,0.213 -0.369,0.37a1.95,1.95 0 0 0 -0.228,0.539a2.516,2.516 0 0 0 -0.077,0.627c0,0.218 0.026,0.427 0.077,0.627c0.05,0.195 0.127,0.369 0.228,0.521c0.102,0.149 0.229,0.268 0.381,0.358c0.152,0.085 0.332,0.128 0.539,0.128c0.199,0 0.377,-0.037 0.533,-0.11c0.16,-0.079 0.295,-0.18 0.405,-0.306c0.113,-0.125 0.199,-0.263 0.257,-0.416a1.2,1.2 0 0 0 0.094,-0.462l0.557,0.304c0,0.274 -0.059,0.543 -0.176,0.809a2.484,2.484 0 0 1 -1.213,1.242a2.033,2.033 0 0 1 -0.879,0.193a2.47,2.47 0 0 1 -1.06,-0.216a2.317,2.317 0 0 1 -0.786,-0.61a2.769,2.769 0 0 1 -0.48,-0.914a3.762,3.762 0 0 1 -0.164,-1.13c0,-0.415 0.066,-0.803 0.199,-1.167c0.137,-0.363 0.33,-0.683 0.58,-0.96c0.254,-0.278 0.557,-0.495 0.908,-0.651c0.356,-0.16 0.75,-0.24 1.184,-0.24a2.626,2.626 0 0 1 2.098,0.967c0.254,0.304 0.449,0.67 0.586,1.095c0.14,0.426 0.211,0.899 0.211,1.418l0,0.586c0,0.555 -0.061,1.07 -0.182,1.547a4.5,4.5 0 0 1 -0.533,1.295c-0.235,0.383 -0.528,0.71 -0.879,0.984a3.764,3.764 0 0 1 -1.213,0.627a5.158,5.158 0 0 1 -1.547,0.217l-0.135,0l0,-1.365z"/>
  <path id="svg_46" d="m938.25,203.75l0.5,0l0,-157.5l-0.5,0l0,157.5z" stroke-width="0.5" stroke="#D0CFCF"/>
  <path id="svg_47" fill="#686868" d="m980.699,25.451l0,8.549l-1.687,0l0,-6.604l-2.028,0.645l0,-1.33l3.534,-1.26l0.181,0zm9.02,3.533l0,1.477c0,0.64 -0.069,1.193 -0.205,1.658c-0.137,0.461 -0.334,0.84 -0.592,1.137a2.34,2.34 0 0 1 -0.908,0.65c-0.352,0.14 -0.743,0.211 -1.172,0.211a3.44,3.44 0 0 1 -0.961,-0.129a2.417,2.417 0 0 1 -0.803,-0.416a2.651,2.651 0 0 1 -0.609,-0.709a3.64,3.64 0 0 1 -0.387,-1.031a6.258,6.258 0 0 1 -0.135,-1.371l0,-1.477c0,-0.64 0.069,-1.19 0.205,-1.646c0.141,-0.461 0.338,-0.838 0.592,-1.131c0.258,-0.293 0.563,-0.508 0.914,-0.645c0.352,-0.14 0.742,-0.21 1.172,-0.21c0.344,0 0.662,0.044 0.955,0.134c0.297,0.086 0.565,0.221 0.803,0.405c0.238,0.183 0.441,0.42 0.609,0.709c0.168,0.285 0.297,0.627 0.387,1.025c0.09,0.395 0.135,0.848 0.135,1.36l0,-0.001zm-1.694,1.7l0,-1.928a5.46,5.46 0 0 0 -0.052,-0.809a2.38,2.38 0 0 0 -0.147,-0.586a1.225,1.225 0 0 0 -0.246,-0.398a0.9,0.9 0 0 0 -0.334,-0.223a1.18,1.18 0 0 0 -0.416,-0.07c-0.191,0 -0.361,0.037 -0.51,0.111a0.954,0.954 0 0 0 -0.369,0.358a1.92,1.92 0 0 0 -0.234,0.644c-0.051,0.266 -0.076,0.59 -0.076,0.973l0,1.928c0,0.308 0.015,0.58 0.047,0.814c0.035,0.234 0.085,0.436 0.152,0.604c0.07,0.164 0.152,0.298 0.246,0.404a0.9,0.9 0 0 0 0.334,0.222c0.129,0.047 0.269,0.07 0.422,0.07c0.187,0 0.353,-0.036 0.498,-0.11a0.985,0.985 0 0 0 0.375,-0.364c0.105,-0.168 0.183,-0.386 0.234,-0.656a5.4,5.4 0 0 0 0.076,-0.984z"/>
  <path id="svg_48" d="m981.25,203.75l0.5,0l0,-157.5l-0.5,0l0,157.5z" stroke-width="0.5" stroke="#D0CFCF"/>
  <path id="svg_49" fill="#686868" d="m1023.7,25.451l0,8.549l-1.69,0l0,-6.604l-2.03,0.645l0,-1.33l3.54,-1.26l0.18,0zm7.39,0l0,8.549l-1.69,0l0,-6.604l-2.02,0.645l0,-1.33l3.53,-1.26l0.18,0z"/>
  <path id="svg_50" d="m1024.25,203.75l0.5,0l0,-157.5l-0.5,0l0,157.5z" stroke-width="0.5" stroke="#D0CFCF"/>
  <path id="svg_52" d="m1067.25,203.75l0.5,0l0,-157.5l-0.5,0l0,157.5z" stroke-width="0.5" stroke="#D0CFCF"/>
  <path id="svg_54" d="m36.25,92.25l1031.5,0l0,0.5l-1031.5,0l0,-0.5zm0,-34l1031.5,0l0,0.5l-1031.5,0l0,-0.5z" stroke-width="0.5" stroke="#D0CFCF"/>
  <path id="svg_55" d="m39.5,91.55l0,-5m21,5l0,-5m-17.5,4.95l0,-5m21,5l0,-5m-17.5,5l0,-11m21,11l0,-11m-10.5,11l0,-17m-7,17l0,-5m21,5l0,-5m-17.5,5l0,-5m21,5l0,-5m8,5.05l0,-5m21,5l0,-5m-17.5,4.95l0,-5m21,5l0,-5m-17.5,5l0,-11m21,11l0,-11m-10.5,11l0,-17m-7,17l0,-5m21,5l0,-5m-17.5,5l0,-5m21,5l0,-5m8,5.05l0,-5m21,5l0,-5m-17.5,4.95l0,-5m21,5l0,-5m-17.5,5l0,-11m21,11l0,-11m-10.5,11l0,-17m-7,17l0,-5m21,5l0,-5m-17.5,5l0,-5m21,5l0,-5m8,5.05l0,-5m21,5l0,-5m-17.5,4.95l0,-5m21,5l0,-5m-17.5,5l0,-11m21,11l0,-11m-10.5,11l0,-17m-7,17l0,-5m21,5l0,-5m-17.5,5l0,-5m21,5l0,-5m8,5.05l0,-5m21,5l0,-5m-17.5,4.95l0,-5m21,5l0,-5m-17.5,5l0,-11m21,11l0,-11m-10.5,11l0,-17m-7,17l0,-5m21,5l0,-5m-17.5,5l0,-5m21,5l0,-5m8,5.05l0,-5m21,5l0,-5m-17.5,4.95l0,-5m21,5l0,-5m-17.5,5l0,-11m21,11l0,-11m-10.5,11l0,-17m-7,17l0,-5m21,5l0,-5m-17.5,5l0,-5m21,5l0,-5m8,5.05l0,-5m21,5l0,-5m-17.5,4.95l0,-5m21,5l0,-5m-17.5,5l0,-11m21,11l0,-11m-10.5,11l0,-17m-7,17l0,-5m21,5l0,-5m-17.5,5l0,-5m21,5l0,-5m8,5.05l0,-5m21,5l0,-5m-17.5,4.95l0,-5m21,5l0,-5m-17.5,5l0,-11m21,11l0,-11m-10.5,11l0,-17m-7,17l0,-5m21,5l0,-5m-17.5,5l0,-5m21,5l0,-5m8,5.05l0,-5m21,5l0,-5m-17.5,4.95l0,-5m21,5l0,-5m-17.5,5l0,-11m21,11l0,-11m-10.5,11l0,-17m-7,17l0,-5m21,5l0,-5m-17.5,5l0,-5m21,5l0,-5m8,5.05l0,-5m21,5l0,-5m-17.5,4.95l0,-5m21,5l0,-5m-17.5,5l0,-11m21,11l0,-11m-10.5,11l0,-17m-7,17l0,-5m21,5l0,-5m-17.5,5l0,-5m21,5l0,-5m8,5.05l0,-5m21,5l0,-5m-17.5,4.95l0,-5m21,5l0,-5m-17.5,5l0,-11m21,11l0,-11m-10.5,11l0,-17m-7,17l0,-5m21,5l0,-5m-17.5,5l0,-5m21,5l0,-5m8,5.05l0,-5m21,5l0,-5m-17.5,4.95l0,-5m21,5l0,-5m-17.5,5l0,-11m21,11l0,-11m-10.5,11l0,-17m-7,17l0,-5m21,5l0,-5m-17.5,5l0,-5m21,5l0,-5m8,5.05l0,-5m21,5l0,-5m-17.5,4.95l0,-5m21,5l0,-5m-17.5,5l0,-11m21,11l0,-11m-10.5,11l0,-17m-7,17l0,-5m21,5l0,-5m-17.5,5l0,-5m21,5l0,-5m8,5.05l0,-5m21,5l0,-5m-17.5,4.95l0,-5m21,5l0,-5m-17.5,5l0,-11m21,11l0,-11m-10.5,11l0,-17m-7,17l0,-5m21,5l0,-5m-17.5,5l0,-5m21,5l0,-5m8,5.05l0,-5m21,5l0,-5m-17.5,4.95l0,-5m21,5l0,-5m-17.5,5l0,-11m21,11l0,-11m-10.5,11l0,-17m-7,17l0,-5m21,5l0,-5m-17.5,5l0,-5m21,5l0,-5m8,5.05l0,-5m21,5l0,-5m-17.5,4.95l0,-5m21,5l0,-5m-17.5,5l0,-11m21,11l0,-11m-10.5,11l0,-17m-7,17l0,-5m21,5l0,-5m-17.5,5l0,-5m21,5l0,-5m8,5.05l0,-5m21,5l0,-5m-17.5,4.95l0,-5m21,5l0,-5m-17.5,5l0,-11m21,11l0,-11m-10.5,11l0,-17m-7,17l0,-5m21,5l0,-5m-17.5,5l0,-5m21,5l0,-5m8,5.05l0,-5m21,5l0,-5m-17.5,4.95l0,-5m21,5l0,-5m-17.5,5l0,-11m21,11l0,-11m-10.5,11l0,-17m-7,17l0,-5m21,5l0,-5m-17.5,5l0,-5m21,5l0,-5m8,5.05l0,-5m21,5l0,-5m-17.5,4.95l0,-5m21,5l0,-5m-17.5,5l0,-11m21,11l0,-11m-10.5,11l0,-17m-7,17l0,-5m21,5l0,-5m-17.5,5l0,-5m21,5l0,-5m8,5.05l0,-5m21,5l0,-5m-17.5,4.95l0,-5m21,5l0,-5m-17.5,5l0,-11m21,11l0,-11m-10.5,11l0,-17m-7,17l0,-5m21,5l0,-5m-17.5,5l0,-5m21,5l0,-5m8,5.05l0,-5m21,5l0,-5m-17.5,4.95l0,-5m21,5l0,-5m-17.5,5l0,-11m21,11l0,-11m-10.5,11l0,-17m-7,17l0,-5m21,5l0,-5m-17.5,5l0,-5m21,5l0,-5m8,5.05l0,-5m21,5l0,-5m-17.5,4.95l0,-5m21,5l0,-5m-17.5,5l0,-11m21,11l0,-11m-10.5,11l0,-17m-7,17l0,-5m21,5l0,-5m-17.5,5l0,-5m21,5l0,-5m8,5.05l0,-5m21,5l0,-5m-17.5,4.95l0,-5m21,5l0,-5m-17.5,5l0,-11m21,11l0,-11m-10.5,11l0,-17m-7,17l0,-5m21,5l0,-5m-17.5,5l0,-5m21,5l0,-5m8,5.05l0,-5m21,5l0,-5m-17.5,4.95l0,-5m21,5l0,-5m-17.5,5l0,-11m21,11l0,-11m-10.5,11l0,-17m-7,17l0,-5m21,5l0,-5m-17.5,5l0,-5m21,5l0,-5" stroke-linecap="square" stroke="#D0CFCF"/>
  <path id="svg_57" d="m36.25,129.25l1031.5,0l0,0.5l-1031.5,0l0,-0.5z" stroke-width="0.5" stroke="#D0CFCF"/>
  <path id="svg_58" d="m39.5,128.55l0,-5m21,5l0,-5m-17.5,4.95l0,-5m21,5l0,-5m-17.5,5l0,-11m21,11l0,-11m-10.5,11l0,-17m-7,17l0,-5m21,5l0,-5m-17.5,5l0,-5m21,5l0,-5m8,5.05l0,-5m21,5l0,-5m-17.5,4.95l0,-5m21,5l0,-5m-17.5,5l0,-11m21,11l0,-11m-10.5,11l0,-17m-7,17l0,-5m21,5l0,-5m-17.5,5l0,-5m21,5l0,-5m8,5.05l0,-5m21,5l0,-5m-17.5,4.95l0,-5m21,5l0,-5m-17.5,5l0,-11m21,11l0,-11m-10.5,11l0,-17m-7,17l0,-5m21,5l0,-5m-17.5,5l0,-5m21,5l0,-5m8,5.05l0,-5m21,5l0,-5m-17.5,4.95l0,-5m21,5l0,-5m-17.5,5l0,-11m21,11l0,-11m-10.5,11l0,-17m-7,17l0,-5m21,5l0,-5m-17.5,5l0,-5m21,5l0,-5m8,5.05l0,-5m21,5l0,-5m-17.5,4.95l0,-5m21,5l0,-5m-17.5,5l0,-11m21,11l0,-11m-10.5,11l0,-17m-7,17l0,-5m21,5l0,-5m-17.5,5l0,-5m21,5l0,-5m8,5.05l0,-5m21,5l0,-5m-17.5,4.95l0,-5m21,5l0,-5m-17.5,5l0,-11m21,11l0,-11m-10.5,11l0,-17m-7,17l0,-5m21,5l0,-5m-17.5,5l0,-5m21,5l0,-5m8,5.05l0,-5m21,5l0,-5m-17.5,4.95l0,-5m21,5l0,-5m-17.5,5l0,-11m21,11l0,-11m-10.5,11l0,-17m-7,17l0,-5m21,5l0,-5m-17.5,5l0,-5m21,5l0,-5m8,5.05l0,-5m21,5l0,-5m-17.5,4.95l0,-5m21,5l0,-5m-17.5,5l0,-11m21,11l0,-11m-10.5,11l0,-17m-7,17l0,-5m21,5l0,-5m-17.5,5l0,-5m21,5l0,-5m8,5.05l0,-5m21,5l0,-5m-17.5,4.95l0,-5m21,5l0,-5m-17.5,5l0,-11m21,11l0,-11m-10.5,11l0,-17m-7,17l0,-5m21,5l0,-5m-17.5,5l0,-5m21,5l0,-5m8,5.05l0,-5m21,5l0,-5m-17.5,4.95l0,-5m21,5l0,-5m-17.5,5l0,-11m21,11l0,-11m-10.5,11l0,-17m-7,17l0,-5m21,5l0,-5m-17.5,5l0,-5m21,5l0,-5m8,5.05l0,-5m21,5l0,-5m-17.5,4.95l0,-5m21,5l0,-5m-17.5,5l0,-11m21,11l0,-11m-10.5,11l0,-17m-7,17l0,-5m21,5l0,-5m-17.5,5l0,-5m21,5l0,-5m8,5.05l0,-5m21,5l0,-5m-17.5,4.95l0,-5m21,5l0,-5m-17.5,5l0,-11m21,11l0,-11m-10.5,11l0,-17m-7,17l0,-5m21,5l0,-5m-17.5,5l0,-5m21,5l0,-5m8,5.05l0,-5m21,5l0,-5m-17.5,4.95l0,-5m21,5l0,-5m-17.5,5l0,-11m21,11l0,-11m-10.5,11l0,-17m-7,17l0,-5m21,5l0,-5m-17.5,5l0,-5m21,5l0,-5m8,5.05l0,-5m21,5l0,-5m-17.5,4.95l0,-5m21,5l0,-5m-17.5,5l0,-11m21,11l0,-11m-10.5,11l0,-17m-7,17l0,-5m21,5l0,-5m-17.5,5l0,-5m21,5l0,-5m8,5.05l0,-5m21,5l0,-5m-17.5,4.95l0,-5m21,5l0,-5m-17.5,5l0,-11m21,11l0,-11m-10.5,11l0,-17m-7,17l0,-5m21,5l0,-5m-17.5,5l0,-5m21,5l0,-5m8,5.05l0,-5m21,5l0,-5m-17.5,4.95l0,-5m21,5l0,-5m-17.5,5l0,-11m21,11l0,-11m-10.5,11l0,-17m-7,17l0,-5m21,5l0,-5m-17.5,5l0,-5m21,5l0,-5m8,5.05l0,-5m21,5l0,-5m-17.5,4.95l0,-5m21,5l0,-5m-17.5,5l0,-11m21,11l0,-11m-10.5,11l0,-17m-7,17l0,-5m21,5l0,-5m-17.5,5l0,-5m21,5l0,-5m8,5.05l0,-5m21,5l0,-5m-17.5,4.95l0,-5m21,5l0,-5m-17.5,5l0,-11m21,11l0,-11m-10.5,11l0,-17m-7,17l0,-5m21,5l0,-5m-17.5,5l0,-5m21,5l0,-5m8,5.05l0,-5m21,5l0,-5m-17.5,4.95l0,-5m21,5l0,-5m-17.5,5l0,-11m21,11l0,-11m-10.5,11l0,-17m-7,17l0,-5m21,5l0,-5m-17.5,5l0,-5m21,5l0,-5m8,5.05l0,-5m21,5l0,-5m-17.5,4.95l0,-5m21,5l0,-5m-17.5,5l0,-11m21,11l0,-11m-10.5,11l0,-17m-7,17l0,-5m21,5l0,-5m-17.5,5l0,-5m21,5l0,-5m8,5.05l0,-5m21,5l0,-5m-17.5,4.95l0,-5m21,5l0,-5m-17.5,5l0,-11m21,11l0,-11m-10.5,11l0,-17m-7,17l0,-5m21,5l0,-5m-17.5,5l0,-5m21,5l0,-5m8,5.05l0,-5m21,5l0,-5m-17.5,4.95l0,-5m21,5l0,-5m-17.5,5l0,-11m21,11l0,-11m-10.5,11l0,-17m-7,17l0,-5m21,5l0,-5m-17.5,5l0,-5m21,5l0,-5m8,5.05l0,-5m21,5l0,-5m-17.5,4.95l0,-5m21,5l0,-5m-17.5,5l0,-11m21,11l0,-11m-10.5,11l0,-17m-7,17l0,-5m21,5l0,-5m-17.5,5l0,-5m21,5l0,-5m8,5.05l0,-5m21,5l0,-5m-17.5,4.95l0,-5m21,5l0,-5m-17.5,5l0,-11m21,11l0,-11m-10.5,11l0,-17m-7,17l0,-5m21,5l0,-5m-17.5,5l0,-5m21,5l0,-5" stroke-linecap="square" stroke="#D0CFCF"/>
  <path id="svg_60" d="m36.25,166.25l1031.5,0l0,0.5l-1031.5,0l0,-0.5z" stroke-width="0.5" stroke="#D0CFCF"/>
  <path id="svg_61" d="m39.5,165.55l0,-5m21,5l0,-5m-17.5,4.95l0,-5m21,5l0,-5m-17.5,5l0,-11m21,11l0,-11m-10.5,11l0,-17m-7,17l0,-5m21,5l0,-5m-17.5,5l0,-5m21,5l0,-5m8,5.05l0,-5m21,5l0,-5m-17.5,4.95l0,-5m21,5l0,-5m-17.5,5l0,-11m21,11l0,-11m-10.5,11l0,-17m-7,17l0,-5m21,5l0,-5m-17.5,5l0,-5m21,5l0,-5m8,5.05l0,-5m21,5l0,-5m-17.5,4.95l0,-5m21,5l0,-5m-17.5,5l0,-11m21,11l0,-11m-10.5,11l0,-17m-7,17l0,-5m21,5l0,-5m-17.5,5l0,-5m21,5l0,-5m8,5.05l0,-5m21,5l0,-5m-17.5,4.95l0,-5m21,5l0,-5m-17.5,5l0,-11m21,11l0,-11m-10.5,11l0,-17m-7,17l0,-5m21,5l0,-5m-17.5,5l0,-5m21,5l0,-5m8,5.05l0,-5m21,5l0,-5m-17.5,4.95l0,-5m21,5l0,-5m-17.5,5l0,-11m21,11l0,-11m-10.5,11l0,-17m-7,17l0,-5m21,5l0,-5m-17.5,5l0,-5m21,5l0,-5m8,5.05l0,-5m21,5l0,-5m-17.5,4.95l0,-5m21,5l0,-5m-17.5,5l0,-11m21,11l0,-11m-10.5,11l0,-17m-7,17l0,-5m21,5l0,-5m-17.5,5l0,-5m21,5l0,-5m8,5.05l0,-5m21,5l0,-5m-17.5,4.95l0,-5m21,5l0,-5m-17.5,5l0,-11m21,11l0,-11m-10.5,11l0,-17m-7,17l0,-5m21,5l0,-5m-17.5,5l0,-5m21,5l0,-5m8,5.05l0,-5m21,5l0,-5m-17.5,4.95l0,-5m21,5l0,-5m-17.5,5l0,-11m21,11l0,-11m-10.5,11l0,-17m-7,17l0,-5m21,5l0,-5m-17.5,5l0,-5m21,5l0,-5m8,5.05l0,-5m21,5l0,-5m-17.5,4.95l0,-5m21,5l0,-5m-17.5,5l0,-11m21,11l0,-11m-10.5,11l0,-17m-7,17l0,-5m21,5l0,-5m-17.5,5l0,-5m21,5l0,-5m8,5.05l0,-5m21,5l0,-5m-17.5,4.95l0,-5m21,5l0,-5m-17.5,5l0,-11m21,11l0,-11m-10.5,11l0,-17m-7,17l0,-5m21,5l0,-5m-17.5,5l0,-5m21,5l0,-5m8,5.05l0,-5m21,5l0,-5m-17.5,4.95l0,-5m21,5l0,-5m-17.5,5l0,-11m21,11l0,-11m-10.5,11l0,-17m-7,17l0,-5m21,5l0,-5m-17.5,5l0,-5m21,5l0,-5m8,5.05l0,-5m21,5l0,-5m-17.5,4.95l0,-5m21,5l0,-5m-17.5,5l0,-11m21,11l0,-11m-10.5,11l0,-17m-7,17l0,-5m21,5l0,-5m-17.5,5l0,-5m21,5l0,-5m8,5.05l0,-5m21,5l0,-5m-17.5,4.95l0,-5m21,5l0,-5m-17.5,5l0,-11m21,11l0,-11m-10.5,11l0,-17m-7,17l0,-5m21,5l0,-5m-17.5,5l0,-5m21,5l0,-5m8,5.05l0,-5m21,5l0,-5m-17.5,4.95l0,-5m21,5l0,-5m-17.5,5l0,-11m21,11l0,-11m-10.5,11l0,-17m-7,17l0,-5m21,5l0,-5m-17.5,5l0,-5m21,5l0,-5m8,5.05l0,-5m21,5l0,-5m-17.5,4.95l0,-5m21,5l0,-5m-17.5,5l0,-11m21,11l0,-11m-10.5,11l0,-17m-7,17l0,-5m21,5l0,-5m-17.5,5l0,-5m21,5l0,-5m8,5.05l0,-5m21,5l0,-5m-17.5,4.95l0,-5m21,5l0,-5m-17.5,5l0,-11m21,11l0,-11m-10.5,11l0,-17m-7,17l0,-5m21,5l0,-5m-17.5,5l0,-5m21,5l0,-5m8,5.05l0,-5m21,5l0,-5m-17.5,4.95l0,-5m21,5l0,-5m-17.5,5l0,-11m21,11l0,-11m-10.5,11l0,-17m-7,17l0,-5m21,5l0,-5m-17.5,5l0,-5m21,5l0,-5m8,5.05l0,-5m21,5l0,-5m-17.5,4.95l0,-5m21,5l0,-5m-17.5,5l0,-11m21,11l0,-11m-10.5,11l0,-17m-7,17l0,-5m21,5l0,-5m-17.5,5l0,-5m21,5l0,-5m8,5.05l0,-5m21,5l0,-5m-17.5,4.95l0,-5m21,5l0,-5m-17.5,5l0,-11m21,11l0,-11m-10.5,11l0,-17m-7,17l0,-5m21,5l0,-5m-17.5,5l0,-5m21,5l0,-5m8,5.05l0,-5m21,5l0,-5m-17.5,4.95l0,-5m21,5l0,-5m-17.5,5l0,-11m21,11l0,-11m-10.5,11l0,-17m-7,17l0,-5m21,5l0,-5m-17.5,5l0,-5m21,5l0,-5m8,5.05l0,-5m21,5l0,-5m-17.5,4.95l0,-5m21,5l0,-5m-17.5,5l0,-11m21,11l0,-11m-10.5,11l0,-17m-7,17l0,-5m21,5l0,-5m-17.5,5l0,-5m21,5l0,-5m8,5.05l0,-5m21,5l0,-5m-17.5,4.95l0,-5m21,5l0,-5m-17.5,5l0,-11m21,11l0,-11m-10.5,11l0,-17m-7,17l0,-5m21,5l0,-5m-17.5,5l0,-5m21,5l0,-5m8,5.05l0,-5m21,5l0,-5m-17.5,4.95l0,-5m21,5l0,-5m-17.5,5l0,-11m21,11l0,-11m-10.5,11l0,-17m-7,17l0,-5m21,5l0,-5m-17.5,5l0,-5m21,5l0,-5m8,5.05l0,-5m21,5l0,-5m-17.5,4.95l0,-5m21,5l0,-5m-17.5,5l0,-11m21,11l0,-11m-10.5,11l0,-17m-7,17l0,-5m21,5l0,-5m-17.5,5l0,-5m21,5l0,-5" stroke-linecap="square" stroke="#D0CFCF"/>
  <path id="svg_63" d="m36.25,203.25l1031.5,0l0,0.5l-1031.5,0l0,-0.5z" stroke-width="0.5" stroke="#D0CFCF"/>
  <path id="svg_64" d="m39.5,202.55l0,-5m21,5l0,-5m-17.5,4.95l0,-5m21,5l0,-5m-17.5,5l0,-11m21,11l0,-11m-10.5,11l0,-17m-7,17l0,-5m21,5l0,-5m-17.5,5l0,-5m21,5l0,-5m8,5.05l0,-5m21,5l0,-5m-17.5,4.95l0,-5m21,5l0,-5m-17.5,5l0,-11m21,11l0,-11m-10.5,11l0,-17m-7,17l0,-5m21,5l0,-5m-17.5,5l0,-5m21,5l0,-5m8,5.05l0,-5m21,5l0,-5m-17.5,4.95l0,-5m21,5l0,-5m-17.5,5l0,-11m21,11l0,-11m-10.5,11l0,-17m-7,17l0,-5m21,5l0,-5m-17.5,5l0,-5m21,5l0,-5m8,5.05l0,-5m21,5l0,-5m-17.5,4.95l0,-5m21,5l0,-5m-17.5,5l0,-11m21,11l0,-11m-10.5,11l0,-17m-7,17l0,-5m21,5l0,-5m-17.5,5l0,-5m21,5l0,-5m8,5.05l0,-5m21,5l0,-5m-17.5,4.95l0,-5m21,5l0,-5m-17.5,5l0,-11m21,11l0,-11m-10.5,11l0,-17m-7,17l0,-5m21,5l0,-5m-17.5,5l0,-5m21,5l0,-5m8,5.05l0,-5m21,5l0,-5m-17.5,4.95l0,-5m21,5l0,-5m-17.5,5l0,-11m21,11l0,-11m-10.5,11l0,-17m-7,17l0,-5m21,5l0,-5m-17.5,5l0,-5m21,5l0,-5m8,5.05l0,-5m21,5l0,-5m-17.5,4.95l0,-5m21,5l0,-5m-17.5,5l0,-11m21,11l0,-11m-10.5,11l0,-17m-7,17l0,-5m21,5l0,-5m-17.5,5l0,-5m21,5l0,-5m8,5.05l0,-5m21,5l0,-5m-17.5,4.95l0,-5m21,5l0,-5m-17.5,5l0,-11m21,11l0,-11m-10.5,11l0,-17m-7,17l0,-5m21,5l0,-5m-17.5,5l0,-5m21,5l0,-5m8,5.05l0,-5m21,5l0,-5m-17.5,4.95l0,-5m21,5l0,-5m-17.5,5l0,-11m21,11l0,-11m-10.5,11l0,-17m-7,17l0,-5m21,5l0,-5m-17.5,5l0,-5m21,5l0,-5m8,5.05l0,-5m21,5l0,-5m-17.5,4.95l0,-5m21,5l0,-5m-17.5,5l0,-11m21,11l0,-11m-10.5,11l0,-17m-7,17l0,-5m21,5l0,-5m-17.5,5l0,-5m21,5l0,-5m8,5.05l0,-5m21,5l0,-5m-17.5,4.95l0,-5m21,5l0,-5m-17.5,5l0,-11m21,11l0,-11m-10.5,11l0,-17m-7,17l0,-5m21,5l0,-5m-17.5,5l0,-5m21,5l0,-5m8,5.05l0,-5m21,5l0,-5m-17.5,4.95l0,-5m21,5l0,-5m-17.5,5l0,-11m21,11l0,-11m-10.5,11l0,-17m-7,17l0,-5m21,5l0,-5m-17.5,5l0,-5m21,5l0,-5m8,5.05l0,-5m21,5l0,-5m-17.5,4.95l0,-5m21,5l0,-5m-17.5,5l0,-11m21,11l0,-11m-10.5,11l0,-17m-7,17l0,-5m21,5l0,-5m-17.5,5l0,-5m21,5l0,-5m8,5.05l0,-5m21,5l0,-5m-17.5,4.95l0,-5m21,5l0,-5m-17.5,5l0,-11m21,11l0,-11m-10.5,11l0,-17m-7,17l0,-5m21,5l0,-5m-17.5,5l0,-5m21,5l0,-5m8,5.05l0,-5m21,5l0,-5m-17.5,4.95l0,-5m21,5l0,-5m-17.5,5l0,-11m21,11l0,-11m-10.5,11l0,-17m-7,17l0,-5m21,5l0,-5m-17.5,5l0,-5m21,5l0,-5m8,5.05l0,-5m21,5l0,-5m-17.5,4.95l0,-5m21,5l0,-5m-17.5,5l0,-11m21,11l0,-11m-10.5,11l0,-17m-7,17l0,-5m21,5l0,-5m-17.5,5l0,-5m21,5l0,-5m8,5.05l0,-5m21,5l0,-5m-17.5,4.95l0,-5m21,5l0,-5m-17.5,5l0,-11m21,11l0,-11m-10.5,11l0,-17m-7,17l0,-5m21,5l0,-5m-17.5,5l0,-5m21,5l0,-5m8,5.05l0,-5m21,5l0,-5m-17.5,4.95l0,-5m21,5l0,-5m-17.5,5l0,-11m21,11l0,-11m-10.5,11l0,-17m-7,17l0,-5m21,5l0,-5m-17.5,5l0,-5m21,5l0,-5m8,5.05l0,-5m21,5l0,-5m-17.5,4.95l0,-5m21,5l0,-5m-17.5,5l0,-11m21,11l0,-11m-10.5,11l0,-17m-7,17l0,-5m21,5l0,-5m-17.5,5l0,-5m21,5l0,-5m8,5.05l0,-5m21,5l0,-5m-17.5,4.95l0,-5m21,5l0,-5m-17.5,5l0,-11m21,11l0,-11m-10.5,11l0,-17m-7,17l0,-5m21,5l0,-5m-17.5,5l0,-5m21,5l0,-5m8,5.05l0,-5m21,5l0,-5m-17.5,4.95l0,-5m21,5l0,-5m-17.5,5l0,-11m21,11l0,-11m-10.5,11l0,-17m-7,17l0,-5m21,5l0,-5m-17.5,5l0,-5m21,5l0,-5m8,5.05l0,-5m21,5l0,-5m-17.5,4.95l0,-5m21,5l0,-5m-17.5,5l0,-11m21,11l0,-11m-10.5,11l0,-17m-7,17l0,-5m21,5l0,-5m-17.5,5l0,-5m21,5l0,-5m8,5.05l0,-5m21,5l0,-5m-17.5,4.95l0,-5m21,5l0,-5m-17.5,5l0,-11m21,11l0,-11m-10.5,11l0,-17m-7,17l0,-5m21,5l0,-5m-17.5,5l0,-5m21,5l0,-5m8,5.05l0,-5m21,5l0,-5m-17.5,4.95l0,-5m21,5l0,-5m-17.5,5l0,-11m21,11l0,-11m-10.5,11l0,-17m-7,17l0,-5m21,5l0,-5m-17.5,5l0,-5m21,5l0,-5" stroke-linecap="square" stroke="#D0CFCF"/>
 </g>
</svg>