<svg width="1075" height="204" fill="none" xmlns="http://www.w3.org/2000/svg"><g clip-path="url(#Frame 44468__a)"><path d="M31.564 25.469h1.489l2.191 6.263 2.191-6.263h1.489L35.842 34h-1.195l-3.082-8.531Zm-.802 0h1.482l.27 6.105V34h-1.752v-8.531Zm7.482 0h1.488V34h-1.757v-2.426l.27-6.105Z" fill="#686868"/><path stroke="#D0CFCF" stroke-width=".5" d="M35.25 203.75h.5V46.25h-.5z"/><path d="M77.7 25.451V34h-1.688v-6.604l-2.028.645v-1.33l3.534-1.26h.181Z" fill="#686868"/><path stroke="#D0CFCF" stroke-width=".5" d="M78.25 203.75h.5V46.25h-.5z"/><path d="M122.422 32.682V34h-5.836v-1.125l2.76-2.959c.277-.309.496-.58.656-.814a3.25 3.25 0 0 0 .346-.64c.074-.19.111-.372.111-.544a1.55 1.55 0 0 0-.129-.662.96.96 0 0 0-.381-.434 1.136 1.136 0 0 0-.609-.152c-.258 0-.481.062-.668.187a1.193 1.193 0 0 0-.422.522 1.927 1.927 0 0 0-.141.756h-1.693c0-.508.121-.973.363-1.395a2.66 2.66 0 0 1 1.026-1.013c.441-.254.965-.381 1.57-.381.598 0 1.102.097 1.512.293.414.191.726.468.937.832.215.36.322.789.322 1.289 0 .281-.044.556-.134.826a3.74 3.74 0 0 1-.387.797 6.351 6.351 0 0 1-.598.797c-.234.27-.494.549-.779.838l-1.482 1.664h3.656Z" fill="#686868"/><path stroke="#D0CFCF" stroke-width=".5" d="M121.25 203.75h.5V46.25h-.5z"/><path d="M161.314 29.002h.903c.289 0 .527-.049.715-.146a.967.967 0 0 0 .416-.422 1.4 1.4 0 0 0 .14-.64 1.26 1.26 0 0 0-.129-.58.877.877 0 0 0-.38-.398c-.172-.097-.389-.146-.651-.146a1.34 1.34 0 0 0-.574.123 1.053 1.053 0 0 0-.422.346.91.91 0 0 0-.158.539h-1.694c0-.469.125-.877.375-1.225a2.55 2.55 0 0 1 1.02-.814 3.335 3.335 0 0 1 1.406-.293c.578 0 1.084.093 1.518.281a2.24 2.24 0 0 1 1.013.814c.243.36.364.805.364 1.336 0 .27-.063.532-.188.785-.125.25-.304.477-.539.68-.23.2-.511.36-.844.48a3.35 3.35 0 0 1-1.119.176h-1.172v-.896Zm0 1.283v-.873h1.172c.465 0 .873.053 1.225.158.351.106.646.258.885.457.238.196.418.428.539.698.121.265.181.56.181.884 0 .399-.076.754-.228 1.067a2.23 2.23 0 0 1-.645.785 2.929 2.929 0 0 1-.961.492c-.367.11-.767.164-1.201.164-.359 0-.713-.049-1.06-.146a3.152 3.152 0 0 1-.938-.451 2.325 2.325 0 0 1-.668-.762c-.164-.309-.246-.674-.246-1.096h1.693c0 .219.055.414.165.586.109.172.259.307.451.404.195.098.412.147.65.147.27 0 .5-.049.692-.147a1.06 1.06 0 0 0 .445-.422 1.26 1.26 0 0 0 .158-.638c0-.313-.057-.563-.17-.75a1.006 1.006 0 0 0-.486-.422 1.907 1.907 0 0 0-.75-.135h-.903Z" fill="#686868"/><path stroke="#D0CFCF" stroke-width=".5" d="M164.25 203.75h.5V46.25h-.5z"/><path d="M208.562 30.813v1.324h-6.146l-.082-1.026 3.557-5.642h1.341l-1.453 2.431-1.769 2.913h4.552Zm-.966-5.344V34h-1.688v-8.531h1.688Z" fill="#686868"/><path stroke="#D0CFCF" stroke-width=".5" d="M207.25 203.75h.5V46.25h-.5z"/><path d="m247.174 30.115-1.348-.322.486-4.324h4.793v1.365h-3.404l-.211 1.893a2.74 2.74 0 0 1 .516-.211c.23-.078.488-.118.773-.118.414 0 .782.065 1.102.194.32.129.592.316.814.562.227.246.399.547.516.903.117.355.176.758.176 1.207 0 .379-.059.74-.176 1.084-.117.34-.295.644-.533.914a2.492 2.492 0 0 1-.897.627c-.359.152-.785.228-1.277.228a3.49 3.49 0 0 1-1.066-.164 2.92 2.92 0 0 1-.92-.486 2.499 2.499 0 0 1-.651-.78 2.365 2.365 0 0 1-.252-1.054h1.676c.023.242.086.451.188.627.105.172.244.305.416.398.171.094.373.14.603.14.215 0 .398-.04.551-.122a1 1 0 0 0 .369-.34c.094-.148.162-.32.205-.516a2.8 2.8 0 0 0 .07-.644c0-.23-.027-.44-.082-.627a1.318 1.318 0 0 0-.252-.486 1.11 1.11 0 0 0-.433-.317 1.514 1.514 0 0 0-.604-.111c-.312 0-.554.049-.726.146a1.746 1.746 0 0 0-.422.334Z" fill="#686868"/><path stroke="#D0CFCF" stroke-width=".5" d="M250.25 203.75h.5V46.25h-.5z"/><path d="M292.939 25.38h.247v1.349h-.1c-.445 0-.842.066-1.19.199a2.448 2.448 0 0 0-.884.568 2.464 2.464 0 0 0-.551.879 3.36 3.36 0 0 0-.188 1.154v1.418c0 .305.03.575.088.809.063.23.151.424.264.58a1.2 1.2 0 0 0 .41.346c.156.074.332.111.527.111.184 0 .35-.04.499-.117a1.11 1.11 0 0 0 .386-.328 1.5 1.5 0 0 0 .246-.504c.059-.196.088-.409.088-.639a2.2 2.2 0 0 0-.088-.639 1.423 1.423 0 0 0-.246-.503 1.125 1.125 0 0 0-.398-.334 1.163 1.163 0 0 0-.528-.118 1.344 1.344 0 0 0-1.171.656 1.256 1.256 0 0 0-.182.604l-.51-.328c.012-.3.074-.586.188-.855a2.34 2.34 0 0 1 .48-.715c.207-.211.455-.375.744-.492.289-.122.616-.182.979-.182.398 0 .748.076 1.049.228.304.153.558.362.761.627.203.266.356.573.457.92.102.348.153.719.153 1.113 0 .415-.069.8-.205 1.155a2.7 2.7 0 0 1-.58.931c-.25.266-.551.473-.903.621a3.011 3.011 0 0 1-1.183.223c-.453 0-.866-.082-1.237-.246a2.818 2.818 0 0 1-.949-.703 3.17 3.17 0 0 1-.615-1.072 4.194 4.194 0 0 1-.211-1.36v-.656c0-.687.1-1.316.299-1.887.203-.574.494-1.07.873-1.488a3.883 3.883 0 0 1 1.371-.978c.535-.23 1.139-.346 1.81-.346Z" fill="#686868"/><path stroke="#D0CFCF" stroke-width=".5" d="M293.25 203.75h.5V46.25h-.5z"/><path d="M337.381 25.469v.908L334.082 34h-1.781l3.299-7.213h-4.248V25.47h6.029Z" fill="#686868"/><path stroke="#D0CFCF" stroke-width=".5" d="M336.25 203.75h.5V46.25h-.5z"/><path d="M380.334 31.662c0 .535-.125.986-.375 1.354-.25.363-.594.638-1.031.826a3.758 3.758 0 0 1-1.477.275 3.794 3.794 0 0 1-1.482-.275 2.37 2.37 0 0 1-1.037-.826c-.254-.368-.381-.819-.381-1.354 0-.36.072-.683.217-.973a2.19 2.19 0 0 1 .603-.75 2.75 2.75 0 0 1 .92-.48c.352-.113.734-.17 1.148-.17.555 0 1.051.098 1.489.293.437.195.781.47 1.031.826.25.356.375.774.375 1.254Zm-1.699-.111a1.39 1.39 0 0 0-.153-.674 1.023 1.023 0 0 0-.416-.44 1.249 1.249 0 0 0-.627-.152c-.238 0-.447.05-.627.152-.179.102-.32.248-.421.44a1.438 1.438 0 0 0-.147.674c0 .258.049.48.147.668.101.187.242.332.421.433.184.098.397.147.639.147s.451-.049.627-.147a.994.994 0 0 0 .41-.433c.098-.188.147-.41.147-.668Zm1.517-3.82c0 .433-.115.818-.345 1.154a2.308 2.308 0 0 1-.961.78c-.407.187-.871.28-1.395.28-.527 0-.996-.093-1.406-.28a2.302 2.302 0 0 1-.961-.78 1.995 1.995 0 0 1-.346-1.155c0-.515.116-.949.346-1.3.234-.356.555-.625.961-.809.41-.183.875-.275 1.394-.275.528 0 .995.091 1.401.275.41.184.73.453.961.809.234.351.351.785.351 1.3Zm-1.687.076c0-.23-.041-.43-.123-.598a.918.918 0 0 0-.352-.398 1.012 1.012 0 0 0-.551-.141c-.21 0-.392.045-.544.135a.892.892 0 0 0-.346.392 1.439 1.439 0 0 0-.117.61c0 .23.039.433.117.609a.96.96 0 0 0 .351.404 1 1 0 0 0 .551.147.922.922 0 0 0 .891-.55c.082-.177.123-.38.123-.61Z" fill="#686868"/><path stroke="#D0CFCF" stroke-width=".5" d="M379.25 203.75h.5V46.25h-.5z"/><path d="M418.781 32.717h.112c.468 0 .871-.057 1.207-.17a2.16 2.16 0 0 0 .838-.504 2.03 2.03 0 0 0 .486-.803c.105-.32.158-.683.158-1.09v-1.617c0-.308-.031-.58-.094-.814a1.6 1.6 0 0 0-.258-.58 1.095 1.095 0 0 0-.386-.352.997.997 0 0 0-.481-.117.897.897 0 0 0-.498.14c-.144.09-.267.213-.369.37a1.95 1.95 0 0 0-.228.539 2.516 2.516 0 0 0-.077.627c0 .218.026.427.077.627.05.195.127.369.228.521.102.149.229.268.381.358.152.085.332.128.539.128.199 0 .377-.037.533-.11.16-.079.295-.18.405-.306.113-.125.199-.263.257-.416a1.2 1.2 0 0 0 .094-.462l.557.304c0 .274-.059.543-.176.809a2.484 2.484 0 0 1-1.213 1.242 2.033 2.033 0 0 1-.879.193 2.47 2.47 0 0 1-1.06-.216 2.317 2.317 0 0 1-.786-.61 2.769 2.769 0 0 1-.48-.914 3.762 3.762 0 0 1-.164-1.13c0-.415.066-.803.199-1.167.137-.363.33-.683.58-.96.254-.278.557-.495.908-.651.356-.16.75-.24 1.184-.24a2.626 2.626 0 0 1 2.098.967c.254.304.449.67.586 1.095.14.426.211.899.211 1.418v.586c0 .555-.061 1.07-.182 1.547a4.5 4.5 0 0 1-.533 1.295c-.235.383-.528.71-.879.984a3.764 3.764 0 0 1-1.213.627 5.158 5.158 0 0 1-1.547.217h-.135v-1.365Z" fill="#686868"/><path stroke="#D0CFCF" stroke-width=".5" d="M422.25 203.75h.5V46.25h-.5z"/><path d="M464.699 25.451V34h-1.687v-6.604l-2.028.645v-1.33l3.534-1.26h.181Zm9.02 3.533v1.477c0 .64-.069 1.193-.205 1.658-.137.461-.334.84-.592 1.137a2.34 2.34 0 0 1-.908.65c-.352.14-.743.211-1.172.211a3.44 3.44 0 0 1-.961-.129 2.417 2.417 0 0 1-.803-.416 2.651 2.651 0 0 1-.609-.709 3.64 3.64 0 0 1-.387-1.031 6.258 6.258 0 0 1-.135-1.371v-1.477c0-.64.069-1.19.205-1.646.141-.461.338-.838.592-1.131.258-.293.563-.508.914-.645.352-.14.742-.21 1.172-.21.344 0 .662.044.955.134.297.086.565.221.803.405.238.183.441.42.609.709.168.285.297.627.387 1.025.09.395.135.848.135 1.36Zm-1.694 1.7v-1.928a5.46 5.46 0 0 0-.052-.809 2.38 2.38 0 0 0-.147-.586 1.225 1.225 0 0 0-.246-.398.9.9 0 0 0-.334-.223 1.18 1.18 0 0 0-.416-.07c-.191 0-.361.037-.51.111a.954.954 0 0 0-.369.358 1.92 1.92 0 0 0-.234.644c-.051.266-.076.59-.076.973v1.928c0 .308.015.58.047.814.035.234.085.436.152.604.07.164.152.298.246.404a.9.9 0 0 0 .334.222c.129.047.269.07.422.07.187 0 .353-.036.498-.11a.985.985 0 0 0 .375-.364c.105-.168.183-.386.234-.656a5.4 5.4 0 0 0 .076-.984Z" fill="#686868"/><path stroke="#D0CFCF" stroke-width=".5" d="M465.25 203.75h.5V46.25h-.5z"/><path d="M507.699 25.451V34h-1.687v-6.604l-2.028.645v-1.33l3.534-1.26h.181Zm7.391 0V34h-1.688v-6.604l-2.027.645v-1.33l3.533-1.26h.182Z" fill="#686868"/><path stroke="#D0CFCF" stroke-width=".5" d="M508.25 203.75h.5V46.25h-.5z"/><path d="M553.705 25.469V34h-1.758l-3.427-5.719V34h-1.758v-8.531h1.758l3.433 5.724V25.47h1.752Z" fill="#686868"/><path stroke="#D0CFCF" stroke-width=".5" d="M551.25 203.75h.5V46.25h-.5z"/><path d="M593.699 25.451V34h-1.687v-6.604l-2.028.645v-1.33l3.534-1.26h.181Z" fill="#686868"/><path stroke="#D0CFCF" stroke-width=".5" d="M594.25 203.75h.5V46.25h-.5z"/><path d="M638.422 32.682V34h-5.836v-1.125l2.76-2.959c.277-.309.496-.58.656-.814a3.25 3.25 0 0 0 .346-.64c.074-.19.111-.372.111-.544a1.55 1.55 0 0 0-.129-.662.96.96 0 0 0-.381-.434 1.136 1.136 0 0 0-.609-.152c-.258 0-.481.062-.668.187a1.193 1.193 0 0 0-.422.522 1.927 1.927 0 0 0-.141.756h-1.693c0-.508.121-.973.363-1.395a2.66 2.66 0 0 1 1.026-1.013c.441-.254.965-.381 1.57-.381.598 0 1.102.097 1.512.293.414.191.726.468.937.832.215.36.322.789.322 1.289 0 .281-.044.556-.134.826a3.74 3.74 0 0 1-.387.797 6.351 6.351 0 0 1-.598.797c-.234.27-.494.549-.779.838l-1.482 1.664h3.656Z" fill="#686868"/><path stroke="#D0CFCF" stroke-width=".5" d="M637.25 203.75h.5V46.25h-.5z"/><path d="M677.314 29.002h.903c.289 0 .527-.049.715-.146a.967.967 0 0 0 .416-.422 1.4 1.4 0 0 0 .14-.64 1.26 1.26 0 0 0-.129-.58.877.877 0 0 0-.38-.398c-.172-.097-.389-.146-.651-.146a1.34 1.34 0 0 0-.574.123 1.053 1.053 0 0 0-.422.346.91.91 0 0 0-.158.539h-1.694c0-.469.125-.877.375-1.225a2.55 2.55 0 0 1 1.02-.814 3.335 3.335 0 0 1 1.406-.293c.578 0 1.084.093 1.518.281a2.24 2.24 0 0 1 1.013.814c.243.36.364.805.364 1.336 0 .27-.063.532-.188.785-.125.25-.304.477-.539.68-.23.2-.511.36-.844.48a3.35 3.35 0 0 1-1.119.176h-1.172v-.896Zm0 1.283v-.873h1.172c.465 0 .873.053 1.225.158.351.106.646.258.885.457.238.196.418.428.539.698.121.265.181.56.181.884 0 .399-.076.754-.228 1.067a2.23 2.23 0 0 1-.645.785 2.929 2.929 0 0 1-.961.492c-.367.11-.767.164-1.201.164-.359 0-.713-.049-1.06-.146a3.152 3.152 0 0 1-.938-.451 2.325 2.325 0 0 1-.668-.762c-.164-.309-.246-.674-.246-1.096h1.693c0 .219.055.414.165.586.109.172.259.307.451.404.195.098.412.147.65.147.27 0 .5-.049.692-.147a1.06 1.06 0 0 0 .445-.422 1.26 1.26 0 0 0 .158-.638c0-.313-.057-.563-.17-.75a1.006 1.006 0 0 0-.486-.422 1.907 1.907 0 0 0-.75-.135h-.903Z" fill="#686868"/><path stroke="#D0CFCF" stroke-width=".5" d="M680.25 203.75h.5V46.25h-.5z"/><path d="M724.562 30.813v1.324h-6.146l-.082-1.026 3.557-5.642h1.341l-1.453 2.431-1.769 2.913h4.552Zm-.966-5.344V34h-1.688v-8.531h1.688Z" fill="#686868"/><path stroke="#D0CFCF" stroke-width=".5" d="M723.25 203.75h.5V46.25h-.5z"/><path d="m763.174 30.115-1.348-.322.486-4.324h4.793v1.365h-3.404l-.211 1.893a2.74 2.74 0 0 1 .516-.211c.23-.078.488-.118.773-.118.414 0 .782.065 1.102.194.32.129.592.316.814.562.227.246.399.547.516.903.117.355.176.758.176 1.207 0 .379-.059.74-.176 1.084-.117.34-.295.644-.533.914a2.492 2.492 0 0 1-.897.627c-.359.152-.785.228-1.277.228a3.49 3.49 0 0 1-1.066-.164 2.92 2.92 0 0 1-.92-.486 2.499 2.499 0 0 1-.651-.78 2.365 2.365 0 0 1-.252-1.054h1.676c.023.242.086.451.188.627.105.172.244.305.416.398.171.094.373.14.603.14.215 0 .398-.04.551-.122a1 1 0 0 0 .369-.34c.094-.148.162-.32.205-.516a2.8 2.8 0 0 0 .07-.644c0-.23-.027-.44-.082-.627a1.318 1.318 0 0 0-.252-.486 1.11 1.11 0 0 0-.433-.317 1.514 1.514 0 0 0-.604-.111c-.312 0-.554.049-.726.146a1.746 1.746 0 0 0-.422.334Z" fill="#686868"/><path stroke="#D0CFCF" stroke-width=".5" d="M766.25 203.75h.5V46.25h-.5z"/><path d="M808.939 25.38h.247v1.349h-.1c-.445 0-.842.066-1.19.199a2.448 2.448 0 0 0-.884.568 2.464 2.464 0 0 0-.551.879 3.36 3.36 0 0 0-.188 1.154v1.418c0 .305.03.575.088.809.063.23.151.424.264.58a1.2 1.2 0 0 0 .41.346c.156.074.332.111.527.111.184 0 .35-.04.499-.117a1.11 1.11 0 0 0 .386-.328 1.5 1.5 0 0 0 .246-.504c.059-.196.088-.409.088-.639a2.2 2.2 0 0 0-.088-.639 1.423 1.423 0 0 0-.246-.503 1.125 1.125 0 0 0-.398-.334 1.163 1.163 0 0 0-.528-.118 1.344 1.344 0 0 0-1.171.656 1.256 1.256 0 0 0-.182.604l-.51-.328c.012-.3.074-.586.188-.855a2.34 2.34 0 0 1 .48-.715c.207-.211.455-.375.744-.492.289-.122.616-.182.979-.182.398 0 .748.076 1.049.228.304.153.558.362.761.627.203.266.356.573.457.92.102.348.153.719.153 1.113 0 .415-.069.8-.205 1.155a2.7 2.7 0 0 1-.58.931c-.25.266-.551.473-.903.621a3.011 3.011 0 0 1-1.183.223c-.453 0-.866-.082-1.237-.246a2.818 2.818 0 0 1-.949-.703 3.17 3.17 0 0 1-.615-1.072 4.194 4.194 0 0 1-.211-1.36v-.656c0-.687.1-1.316.299-1.887.203-.574.494-1.07.873-1.488a3.883 3.883 0 0 1 1.371-.978c.535-.23 1.139-.346 1.81-.346Z" fill="#686868"/><path stroke="#D0CFCF" stroke-width=".5" d="M809.25 203.75h.5V46.25h-.5z"/><path d="M853.381 25.469v.908L850.082 34h-1.781l3.299-7.213h-4.248V25.47h6.029Z" fill="#686868"/><path stroke="#D0CFCF" stroke-width=".5" d="M852.25 203.75h.5V46.25h-.5z"/><path d="M896.334 31.662c0 .535-.125.986-.375 1.354-.25.363-.594.638-1.031.826a3.758 3.758 0 0 1-1.477.275 3.794 3.794 0 0 1-1.482-.275 2.37 2.37 0 0 1-1.037-.826c-.254-.368-.381-.819-.381-1.354 0-.36.072-.683.217-.973a2.19 2.19 0 0 1 .603-.75 2.75 2.75 0 0 1 .92-.48c.352-.113.734-.17 1.148-.17.555 0 1.051.098 1.489.293.437.195.781.47 1.031.826.25.356.375.774.375 1.254Zm-1.699-.111a1.39 1.39 0 0 0-.153-.674 1.023 1.023 0 0 0-.416-.44 1.249 1.249 0 0 0-.627-.152c-.238 0-.447.05-.627.152-.179.102-.32.248-.421.44a1.438 1.438 0 0 0-.147.674c0 .258.049.48.147.668.101.187.242.332.421.433.184.098.397.147.639.147s.451-.049.627-.147a.994.994 0 0 0 .41-.433c.098-.188.147-.41.147-.668Zm1.517-3.82c0 .433-.115.818-.345 1.154a2.308 2.308 0 0 1-.961.78c-.407.187-.871.28-1.395.28-.527 0-.996-.093-1.406-.28a2.302 2.302 0 0 1-.961-.78 1.995 1.995 0 0 1-.346-1.155c0-.515.116-.949.346-1.3.234-.356.555-.625.961-.809.41-.183.875-.275 1.394-.275.528 0 .995.091 1.401.275.41.184.73.453.961.809.234.351.351.785.351 1.3Zm-1.687.076c0-.23-.041-.43-.123-.598a.918.918 0 0 0-.352-.398 1.012 1.012 0 0 0-.551-.141c-.21 0-.392.045-.544.135a.892.892 0 0 0-.346.392 1.439 1.439 0 0 0-.117.61c0 .23.039.433.117.609a.96.96 0 0 0 .351.404 1 1 0 0 0 .551.147.922.922 0 0 0 .891-.55c.082-.177.123-.38.123-.61Z" fill="#686868"/><path stroke="#D0CFCF" stroke-width=".5" d="M895.25 203.75h.5V46.25h-.5z"/><path d="M934.781 32.717h.112c.468 0 .871-.057 1.207-.17a2.16 2.16 0 0 0 .838-.504 2.03 2.03 0 0 0 .486-.803c.105-.32.158-.683.158-1.09v-1.617c0-.308-.031-.58-.094-.814a1.6 1.6 0 0 0-.258-.58 1.095 1.095 0 0 0-.386-.352.997.997 0 0 0-.481-.117.897.897 0 0 0-.498.14c-.144.09-.267.213-.369.37a1.95 1.95 0 0 0-.228.539 2.516 2.516 0 0 0-.077.627c0 .218.026.427.077.627.05.195.127.369.228.521.102.149.229.268.381.358.152.085.332.128.539.128.199 0 .377-.037.533-.11.16-.079.295-.18.405-.306.113-.125.199-.263.257-.416a1.2 1.2 0 0 0 .094-.462l.557.304c0 .274-.059.543-.176.809a2.484 2.484 0 0 1-1.213 1.242 2.033 2.033 0 0 1-.879.193 2.47 2.47 0 0 1-1.06-.216 2.317 2.317 0 0 1-.786-.61 2.769 2.769 0 0 1-.48-.914 3.762 3.762 0 0 1-.164-1.13c0-.415.066-.803.199-1.167.137-.363.33-.683.58-.96.254-.278.557-.495.908-.651.356-.16.75-.24 1.184-.24a2.626 2.626 0 0 1 2.098.967c.254.304.449.67.586 1.095.14.426.211.899.211 1.418v.586c0 .555-.061 1.07-.182 1.547a4.5 4.5 0 0 1-.533 1.295c-.235.383-.528.71-.879.984a3.764 3.764 0 0 1-1.213.627 5.158 5.158 0 0 1-1.547.217h-.135v-1.365Z" fill="#686868"/><path stroke="#D0CFCF" stroke-width=".5" d="M938.25 203.75h.5V46.25h-.5z"/><path d="M980.699 25.451V34h-1.687v-6.604l-2.028.645v-1.33l3.534-1.26h.181Zm9.02 3.533v1.477c0 .64-.069 1.193-.205 1.658-.137.461-.334.84-.592 1.137a2.34 2.34 0 0 1-.908.65c-.352.14-.743.211-1.172.211a3.44 3.44 0 0 1-.961-.129 2.417 2.417 0 0 1-.803-.416 2.651 2.651 0 0 1-.609-.709 3.64 3.64 0 0 1-.387-1.031 6.258 6.258 0 0 1-.135-1.371v-1.477c0-.64.069-1.19.205-1.646.141-.461.338-.838.592-1.131.258-.293.563-.508.914-.645.352-.14.742-.21 1.172-.21.344 0 .662.044.955.134.297.086.565.221.803.405.238.183.441.42.609.709.168.285.297.627.387 1.025.09.395.135.848.135 1.36Zm-1.694 1.7v-1.928a5.46 5.46 0 0 0-.052-.809 2.38 2.38 0 0 0-.147-.586 1.225 1.225 0 0 0-.246-.398.9.9 0 0 0-.334-.223 1.18 1.18 0 0 0-.416-.07c-.191 0-.361.037-.51.111a.954.954 0 0 0-.369.358 1.92 1.92 0 0 0-.234.644c-.051.266-.076.59-.076.973v1.928c0 .308.015.58.047.814.035.234.085.436.152.604.07.164.152.298.246.404a.9.9 0 0 0 .334.222c.129.047.269.07.422.07.187 0 .353-.036.498-.11a.985.985 0 0 0 .375-.364c.105-.168.183-.386.234-.656a5.4 5.4 0 0 0 .076-.984Z" fill="#686868"/><path stroke="#D0CFCF" stroke-width=".5" d="M981.25 203.75h.5V46.25h-.5z"/><path d="M1023.7 25.451V34h-1.69v-6.604l-2.03.645v-1.33l3.54-1.26h.18Zm7.39 0V34h-1.69v-6.604l-2.02.645v-1.33l3.53-1.26h.18Z" fill="#686868"/><path stroke="#D0CFCF" stroke-width=".5" d="M1024.25 203.75h.5V46.25h-.5z"/><path d="M1063.56 25.469h1.49l2.19 6.263 2.2-6.263h1.48L1067.84 34h-1.19l-3.09-8.531Zm-.8 0h1.48l.27 6.105V34h-1.75v-8.531Zm7.48 0h1.49V34h-1.76v-2.426l.27-6.105Z" fill="#686868"/><path stroke="#D0CFCF" stroke-width=".5" d="M1067.25 203.75h.5V46.25h-.5z"/></g><path d="M13.336 73.928c0 .84-.149 1.576-.445 2.209a3.36 3.36 0 0 1-1.278 1.465c-.55.343-1.183.515-1.898.515-.707 0-1.338-.17-1.893-.51-.554-.34-.984-.824-1.289-1.453-.304-.632-.459-1.36-.463-2.18v-.421c0-.84.15-1.578.451-2.215.305-.64.733-1.131 1.284-1.47.554-.345 1.187-.516 1.898-.516.711 0 1.342.171 1.893.515.554.34.982.83 1.283 1.47.305.638.457 1.374.457 2.21v.38Zm-1.781-.387c0-.894-.16-1.574-.48-2.039-.321-.465-.778-.697-1.372-.697-.59 0-1.045.23-1.365.691-.32.457-.483 1.129-.486 2.016v.416c0 .87.16 1.547.48 2.027.32.48.781.72 1.383.72.59 0 1.043-.23 1.36-.69.316-.466.476-1.141.48-2.028v-.416Zm8.691.973h-3.375V78h-1.758v-8.531h5.555v1.424h-3.797v2.203h3.375v1.418Zm7.074 0h-3.375V78h-1.758v-8.531h5.555v1.424h-3.797v2.203h3.375v1.418Z" fill="#686868"/><path stroke="#D0CFCF" stroke-width=".5" d="M36.25 92.25h1031.5v.5H36.25zm0-34h1031.5v.5H36.25z"/><path stroke="#D0CFCF" stroke-linecap="square" d="M39.5 91.55v-5m21 5v-5M43 91.5v-5m21 5v-5m-17.5 5v-11m21 11v-11M57 91.5v-17m-7 17v-5m21 5v-5m-17.5 5v-5m21 5v-5m8 5.05v-5m21 5v-5M86 91.5v-5m21 5v-5m-17.5 5v-11m21 11v-11m-10.5 11v-17m-7 17v-5m21 5v-5m-17.5 5v-5m21 5v-5m8 5.05v-5m21 5v-5M129 91.5v-5m21 5v-5m-17.5 5v-11m21 11v-11m-10.5 11v-17m-7 17v-5m21 5v-5m-17.5 5v-5m21 5v-5m8 5.05v-5m21 5v-5M172 91.5v-5m21 5v-5m-17.5 5v-11m21 11v-11m-10.5 11v-17m-7 17v-5m21 5v-5m-17.5 5v-5m21 5v-5m8 5.05v-5m21 5v-5M215 91.5v-5m21 5v-5m-17.5 5v-11m21 11v-11m-10.5 11v-17m-7 17v-5m21 5v-5m-17.5 5v-5m21 5v-5m8 5.05v-5m21 5v-5M258 91.5v-5m21 5v-5m-17.5 5v-11m21 11v-11m-10.5 11v-17m-7 17v-5m21 5v-5m-17.5 5v-5m21 5v-5m8 5.05v-5m21 5v-5M301 91.5v-5m21 5v-5m-17.5 5v-11m21 11v-11m-10.5 11v-17m-7 17v-5m21 5v-5m-17.5 5v-5m21 5v-5m8 5.05v-5m21 5v-5M344 91.5v-5m21 5v-5m-17.5 5v-11m21 11v-11m-10.5 11v-17m-7 17v-5m21 5v-5m-17.5 5v-5m21 5v-5m8 5.05v-5m21 5v-5M387 91.5v-5m21 5v-5m-17.5 5v-11m21 11v-11m-10.5 11v-17m-7 17v-5m21 5v-5m-17.5 5v-5m21 5v-5m8 5.05v-5m21 5v-5M430 91.5v-5m21 5v-5m-17.5 5v-11m21 11v-11m-10.5 11v-17m-7 17v-5m21 5v-5m-17.5 5v-5m21 5v-5m8 5.05v-5m21 5v-5M473 91.5v-5m21 5v-5m-17.5 5v-11m21 11v-11m-10.5 11v-17m-7 17v-5m21 5v-5m-17.5 5v-5m21 5v-5m8 5.05v-5m21 5v-5M516 91.5v-5m21 5v-5m-17.5 5v-11m21 11v-11m-10.5 11v-17m-7 17v-5m21 5v-5m-17.5 5v-5m21 5v-5m8 5.05v-5m21 5v-5M559 91.5v-5m21 5v-5m-17.5 5v-11m21 11v-11m-10.5 11v-17m-7 17v-5m21 5v-5m-17.5 5v-5m21 5v-5m8 5.05v-5m21 5v-5M602 91.5v-5m21 5v-5m-17.5 5v-11m21 11v-11m-10.5 11v-17m-7 17v-5m21 5v-5m-17.5 5v-5m21 5v-5m8 5.05v-5m21 5v-5M645 91.5v-5m21 5v-5m-17.5 5v-11m21 11v-11m-10.5 11v-17m-7 17v-5m21 5v-5m-17.5 5v-5m21 5v-5m8 5.05v-5m21 5v-5M688 91.5v-5m21 5v-5m-17.5 5v-11m21 11v-11m-10.5 11v-17m-7 17v-5m21 5v-5m-17.5 5v-5m21 5v-5m8 5.05v-5m21 5v-5M731 91.5v-5m21 5v-5m-17.5 5v-11m21 11v-11m-10.5 11v-17m-7 17v-5m21 5v-5m-17.5 5v-5m21 5v-5m8 5.05v-5m21 5v-5M774 91.5v-5m21 5v-5m-17.5 5v-11m21 11v-11m-10.5 11v-17m-7 17v-5m21 5v-5m-17.5 5v-5m21 5v-5m8 5.05v-5m21 5v-5M817 91.5v-5m21 5v-5m-17.5 5v-11m21 11v-11m-10.5 11v-17m-7 17v-5m21 5v-5m-17.5 5v-5m21 5v-5m8 5.05v-5m21 5v-5M860 91.5v-5m21 5v-5m-17.5 5v-11m21 11v-11m-10.5 11v-17m-7 17v-5m21 5v-5m-17.5 5v-5m21 5v-5m8 5.05v-5m21 5v-5M903 91.5v-5m21 5v-5m-17.5 5v-11m21 11v-11m-10.5 11v-17m-7 17v-5m21 5v-5m-17.5 5v-5m21 5v-5m8 5.05v-5m21 5v-5M946 91.5v-5m21 5v-5m-17.5 5v-11m21 11v-11m-10.5 11v-17m-7 17v-5m21 5v-5m-17.5 5v-5m21 5v-5m8 5.05v-5m21 5v-5M989 91.5v-5m21 5v-5m-17.5 5v-11m21 11v-11m-10.5 11v-17m-7 17v-5m21 5v-5m-17.5 5v-5m21 5v-5m8 5.05v-5m21 5v-5M1032 91.5v-5m21 5v-5m-17.5 5v-11m21 11v-11m-10.5 11v-17m-7 17v-5m21 5v-5m-17.5 5v-5m21 5v-5"/><path d="M17.639 112.762c0-.332-.117-.586-.352-.762-.234-.18-.656-.367-1.265-.562-.61-.2-1.092-.395-1.448-.586-.969-.524-1.453-1.229-1.453-2.116 0-.461.129-.871.387-1.23.262-.363.635-.647 1.119-.85a4.236 4.236 0 0 1 1.64-.304c.61 0 1.153.111 1.63.334.476.218.845.529 1.107.931.265.403.398.86.398 1.371h-1.758c0-.39-.122-.693-.369-.908-.246-.219-.591-.328-1.037-.328-.43 0-.763.092-1.002.275a.852.852 0 0 0-.357.715c0 .278.139.51.416.697.281.188.693.364 1.236.528 1 .301 1.729.674 2.186 1.119.457.445.685 1 .685 1.664 0 .738-.279 1.318-.838 1.74-.558.418-1.31.627-2.255.627a4.391 4.391 0 0 1-1.793-.357c-.54-.242-.951-.572-1.237-.99-.281-.418-.422-.903-.422-1.454h1.764c0 .942.563 1.413 1.688 1.413.418 0 .744-.084.978-.252a.838.838 0 0 0 .352-.715ZM21.098 115v-8.531h2.988c1.035 0 1.82.199 2.355.597.536.395.803.975.803 1.741 0 .418-.107.787-.322 1.107a1.867 1.867 0 0 1-.897.697c.438.11.782.33 1.032.662.254.332.38.739.38 1.219 0 .82-.261 1.442-.785 1.863-.523.422-1.27.637-2.238.645h-3.316Zm1.758-3.715v2.303h1.505c.414 0 .737-.098.967-.293.235-.199.352-.473.352-.82 0-.782-.405-1.178-1.213-1.19h-1.611Zm0-1.242h1.3c.887-.016 1.33-.369 1.33-1.061 0-.386-.113-.664-.34-.832-.222-.171-.576-.257-1.06-.257h-1.23v2.15Z" fill="#686868"/><path stroke="#D0CFCF" stroke-width=".5" d="M36.25 129.25h1031.5v.5H36.25z"/><path stroke="#D0CFCF" stroke-linecap="square" d="M39.5 128.55v-5m21 5v-5M43 128.5v-5m21 5v-5m-17.5 5v-11m21 11v-11m-10.5 11v-17m-7 17v-5m21 5v-5m-17.5 5v-5m21 5v-5m8 5.05v-5m21 5v-5M86 128.5v-5m21 5v-5m-17.5 5v-11m21 11v-11m-10.5 11v-17m-7 17v-5m21 5v-5m-17.5 5v-5m21 5v-5m8 5.05v-5m21 5v-5M129 128.5v-5m21 5v-5m-17.5 5v-11m21 11v-11m-10.5 11v-17m-7 17v-5m21 5v-5m-17.5 5v-5m21 5v-5m8 5.05v-5m21 5v-5M172 128.5v-5m21 5v-5m-17.5 5v-11m21 11v-11m-10.5 11v-17m-7 17v-5m21 5v-5m-17.5 5v-5m21 5v-5m8 5.05v-5m21 5v-5M215 128.5v-5m21 5v-5m-17.5 5v-11m21 11v-11m-10.5 11v-17m-7 17v-5m21 5v-5m-17.5 5v-5m21 5v-5m8 5.05v-5m21 5v-5M258 128.5v-5m21 5v-5m-17.5 5v-11m21 11v-11m-10.5 11v-17m-7 17v-5m21 5v-5m-17.5 5v-5m21 5v-5m8 5.05v-5m21 5v-5M301 128.5v-5m21 5v-5m-17.5 5v-11m21 11v-11m-10.5 11v-17m-7 17v-5m21 5v-5m-17.5 5v-5m21 5v-5m8 5.05v-5m21 5v-5M344 128.5v-5m21 5v-5m-17.5 5v-11m21 11v-11m-10.5 11v-17m-7 17v-5m21 5v-5m-17.5 5v-5m21 5v-5m8 5.05v-5m21 5v-5M387 128.5v-5m21 5v-5m-17.5 5v-11m21 11v-11m-10.5 11v-17m-7 17v-5m21 5v-5m-17.5 5v-5m21 5v-5m8 5.05v-5m21 5v-5M430 128.5v-5m21 5v-5m-17.5 5v-11m21 11v-11m-10.5 11v-17m-7 17v-5m21 5v-5m-17.5 5v-5m21 5v-5m8 5.05v-5m21 5v-5M473 128.5v-5m21 5v-5m-17.5 5v-11m21 11v-11m-10.5 11v-17m-7 17v-5m21 5v-5m-17.5 5v-5m21 5v-5m8 5.05v-5m21 5v-5M516 128.5v-5m21 5v-5m-17.5 5v-11m21 11v-11m-10.5 11v-17m-7 17v-5m21 5v-5m-17.5 5v-5m21 5v-5m8 5.05v-5m21 5v-5M559 128.5v-5m21 5v-5m-17.5 5v-11m21 11v-11m-10.5 11v-17m-7 17v-5m21 5v-5m-17.5 5v-5m21 5v-5m8 5.05v-5m21 5v-5M602 128.5v-5m21 5v-5m-17.5 5v-11m21 11v-11m-10.5 11v-17m-7 17v-5m21 5v-5m-17.5 5v-5m21 5v-5m8 5.05v-5m21 5v-5M645 128.5v-5m21 5v-5m-17.5 5v-11m21 11v-11m-10.5 11v-17m-7 17v-5m21 5v-5m-17.5 5v-5m21 5v-5m8 5.05v-5m21 5v-5M688 128.5v-5m21 5v-5m-17.5 5v-11m21 11v-11m-10.5 11v-17m-7 17v-5m21 5v-5m-17.5 5v-5m21 5v-5m8 5.05v-5m21 5v-5M731 128.5v-5m21 5v-5m-17.5 5v-11m21 11v-11m-10.5 11v-17m-7 17v-5m21 5v-5m-17.5 5v-5m21 5v-5m8 5.05v-5m21 5v-5M774 128.5v-5m21 5v-5m-17.5 5v-11m21 11v-11m-10.5 11v-17m-7 17v-5m21 5v-5m-17.5 5v-5m21 5v-5m8 5.05v-5m21 5v-5M817 128.5v-5m21 5v-5m-17.5 5v-11m21 11v-11m-10.5 11v-17m-7 17v-5m21 5v-5m-17.5 5v-5m21 5v-5m8 5.05v-5m21 5v-5M860 128.5v-5m21 5v-5m-17.5 5v-11m21 11v-11m-10.5 11v-17m-7 17v-5m21 5v-5m-17.5 5v-5m21 5v-5m8 5.05v-5m21 5v-5M903 128.5v-5m21 5v-5m-17.5 5v-11m21 11v-11m-10.5 11v-17m-7 17v-5m21 5v-5m-17.5 5v-5m21 5v-5m8 5.05v-5m21 5v-5M946 128.5v-5m21 5v-5m-17.5 5v-11m21 11v-11m-10.5 11v-17m-7 17v-5m21 5v-5m-17.5 5v-5m21 5v-5m8 5.05v-5m21 5v-5M989 128.5v-5m21 5v-5m-17.5 5v-11m21 11v-11m-10.5 11v-17m-7 17v-5m21 5v-5m-17.5 5v-5m21 5v-5m8 5.05v-5m21 5v-5m-17.5 4.95v-5m21 5v-5m-17.5 5v-11m21 11v-11m-10.5 11v-17m-7 17v-5m21 5v-5m-17.5 5v-5m21 5v-5"/><path d="M12.793 152v-8.531h2.625c.75 0 1.42.17 2.01.51a3.498 3.498 0 0 1 1.388 1.441c.332.621.498 1.328.498 2.121v.393c0 .793-.164 1.498-.492 2.115a3.48 3.48 0 0 1-1.377 1.435c-.593.34-1.263.512-2.01.516h-2.642Zm1.758-7.107v5.695h.85c.687 0 1.212-.225 1.576-.674.363-.449.548-1.092.556-1.928v-.451c0-.867-.18-1.523-.539-1.969-.36-.449-.885-.673-1.576-.673h-.867Zm9.705 3.984h-1.4V152h-1.758v-8.531h3.17c1.007 0 1.785.224 2.332.674.546.449.82 1.084.82 1.904 0 .582-.127 1.068-.38 1.459-.25.387-.632.695-1.143.926l1.845 3.486V152h-1.887l-1.6-3.123Zm-1.4-1.424h1.417c.442 0 .784-.111 1.026-.334.242-.226.363-.537.363-.931 0-.403-.115-.719-.346-.95-.226-.23-.576-.345-1.048-.345h-1.413v2.56Z" fill="#686868"/><path stroke="#D0CFCF" stroke-width=".5" d="M36.25 166.25h1031.5v.5H36.25z"/><path stroke="#D0CFCF" stroke-linecap="square" d="M39.5 165.55v-5m21 5v-5M43 165.5v-5m21 5v-5m-17.5 5v-11m21 11v-11m-10.5 11v-17m-7 17v-5m21 5v-5m-17.5 5v-5m21 5v-5m8 5.05v-5m21 5v-5M86 165.5v-5m21 5v-5m-17.5 5v-11m21 11v-11m-10.5 11v-17m-7 17v-5m21 5v-5m-17.5 5v-5m21 5v-5m8 5.05v-5m21 5v-5M129 165.5v-5m21 5v-5m-17.5 5v-11m21 11v-11m-10.5 11v-17m-7 17v-5m21 5v-5m-17.5 5v-5m21 5v-5m8 5.05v-5m21 5v-5M172 165.5v-5m21 5v-5m-17.5 5v-11m21 11v-11m-10.5 11v-17m-7 17v-5m21 5v-5m-17.5 5v-5m21 5v-5m8 5.05v-5m21 5v-5M215 165.5v-5m21 5v-5m-17.5 5v-11m21 11v-11m-10.5 11v-17m-7 17v-5m21 5v-5m-17.5 5v-5m21 5v-5m8 5.05v-5m21 5v-5M258 165.5v-5m21 5v-5m-17.5 5v-11m21 11v-11m-10.5 11v-17m-7 17v-5m21 5v-5m-17.5 5v-5m21 5v-5m8 5.05v-5m21 5v-5M301 165.5v-5m21 5v-5m-17.5 5v-11m21 11v-11m-10.5 11v-17m-7 17v-5m21 5v-5m-17.5 5v-5m21 5v-5m8 5.05v-5m21 5v-5M344 165.5v-5m21 5v-5m-17.5 5v-11m21 11v-11m-10.5 11v-17m-7 17v-5m21 5v-5m-17.5 5v-5m21 5v-5m8 5.05v-5m21 5v-5M387 165.5v-5m21 5v-5m-17.5 5v-11m21 11v-11m-10.5 11v-17m-7 17v-5m21 5v-5m-17.5 5v-5m21 5v-5m8 5.05v-5m21 5v-5M430 165.5v-5m21 5v-5m-17.5 5v-11m21 11v-11m-10.5 11v-17m-7 17v-5m21 5v-5m-17.5 5v-5m21 5v-5m8 5.05v-5m21 5v-5M473 165.5v-5m21 5v-5m-17.5 5v-11m21 11v-11m-10.5 11v-17m-7 17v-5m21 5v-5m-17.5 5v-5m21 5v-5m8 5.05v-5m21 5v-5M516 165.5v-5m21 5v-5m-17.5 5v-11m21 11v-11m-10.5 11v-17m-7 17v-5m21 5v-5m-17.5 5v-5m21 5v-5m8 5.05v-5m21 5v-5M559 165.5v-5m21 5v-5m-17.5 5v-11m21 11v-11m-10.5 11v-17m-7 17v-5m21 5v-5m-17.5 5v-5m21 5v-5m8 5.05v-5m21 5v-5M602 165.5v-5m21 5v-5m-17.5 5v-11m21 11v-11m-10.5 11v-17m-7 17v-5m21 5v-5m-17.5 5v-5m21 5v-5m8 5.05v-5m21 5v-5M645 165.5v-5m21 5v-5m-17.5 5v-11m21 11v-11m-10.5 11v-17m-7 17v-5m21 5v-5m-17.5 5v-5m21 5v-5m8 5.05v-5m21 5v-5M688 165.5v-5m21 5v-5m-17.5 5v-11m21 11v-11m-10.5 11v-17m-7 17v-5m21 5v-5m-17.5 5v-5m21 5v-5m8 5.05v-5m21 5v-5M731 165.5v-5m21 5v-5m-17.5 5v-11m21 11v-11m-10.5 11v-17m-7 17v-5m21 5v-5m-17.5 5v-5m21 5v-5m8 5.05v-5m21 5v-5M774 165.5v-5m21 5v-5m-17.5 5v-11m21 11v-11m-10.5 11v-17m-7 17v-5m21 5v-5m-17.5 5v-5m21 5v-5m8 5.05v-5m21 5v-5M817 165.5v-5m21 5v-5m-17.5 5v-11m21 11v-11m-10.5 11v-17m-7 17v-5m21 5v-5m-17.5 5v-5m21 5v-5m8 5.05v-5m21 5v-5M860 165.5v-5m21 5v-5m-17.5 5v-11m21 11v-11m-10.5 11v-17m-7 17v-5m21 5v-5m-17.5 5v-5m21 5v-5m8 5.05v-5m21 5v-5M903 165.5v-5m21 5v-5m-17.5 5v-11m21 11v-11m-10.5 11v-17m-7 17v-5m21 5v-5m-17.5 5v-5m21 5v-5m8 5.05v-5m21 5v-5M946 165.5v-5m21 5v-5m-17.5 5v-11m21 11v-11m-10.5 11v-17m-7 17v-5m21 5v-5m-17.5 5v-5m21 5v-5m8 5.05v-5m21 5v-5M989 165.5v-5m21 5v-5m-17.5 5v-11m21 11v-11m-10.5 11v-17m-7 17v-5m21 5v-5m-17.5 5v-5m21 5v-5m8 5.05v-5m21 5v-5m-17.5 4.95v-5m21 5v-5m-17.5 5v-11m21 11v-11m-10.5 11v-17m-7 17v-5m21 5v-5m-17.5 5v-5m21 5v-5"/><path d="M18.512 184.928c0 .84-.149 1.576-.446 2.209a3.34 3.34 0 0 1-1.277 1.465c-.55.343-1.184.515-1.898.515-.707 0-1.338-.17-1.893-.51-.555-.339-.984-.824-1.289-1.453-.305-.633-.459-1.359-.463-2.179v-.422c0-.84.15-1.578.451-2.215.305-.641.733-1.131 1.284-1.471.554-.344 1.187-.515 1.898-.515.71 0 1.342.171 1.893.515.554.34.982.83 1.283 1.471.304.637.457 1.373.457 2.209v.381Zm-1.782-.387c0-.895-.16-1.574-.48-2.039-.32-.465-.777-.697-1.371-.697-.59 0-1.045.23-1.365.691-.32.457-.483 1.129-.487 2.016v.416c0 .871.16 1.547.48 2.027.321.481.782.721 1.384.721.59 0 1.043-.231 1.359-.692.316-.464.477-1.14.48-2.027v-.416ZM27.227 189h-1.758l-3.422-5.613V189h-1.758v-8.531h1.758l3.428 5.625v-5.625h1.752V189Z" fill="#686868"/><path stroke="#D0CFCF" stroke-width=".5" d="M36.25 203.25h1031.5v.5H36.25z"/><path stroke="#D0CFCF" stroke-linecap="square" d="M39.5 202.55v-5m21 5v-5M43 202.5v-5m21 5v-5m-17.5 5v-11m21 11v-11m-10.5 11v-17m-7 17v-5m21 5v-5m-17.5 5v-5m21 5v-5m8 5.05v-5m21 5v-5M86 202.5v-5m21 5v-5m-17.5 5v-11m21 11v-11m-10.5 11v-17m-7 17v-5m21 5v-5m-17.5 5v-5m21 5v-5m8 5.05v-5m21 5v-5M129 202.5v-5m21 5v-5m-17.5 5v-11m21 11v-11m-10.5 11v-17m-7 17v-5m21 5v-5m-17.5 5v-5m21 5v-5m8 5.05v-5m21 5v-5M172 202.5v-5m21 5v-5m-17.5 5v-11m21 11v-11m-10.5 11v-17m-7 17v-5m21 5v-5m-17.5 5v-5m21 5v-5m8 5.05v-5m21 5v-5M215 202.5v-5m21 5v-5m-17.5 5v-11m21 11v-11m-10.5 11v-17m-7 17v-5m21 5v-5m-17.5 5v-5m21 5v-5m8 5.05v-5m21 5v-5M258 202.5v-5m21 5v-5m-17.5 5v-11m21 11v-11m-10.5 11v-17m-7 17v-5m21 5v-5m-17.5 5v-5m21 5v-5m8 5.05v-5m21 5v-5M301 202.5v-5m21 5v-5m-17.5 5v-11m21 11v-11m-10.5 11v-17m-7 17v-5m21 5v-5m-17.5 5v-5m21 5v-5m8 5.05v-5m21 5v-5M344 202.5v-5m21 5v-5m-17.5 5v-11m21 11v-11m-10.5 11v-17m-7 17v-5m21 5v-5m-17.5 5v-5m21 5v-5m8 5.05v-5m21 5v-5M387 202.5v-5m21 5v-5m-17.5 5v-11m21 11v-11m-10.5 11v-17m-7 17v-5m21 5v-5m-17.5 5v-5m21 5v-5m8 5.05v-5m21 5v-5M430 202.5v-5m21 5v-5m-17.5 5v-11m21 11v-11m-10.5 11v-17m-7 17v-5m21 5v-5m-17.5 5v-5m21 5v-5m8 5.05v-5m21 5v-5M473 202.5v-5m21 5v-5m-17.5 5v-11m21 11v-11m-10.5 11v-17m-7 17v-5m21 5v-5m-17.5 5v-5m21 5v-5m8 5.05v-5m21 5v-5M516 202.5v-5m21 5v-5m-17.5 5v-11m21 11v-11m-10.5 11v-17m-7 17v-5m21 5v-5m-17.5 5v-5m21 5v-5m8 5.05v-5m21 5v-5M559 202.5v-5m21 5v-5m-17.5 5v-11m21 11v-11m-10.5 11v-17m-7 17v-5m21 5v-5m-17.5 5v-5m21 5v-5m8 5.05v-5m21 5v-5M602 202.5v-5m21 5v-5m-17.5 5v-11m21 11v-11m-10.5 11v-17m-7 17v-5m21 5v-5m-17.5 5v-5m21 5v-5m8 5.05v-5m21 5v-5M645 202.5v-5m21 5v-5m-17.5 5v-11m21 11v-11m-10.5 11v-17m-7 17v-5m21 5v-5m-17.5 5v-5m21 5v-5m8 5.05v-5m21 5v-5M688 202.5v-5m21 5v-5m-17.5 5v-11m21 11v-11m-10.5 11v-17m-7 17v-5m21 5v-5m-17.5 5v-5m21 5v-5m8 5.05v-5m21 5v-5M731 202.5v-5m21 5v-5m-17.5 5v-11m21 11v-11m-10.5 11v-17m-7 17v-5m21 5v-5m-17.5 5v-5m21 5v-5m8 5.05v-5m21 5v-5M774 202.5v-5m21 5v-5m-17.5 5v-11m21 11v-11m-10.5 11v-17m-7 17v-5m21 5v-5m-17.5 5v-5m21 5v-5m8 5.05v-5m21 5v-5M817 202.5v-5m21 5v-5m-17.5 5v-11m21 11v-11m-10.5 11v-17m-7 17v-5m21 5v-5m-17.5 5v-5m21 5v-5m8 5.05v-5m21 5v-5M860 202.5v-5m21 5v-5m-17.5 5v-11m21 11v-11m-10.5 11v-17m-7 17v-5m21 5v-5m-17.5 5v-5m21 5v-5m8 5.05v-5m21 5v-5M903 202.5v-5m21 5v-5m-17.5 5v-11m21 11v-11m-10.5 11v-17m-7 17v-5m21 5v-5m-17.5 5v-5m21 5v-5m8 5.05v-5m21 5v-5M946 202.5v-5m21 5v-5m-17.5 5v-11m21 11v-11m-10.5 11v-17m-7 17v-5m21 5v-5m-17.5 5v-5m21 5v-5m8 5.05v-5m21 5v-5M989 202.5v-5m21 5v-5m-17.5 5v-11m21 11v-11m-10.5 11v-17m-7 17v-5m21 5v-5m-17.5 5v-5m21 5v-5m8 5.05v-5m21 5v-5m-17.5 4.95v-5m21 5v-5m-17.5 5v-11m21 11v-11m-10.5 11v-17m-7 17v-5m21 5v-5m-17.5 5v-5m21 5v-5"/><defs><clipPath id="Frame 44468__a"><path fill="#fff" transform="translate(28)" d="M0 0h1047v204H0z"/></clipPath></defs></svg>