<svg width="24" height="24" viewBox="0 0 24 24" fill="none" xmlns="http://www.w3.org/2000/svg">
<g clip-path="url(#clip0_2643_493)">
<path d="M10.1091 18.3697L13.5767 21.8214C13.7895 22.0394 14.0555 22.1981 14.3484 22.2819C14.6414 22.3656 14.9511 22.3714 15.247 22.2986C15.5447 22.2293 15.8195 22.0848 16.0452 21.8786C16.2708 21.6724 16.4396 21.4118 16.5354 21.1215L22.23 4.05353C22.3489 3.73373 22.3734 3.38653 22.3007 3.0532C22.2279 2.71985 22.0611 2.41442 21.8198 2.17317C21.5786 1.93193 21.2731 1.76503 20.9399 1.69231C20.6065 1.61959 20.2592 1.64411 19.9395 1.76296L2.87149 7.45758C2.57124 7.56013 2.30383 7.74101 2.0969 7.9815C1.88996 8.222 1.751 8.51339 1.69438 8.82556C1.63594 9.10949 1.64895 9.40348 1.73224 9.68113C1.81553 9.95877 1.9665 10.2114 2.17158 10.4162L6.53004 14.7747L6.38687 20.2944L10.1091 18.3697Z" stroke="#5D5E5F" stroke-width="1.71" stroke-linecap="round" stroke-linejoin="round"/>
<path d="M21.7211 2.1123L6.53003 14.7741" stroke="#5D5E5F" stroke-width="1.71" stroke-linecap="round" stroke-linejoin="round"/>
</g>
<defs>
<clipPath id="clip0_2643_493">
<rect width="24" height="24" fill="white"/>
</clipPath>
</defs>
</svg>
