<svg width="17" height="15" viewBox="0 0 17 15" fill="none" xmlns="http://www.w3.org/2000/svg">
<path d="M8.47852 9.49609C8.18555 9.49609 7.93945 9.25 7.93945 8.96289V3.08008L7.98633 2.20703L7.67578 2.58203L6.83789 3.47266C6.74414 3.57812 6.60352 3.63672 6.46875 3.63672C6.19922 3.63672 5.98828 3.44336 5.98828 3.16797C5.98828 3.02734 6.04688 2.92188 6.14062 2.82227L8.07422 0.964844C8.20898 0.830078 8.33789 0.783203 8.47852 0.783203C8.625 0.783203 8.75391 0.830078 8.88867 0.964844L10.8164 2.82227C10.916 2.92188 10.9746 3.02734 10.9746 3.16797C10.9746 3.44336 10.752 3.63672 10.4883 3.63672C10.3535 3.63672 10.2188 3.57812 10.125 3.47266L9.28711 2.58203L8.97656 2.20703L9.02344 3.08008V8.96289C9.02344 9.25 8.77734 9.49609 8.47852 9.49609ZM5.10938 14.2188C3.84375 14.2188 3.1875 13.5684 3.1875 12.3145V6.57227C3.1875 5.31836 3.84375 4.66797 5.10938 4.66797H6.83203V5.81641H5.17969C4.63477 5.81641 4.33594 6.10352 4.33594 6.67188V12.2148C4.33594 12.7832 4.63477 13.0703 5.17969 13.0703H11.7832C12.3223 13.0703 12.627 12.7832 12.627 12.2148V6.67188C12.627 6.10352 12.3223 5.81641 11.7832 5.81641H10.125V4.66797H11.8535C13.1191 4.66797 13.7754 5.32422 13.7754 6.57227V12.3145C13.7754 13.5625 13.1191 14.2188 11.8535 14.2188H5.10938Z" fill="#3DA8D5"/>
</svg>
