<svg width="24" height="24" viewBox="0 0 24 24" fill="none" xmlns="http://www.w3.org/2000/svg">
<path d="M15.9805 11.2042C15.9805 12.2599 15.5611 13.2723 14.8147 14.0188C14.0682 14.7652 13.0558 15.1846 12.0001 15.1846C10.9445 15.1846 9.93205 14.7652 9.18559 14.0188C8.43913 13.2723 8.01978 12.2599 8.01978 11.2042V5.63172C8.01978 4.57607 8.43913 3.56364 9.18559 2.81718C9.93205 2.07072 10.9445 1.65137 12.0001 1.65137C13.0558 1.65137 14.0682 2.07072 14.8147 2.81718C15.5611 3.56364 15.9805 4.57607 15.9805 5.63172V11.2042Z" stroke="#5D5E5F" stroke-width="1.71" stroke-linecap="round" stroke-linejoin="round"/>
<path d="M19.9607 12C19.9628 12.9415 19.7789 13.8741 19.4197 14.7443C19.0604 15.6145 18.5327 16.4051 17.8669 17.0708C17.2012 17.7365 16.4106 18.2643 15.5404 18.6235C14.6702 18.9828 13.7376 19.1667 12.7961 19.1646H11.204C10.2625 19.1667 9.3299 18.9828 8.4597 18.6235C7.5895 18.2643 6.79884 17.7365 6.13312 17.0708C5.4674 16.4051 4.93975 15.6145 4.58043 14.7443C4.22112 13.8741 4.03722 12.9415 4.03932 12" stroke="#5D5E5F" stroke-width="1.71" stroke-linecap="round" stroke-linejoin="round"/>
<path d="M12 19.165V22.3493" stroke="#5D5E5F" stroke-width="1.71" stroke-linecap="round" stroke-linejoin="round"/>
</svg>
