<svg width="24" height="22" viewBox="0 0 24 22" fill="none" xmlns="http://www.w3.org/2000/svg">
<path fill-rule="evenodd" clip-rule="evenodd" d="M6.53647 2.82644C6.66895 2.72176 6.77952 2.59201 6.86186 2.44459C6.9442 2.29718 6.9967 2.13499 7.01636 1.96729C7.03602 1.79959 7.02245 1.62965 6.97644 1.46719C6.93042 1.30473 6.85286 1.15293 6.74818 1.02044C6.6435 0.887955 6.51375 0.777386 6.36633 0.695046C6.21892 0.612706 6.05673 0.560208 5.88903 0.540548C5.55034 0.500844 5.20975 0.597311 4.94218 0.808726C3.4403 2.00814 2.23093 3.53347 1.40561 5.2693C0.544104 7.07237 0.0765857 9.03829 0.0341797 11.0362C0.0863164 13.0119 0.555423 14.9544 1.41075 16.7362C2.23944 18.4737 3.45439 19.9989 4.96275 21.195C5.23125 21.4025 5.5709 21.4955 5.90765 21.4536C6.24439 21.4117 6.55092 21.2384 6.76041 20.9714C6.9699 20.7045 7.06536 20.3655 7.02598 20.0285C6.9866 19.6914 6.81557 19.3836 6.55018 19.1722C5.34993 18.2184 4.3836 17.0028 3.72504 15.6184C3.03312 14.1742 2.65177 12.6009 2.60561 11.0002C2.65704 9.38015 3.04104 7.8013 3.72161 6.3853C4.3783 5.00117 5.3408 3.78427 6.53647 2.82644ZM10.1262 6.34758C10.2658 6.25247 10.3852 6.13079 10.4778 5.98951C10.5703 5.84822 10.6342 5.69008 10.6656 5.52413C10.697 5.35818 10.6955 5.18766 10.661 5.02231C10.6266 4.85696 10.5599 4.70002 10.4648 4.56044C10.3696 4.42086 10.248 4.30139 10.1067 4.20884C9.96539 4.11628 9.80725 4.05246 9.6413 4.02103C9.47535 3.98959 9.30483 3.99114 9.13948 4.0256C8.97413 4.06006 8.81718 4.12675 8.67761 4.22187C7.56477 4.97792 6.64329 5.98274 5.98618 7.15673C5.32001 8.34909 4.95515 9.68612 4.92332 11.0516C4.96918 12.3857 5.33362 13.6894 5.98618 14.8539C6.63932 16.0213 7.56332 17.0224 8.68104 17.7802C8.96343 17.968 9.30859 18.0366 9.64135 17.9711C9.97411 17.9056 10.2675 17.7113 10.4577 17.4305C10.6478 17.1497 10.7193 16.8051 10.6566 16.4718C10.5939 16.1385 10.402 15.8435 10.1228 15.651C9.34064 15.1231 8.69259 14.4198 8.23018 13.5973C7.78499 12.8042 7.53303 11.9174 7.49475 11.0087C7.53305 10.0966 7.78557 9.20628 8.23189 8.40987C8.69464 7.58469 9.3432 6.87861 10.1262 6.34758ZM13.5359 4.5613C13.7278 4.27941 14.0237 4.08529 14.3587 4.02164C14.6937 3.95798 15.0403 4.03001 15.3222 4.22187C16.435 4.97792 17.3565 5.98274 18.0136 7.15673C18.6798 8.34909 19.0446 9.68612 19.0765 11.0516C19.031 12.3857 18.6665 13.6895 18.0136 14.8539C17.3554 16.0258 16.4326 17.0279 15.3188 17.7802C15.0364 17.968 14.6912 18.0366 14.3584 17.9711C14.0257 17.9056 13.7323 17.7113 13.5421 17.4305C13.352 17.1497 13.2805 16.8051 13.3432 16.4718C13.4059 16.1385 13.5978 15.8435 13.877 15.651C14.6591 15.1231 15.3072 14.4198 15.7696 13.5973C16.2139 12.8039 16.4658 11.9172 16.505 11.0087C16.4667 10.0966 16.2142 9.20628 15.7679 8.40987C15.3051 7.58469 14.6566 6.87861 13.8736 6.34758C13.592 6.15545 13.3982 5.85934 13.3349 5.52436C13.2716 5.18939 13.3439 4.84298 13.5359 4.5613ZM19.0559 0.807012C18.9233 0.702329 18.7714 0.624789 18.6088 0.578818C18.4462 0.532847 18.2762 0.519346 18.1084 0.539085C17.9407 0.558824 17.7784 0.611417 17.6309 0.693861C17.4835 0.776305 17.3537 0.886985 17.249 1.01958C17.1444 1.15218 17.0668 1.3041 17.0208 1.46666C16.9749 1.62923 16.9614 1.79925 16.9811 1.96704C17.0008 2.13482 17.0534 2.29707 17.1359 2.44453C17.2183 2.59198 17.329 2.72176 17.4616 2.82644C18.6582 3.78379 19.6213 5.00077 20.2782 6.3853C20.9669 7.8292 21.3465 9.40105 21.3925 11.0002C21.3468 12.6008 20.966 14.1741 20.2747 15.6184C19.6162 17.0028 18.6499 18.2184 17.4496 19.1722C17.1842 19.3836 17.0132 19.6914 16.9738 20.0285C16.9344 20.3655 17.0299 20.7045 17.2394 20.9714C17.4489 21.2384 17.7554 21.4117 18.0921 21.4536C18.4289 21.4955 18.7685 21.4025 19.037 21.195C20.5452 19.9994 21.7601 18.4748 22.589 16.7379C23.4545 14.9335 23.9238 12.9649 23.9656 10.9642C23.9131 8.99067 23.4459 7.05032 22.5942 5.2693C21.7689 3.53347 20.5595 2.00814 19.0576 0.808726L19.0559 0.807012ZM9.85704 11.0002C9.85704 10.7188 9.91246 10.4401 10.0202 10.1801C10.1278 9.92014 10.2857 9.68391 10.4847 9.48493C10.6836 9.28594 10.9199 9.1281 11.1799 9.02041C11.4398 8.91272 11.7185 8.8573 11.9999 8.8573C12.2813 8.8573 12.5599 8.91272 12.8199 9.02041C13.0799 9.1281 13.3161 9.28594 13.5151 9.48493C13.7141 9.68391 13.8719 9.92014 13.9796 10.1801C14.0873 10.4401 14.1428 10.7188 14.1428 11.0002C14.1428 11.5685 13.917 12.1135 13.5151 12.5154C13.1133 12.9172 12.5682 13.143 11.9999 13.143C11.4316 13.143 10.8865 12.9172 10.4847 12.5154C10.0828 12.1135 9.85704 11.5685 9.85704 11.0002Z" fill="#5D5E5F"/>
</svg>
