<svg width="21" height="23" viewBox="0 0 21 23" fill="none" xmlns="http://www.w3.org/2000/svg">
<path d="M11.8184 21.7402C11.3105 22.0332 10.9102 22.1797 10.5 22.1797C10.0801 22.1797 9.67969 22.0332 9.17188 21.7402L1.57422 17.3359C0.753906 16.8574 0.392578 16.4473 0.392578 15.832C0.392578 15.207 0.753906 14.8066 1.57422 14.3184L2.91211 13.5469L1.57422 12.7754C0.753906 12.2969 0.392578 11.8867 0.392578 11.2715C0.392578 10.6562 0.753906 10.2461 1.57422 9.76758L3.14648 8.85938L1.57422 7.94141C0.753906 7.46289 0.392578 7.05273 0.392578 6.4375C0.392578 5.8125 0.753906 5.41211 1.57422 4.92383L9.17188 0.519531C9.67969 0.226562 10.0801 0.0800781 10.5 0.0800781C10.9102 0.0800781 11.3105 0.226562 11.8184 0.519531L19.416 4.92383C20.2363 5.41211 20.5977 5.8125 20.5977 6.4375C20.5977 7.05273 20.2363 7.46289 19.416 7.94141L17.8438 8.84961L19.416 9.76758C20.2363 10.2461 20.5977 10.6562 20.5977 11.2715C20.5977 11.8867 20.2363 12.2969 19.416 12.7754L18.0879 13.5469L19.416 14.3184C20.2363 14.8066 20.5977 15.207 20.5977 15.832C20.5977 16.4473 20.2363 16.8574 19.416 17.3359L11.8184 21.7402ZM10.5 10.7539C10.627 10.7539 10.7441 10.7051 10.8906 10.627L18.0879 6.52539C18.127 6.50586 18.1562 6.47656 18.1562 6.4375C18.1562 6.38867 18.127 6.36914 18.0879 6.33984L10.8906 2.24805C10.7441 2.16016 10.627 2.12109 10.5 2.12109C10.3633 2.12109 10.2461 2.16016 10.0996 2.24805L2.91211 6.33984C2.86328 6.36914 2.84375 6.38867 2.84375 6.4375C2.84375 6.47656 2.86328 6.50586 2.91211 6.52539L10.0996 10.627C10.2461 10.7051 10.3633 10.7539 10.5 10.7539ZM10.5 12.7852C10.0801 12.7852 9.67969 12.6484 9.17188 12.3457L5.05078 9.95312L2.91211 11.1738C2.86328 11.2031 2.84375 11.2227 2.84375 11.2715C2.84375 11.3203 2.86328 11.3398 2.91211 11.3691L10.0996 15.4609C10.2461 15.5488 10.3633 15.5879 10.5 15.5879C10.627 15.5879 10.7441 15.5488 10.8906 15.4609L18.0879 11.3691C18.127 11.3398 18.1562 11.3203 18.1562 11.2715C18.1562 11.2227 18.127 11.2031 18.0879 11.1738L15.9395 9.96289L11.8184 12.3457C11.3105 12.6484 10.9102 12.7852 10.5 12.7852ZM10.0996 20.0215C10.2461 20.0996 10.3633 20.1484 10.5 20.1484C10.627 20.1484 10.7441 20.0996 10.8906 20.0215L18.0879 15.9199C18.127 15.9004 18.1562 15.8711 18.1562 15.832C18.1562 15.7832 18.127 15.7637 18.0879 15.7344L16.1836 14.6504L11.8184 17.1797C11.3105 17.4824 10.9102 17.6289 10.5 17.6289C10.0801 17.6289 9.67969 17.4824 9.17188 17.1797L4.81641 14.6504L2.91211 15.7344C2.86328 15.7637 2.84375 15.7832 2.84375 15.832C2.84375 15.8711 2.86328 15.9004 2.91211 15.9199L10.0996 20.0215Z" fill="#E3E3E3"/>
</svg>
